<svg width="92" height="126" viewBox="0 0 92 126" fill="none" xmlns="http://www.w3.org/2000/svg">
<path d="M51.9961 20.4798C51.9961 20.4798 55.9467 10.7399 59.3774 9.91098C61.9765 9.49652 60.7806 2.96863 66.3425 4.16022C70.9688 5.19638 70.2933 6.12883 70.2933 6.12883C70.2933 6.12883 81.1569 5.71441 83.2362 13.4338C83.756 18.4074 82.0407 18.1485 84.6397 20.0654C87.2388 21.9824 88.9541 27.5776 88.2784 29.1319C87.6026 30.6861 88.1225 34.0017 89.1621 34.6234C90.2018 35.2451 92.0731 38.5092 90.2018 40.5297C88.3305 42.5502 88.6423 43.949 89.1621 44.1563C89.682 44.3635 89.7858 46.384 88.2784 46.7467C86.7709 47.1094 85.8873 53.119 84.6397 52.86C83.3922 52.6009 80.2216 50.1142 81.2092 48.819C82.1969 47.5238 78.8178 47.3684 78.0381 46.7467C77.2584 46.125 75.6472 43.379 74.6076 42.9645C73.568 42.5501 69.2533 34.9861 71.1766 31.8258C73.0999 28.6655 66.8622 30.3751 69.0974 26.8521C71.3325 23.3292 65.1471 32.7584 64.8872 19.2365C63.8475 14.781 60.4166 15.0917 58.9612 18.8218C57.5057 22.552 57.454 23.3811 57.454 23.3811L51.9961 20.4798Z" fill="#57B741" stroke="black" stroke-width="1.03961"/>
<path d="M5.99391 84.4636C5.99391 84.4636 0.847532 86.6395 1.00347 92.442C1.52328 97.1048 3.96667 104.462 8.33303 105.394C11.2439 105.394 13.7908 103.995 14.3626 100.783C14.6225 98.5555 14.3109 93.7373 17.0139 91.4577C16.0782 89.8517 9.37243 83.7901 7.3452 84.4636C5.7338 84.36 5.99391 84.4636 5.99391 84.4636Z" fill="url(#paint0_linear_177_8900)" stroke="black" stroke-width="1.03961"/>
<path d="M3.08234 78.7127C3.29026 79.1789 7.189 81.9248 7.189 83.1164C7.24098 84.3079 9.5799 84.6187 9.5799 84.6187L13.0109 87.261L17.0653 91.4057C17.0653 91.4057 21.172 88.5562 21.6918 88.8153C22.2116 89.0743 22.0034 83.0645 22.0034 83.0645L12.4388 86.3804C10.0477 87.2094 14.4661 85.1888 13.7383 82.1839C12.6987 79.4381 6.9291 70.8378 3.55037 76.5885C3.1865 77.5728 2.87442 78.2982 3.08234 78.7127Z" fill="#F97D1B" stroke="black" stroke-width="1.03961"/>
<path d="M15.0909 60.8908C15.0909 60.8908 12.1799 64.7245 15.5067 67.7811C18.8334 70.8378 24.1875 73.9465 23.9276 75.7598C23.4598 77.6249 22.004 81.9248 22.056 83.0646C22.108 84.2044 21.2767 88.1937 22.2123 88.9191C22.3683 89.8516 20.4966 96.5867 21.2763 98.5036C21.4322 99.747 16.65 104.358 19.1971 109.642C18.4693 112.026 16.9619 122.335 19.1971 124.097C20.8604 125.599 32.1925 128.241 39.5217 115.963C40.1975 114.098 47.2665 112.803 48.0462 104.876C47.5784 104.202 53.8161 101.457 51.9448 94.7733C52.8804 93.8926 55.3238 90.836 54.856 89.9552C54.3882 89.0745 44.1479 87.6239 52.9326 82.2359C55.3757 81.925 58.6505 83.013 58.6505 83.013C58.6505 83.013 59.4302 73.8946 63.0688 70.2162C64.2644 67.9885 65.7718 67.574 67.4872 57.4714C67.3312 50.4772 69.5662 43.2759 63.3805 37.059C58.7022 32.2408 58.2865 31.7744 58.2865 31.7744C58.2865 31.7744 46.279 19.7033 34.1156 23.1745C26.4225 25.6612 21.7441 29.9094 21.0164 32.0853C20.5486 33.6914 13.5835 35.9193 13.2716 42.8616C12.4919 48.6123 12.5957 57.3677 13.9472 58.9737C15.2987 60.5798 15.0909 60.8908 15.0909 60.8908Z" fill="url(#paint1_linear_177_8900)" stroke="black" stroke-width="1.03961"/>
<path d="M13.5834 41.3594C16.1304 35.246 19.5612 30.3243 25.383 35.1943C25.6949 36.8521 30.3732 24.8845 34.2197 26.9568C36.9227 27.993 41.2372 32.7592 42.1208 37.2147C43.0045 41.722 46.0714 52.6537 42.6407 58.3526C39.2099 64.0516 36.351 67.9889 30.6851 64.4659C27.1505 60.3731 26.7343 59.2332 26.7343 59.2332C26.7343 59.2332 26.2149 66.9527 22.2124 65.7093C21.5367 65.3466 20.1851 65.243 19.2494 64.4659C16.5984 62.29 13.9993 58.3526 13.6874 57.2646C12.4919 53.3272 11.6601 46.0739 13.5834 41.3594Z" fill="white" stroke="black" stroke-width="1.03961"/>
<path d="M20.8086 70.9413C20.8086 70.9413 29.905 73.6353 36.7144 70.216C40.7169 68.04 44.4595 65.3977 47.8902 62.341C47.8902 62.341 48.9299 60.2169 50.3334 62.341C51.7369 64.4652 54.4398 65.9678 49.4496 63.5328C46.4868 64.5689 44.096 73.5835 42.4846 74.8269C41.5489 76.7438 32.7639 91.4574 26.3183 82.9609C24.447 77.262 26.8902 77.21 24.3432 74.516C22.108 72.34 20.8086 70.9413 20.8086 70.9413Z" fill="white" stroke="black" stroke-width="0.519805"/>
<path d="M27.2537 18.2525C27.1498 17.9416 30.5808 7.83904 33.0239 12.2945C35.5709 16.232 34.7909 17.3198 34.7909 17.3198C34.6869 17.8897 34.6352 18.4597 34.5833 19.0296C34.5313 19.0296 40.249 19.8583 39.6773 15.7137C39.1055 11.569 35.1031 8.14984 35.1031 6.0257C35.1031 3.90156 33.0236 0.482266 30.2167 1.15577C27.3058 1.67386 23.0954 0.378649 21.38 1.41481C19.6647 2.45098 14.155 5.76666 15.7144 7.57994C17.2739 9.39323 12.5433 10.8438 12.5433 10.8438C12.5433 10.8438 8.74886 13.486 9.52857 16.0246C10.2563 18.3042 7.76133 22.2417 5.994 22.3453C4.48656 22.8116 5.11023 30.0647 6.40974 31.3599C7.70925 32.6551 7.39757 36.748 8.17728 36.3854C8.95699 36.0227 12.1275 32.0334 13.5829 32.137C14.9864 32.1888 16.182 31.6189 17.4815 30.5828C18.781 29.5466 22.7314 26.0235 22.3156 24.003C21.8997 21.9825 22.6278 20.9465 23.4075 21.361C24.1872 21.7755 27.2537 18.2525 27.2537 18.2525Z" fill="#50B43F" stroke="black" stroke-width="1.03961"/>
<path d="M32.764 18.5115C32.5561 17.8898 28.3977 13.6931 28.3457 19.133C28.8135 21.2572 30.1651 21.9307 29.2295 23.3295C28.2938 24.7284 28.9173 27.5779 32.8158 24.4694C34.8431 22.6043 37.5462 21.6717 38.4819 22.8115C39.4175 23.8994 43.2118 24.9874 43.6277 22.8115C44.0435 20.6355 41.5487 18.9259 44.4597 17.1644C44.8235 15.1439 40.8728 13.3823 40.0931 16.0764C39.3134 18.7704 32.972 19.1332 32.764 18.5115Z" fill="url(#paint2_linear_177_8900)" stroke="black" stroke-width="0.519805"/>
<path d="M52.1531 20.3252C52.1531 20.3252 49.866 16.3358 48.2546 19.3925C46.955 22.3456 48.9824 24.5217 47.5789 24.7289C46.1754 24.9361 48.0984 26.853 50.6455 25.7651C53.1925 24.6771 54.8041 32.0337 56.0516 30.2722C57.2992 28.5107 59.0143 37.1629 60.7817 31.982C62.549 26.8012 61.5097 24.1072 63.9528 23.9518C66.3959 23.7963 60.4699 21.5686 59.0664 22.9156C57.6629 24.2626 52.1531 20.3252 52.1531 20.3252Z" fill="url(#paint3_linear_177_8900)" stroke="black" stroke-width="0.519805"/>
<path d="M52.6726 20.843C52.6206 20.7394 51.373 25.2984 51.373 25.2984C51.373 25.2984 53.6084 26.9045 54.1802 28.2515C54.752 29.5985 57.2467 23.2779 57.2467 23.2779C57.2467 23.2779 52.7245 20.9467 52.6726 20.843Z" fill="#C888BE"/>
<path d="M32.8156 18.9775C32.6077 18.4594 34.1151 23.174 34.1151 23.174C34.1151 23.174 36.7664 21.2053 38.5857 23.174C40.2491 23.8475 38.9492 17.9932 38.9492 17.9932C38.9492 17.9932 33.0235 19.4956 32.8156 18.9775Z" fill="#C888BE"/>
<path d="M71.2285 30.8418C71.2285 30.8418 77.8818 32.4996 78.2977 28.9767C78.7135 25.4537 70.0848 23.0705 76.3225 23.4849C82.5602 23.8994 82.4042 20.0138 83.08 17.8379" stroke="black" stroke-width="1.03961"/>
<path d="M74.9727 43.2759C74.9727 43.2759 82.3019 45.0374 82.7697 41.3072C83.2376 37.5771 73.7248 35.0902 80.6382 35.5565C87.5516 36.0228 87.2916 31.93 88.0713 29.6504" stroke="black" stroke-width="1.03961"/>
<path d="M14.0508 10.2739C14.0508 10.2739 15.0901 16.9573 18.4168 15.8175C21.7436 14.6777 18.2611 20.2212 20.1844 20.9465C22.1077 21.6718 22.6276 21.6717 22.6276 21.6717" stroke="black" stroke-width="1.03961"/>
<path d="M9.68457 16.854C9.68457 16.854 10.8804 23.9517 14.675 22.7601C18.4696 21.5685 14.4668 27.4228 16.7019 28.2C18.9371 28.9771 19.5091 28.9252 19.5091 28.9252" stroke="black" stroke-width="1.03961"/>
<path d="M63.4843 87.1059C63.4843 87.1059 58.5984 81.6142 55.3756 82.4431C52.7246 82.1323 48.7741 85.0335 49.3978 86.3287C50.1775 87.9348 51.7366 89.0744 53.504 89.2817C54.7515 89.7997 56.5708 89.5927 57.6624 90.2144C58.754 90.8361 63.6404 96.4313 62.5488 98.4518C61.4572 100.472 60.0539 103.995 61.4574 104.721C62.8609 105.446 66.7592 106.638 67.4869 102.441C68.1107 98.5037 68.2145 97.882 71.4372 98.7627C74.66 99.1772 84.6403 98.0373 84.9522 93.2191C84.6923 90.4215 83.6531 90.7843 80.1704 92.0795C76.6877 93.3747 69.9819 93.3747 69.2022 92.0795C68.4225 90.7843 63.4843 87.1059 63.4843 87.1059Z" fill="url(#paint4_linear_177_8900)" stroke="black" stroke-width="1.03961"/>
<path d="M64.0041 87.4165C64.0041 87.4165 59.378 87.8826 58.9102 91.1465" stroke="black" stroke-width="1.03961"/>
<path d="M21.6973 89.0537C21.6973 89.0537 44.4127 84.8572 52.1578 95.3743" stroke="black" stroke-width="1.03961"/>
<path d="M20.918 99.1561C23.2571 98.4826 25.7002 98.0681 28.1952 97.9127C29.4428 97.8091 30.6383 97.8091 31.8859 97.8091C33.1334 97.8609 34.3809 97.9645 35.5765 98.1199C38.0196 98.4826 40.4626 99.2079 42.6458 100.348C43.7374 100.918 44.777 101.643 45.7127 102.472C46.6483 103.301 47.428 104.285 48.0518 105.321C47.2201 104.441 46.3364 103.612 45.3488 102.886C44.3612 102.161 43.3216 101.591 42.23 101.073C41.1384 100.555 39.9948 100.192 38.8512 99.8814C37.7077 99.5706 36.5121 99.3115 35.3166 99.1561C32.9255 98.7934 30.5344 98.6898 28.0913 98.6898C25.8041 98.7416 23.3611 98.8971 20.918 99.1561Z" fill="black"/>
<path d="M18.8379 109.518C20.7612 108.948 22.7364 108.585 24.7637 108.378C26.7909 108.171 28.7662 108.119 30.8454 108.274C31.885 108.378 32.9246 108.533 33.9122 108.948C34.8999 109.362 35.7835 110.036 36.4593 110.813C37.135 111.59 37.7068 112.419 38.2266 113.3C38.7464 114.129 39.2662 115.01 39.786 115.89C39.1103 115.165 38.4865 114.388 37.8108 113.611C37.187 112.834 36.5632 112.056 35.8875 111.383C35.2117 110.709 34.432 110.14 33.5484 109.881C32.6647 109.57 31.7291 109.414 30.7414 109.311C29.7538 109.207 28.7662 109.207 27.7785 109.155C26.7909 109.103 25.8033 109.155 24.8156 109.155C22.8404 109.207 20.8651 109.362 18.8379 109.518Z" fill="black"/>
<path d="M20.7046 45.8662C22.9918 45.8662 25.7986 48.7157 25.7986 51.876C25.7986 55.0363 23.6674 59.0255 21.3803 59.0255C19.0931 59.0255 15.9746 55.6579 15.9746 52.5494C15.9746 49.3891 18.4175 45.8662 20.7046 45.8662Z" fill="#97401A"/>
<path d="M36.8177 56.2276C40.2627 56.2276 43.0554 52.4004 43.0554 47.6792C43.0554 42.9581 40.2627 39.1309 36.8177 39.1309C33.3728 39.1309 30.5801 42.9581 30.5801 47.6792C30.5801 52.4004 33.3728 56.2276 36.8177 56.2276Z" fill="#97401A"/>
<path d="M38.6385 53.1194C40.5045 53.1194 42.0172 51.2638 42.0172 48.9747C42.0172 46.6857 40.5045 44.8301 38.6385 44.8301C36.7725 44.8301 35.2598 46.6857 35.2598 48.9747C35.2598 51.2638 36.7725 53.1194 38.6385 53.1194Z" fill="#040211"/>
<path d="M22.2634 56.2278C23.9858 56.2278 25.3822 54.3722 25.3822 52.0831C25.3822 49.7941 23.9858 47.9385 22.2634 47.9385C20.5409 47.9385 19.1445 49.7941 19.1445 52.0831C19.1445 54.3722 20.5409 56.2278 22.2634 56.2278Z" fill="#040211"/>
<path d="M10.256 37.9399C10.256 37.9399 11.3995 40.6857 12.4911 40.4266C13.5827 40.1676 13.7906 40.6338 13.7906 40.6338L12.4911 44.7266C12.4911 44.7266 9.68401 44.0014 9.78797 42.499C9.89194 40.9965 10.256 37.9399 10.256 37.9399Z" fill="#090807"/>
<path d="M25.5908 35.1938C25.5908 35.1938 25.9546 41.2037 26.0066 47.6797C26.0066 52.2388 25.1747 57.2125 27.0979 59.9065" stroke="black" stroke-width="1.03961"/>
<path d="M31.6713 53.0676C33.1067 53.0676 34.2703 51.212 34.2703 48.923C34.2703 46.6339 33.1067 44.7783 31.6713 44.7783C30.2359 44.7783 29.0723 46.6339 29.0723 48.923C29.0723 51.212 30.2359 53.0676 31.6713 53.0676Z" fill="white"/>
<path d="M16.0775 57.2122C17.5129 57.2122 18.6766 55.3565 18.6766 53.0675C18.6766 50.7785 17.5129 48.9229 16.0775 48.9229C14.6421 48.9229 13.4785 50.7785 13.4785 53.0675C13.4785 55.3565 14.6421 57.2122 16.0775 57.2122Z" fill="white"/>
<path d="M42.4844 37.9397C42.4844 37.9397 45.031 36.437 45.4469 35.1418C45.8627 33.8466 46.0707 36.3336 46.0707 36.3336L45.8631 36.7998C45.8631 36.7998 47.7344 34.2094 47.9423 35.5564C48.1502 36.9034 46.5388 38.5612 46.5388 38.5612C46.5388 38.5612 48.6697 35.2974 48.9297 36.3336C49.1896 37.3697 46.7985 39.5975 46.0707 40.012C45.343 40.4265 43.2641 41.5144 43.2641 41.5144L42.4844 37.9397Z" fill="black"/>
<path opacity="0.28" d="M55.3666 36.0192C55.3666 36.0192 49.1811 35.6046 52.9757 43.9458C56.7702 52.2869 59.3172 52.5977 60.6687 52.4423C62.0202 52.2868 58.0177 57.5713 60.6687 58.9183C63.3197 60.2653 65.6587 59.2292 65.5028 56.0688C65.3468 52.9085 62.9038 52.028 64.0474 49.2822C65.191 46.5363 61.8122 37.5735 59.3692 36.5892C56.9261 35.6048 55.3666 36.0192 55.3666 36.0192Z" fill="#F8B53A"/>
<path d="M55.3652 14.2082C55.3652 14.2082 59.8875 10.8407 62.6425 11.1515C65.3975 11.4624 66.541 13.5864 67.5807 10.0116C68.6203 6.43688 70.336 5.9707 70.336 5.9707" stroke="black" stroke-width="1.03961"/>
<path d="M63.4229 16.5395C63.4229 16.5395 67.7895 12.8612 70.4925 13.2239C73.1955 13.5865 74.2872 15.8661 75.2748 11.9805C76.2624 8.09489 77.9256 7.62842 77.9256 7.62842" stroke="black" stroke-width="1.03961"/>
<path d="M16.4844 5.24512C16.4844 5.24512 21.2146 7.3174 21.9423 9.59696C22.6701 11.8765 21.1108 13.6898 24.7495 12.9645C28.3881 12.2392 29.4277 13.3789 29.4277 13.3789" stroke="black" stroke-width="1.03961"/>
<path d="M23.7617 1.10059C23.7617 1.10059 28.4919 3.17287 29.2197 5.45243C29.9474 7.73199 28.3882 9.54528 32.0268 8.81996C35.6655 8.09465 36.7051 9.23433 36.7051 9.23433" stroke="black" stroke-width="1.03961"/>
<path d="M79.0176 36.2266C79.0176 36.2266 83.8521 37.6771 85.3075 36.6928" stroke="black" stroke-width="1.03961"/>
<path d="M74.9629 24.311C74.9629 24.311 79.7974 25.7616 81.2528 24.7773" stroke="black" stroke-width="1.03961"/>
<path d="M13.625 15.71C13.625 15.71 18.4595 17.1605 19.9149 16.1762" stroke="black" stroke-width="1.03961"/>
<path d="M22.2031 5.19351C22.2031 5.19351 25.738 3.74272 25.5301 2.18848" stroke="black" stroke-width="1.03961"/>
<path d="M12.8457 26.4352C12.8457 26.4352 16.3806 24.9844 16.1727 23.4302" stroke="black" stroke-width="1.03961"/>
<path d="M6.08789 29.5436C6.08789 29.5436 9.62277 28.0928 9.41485 26.5386" stroke="black" stroke-width="1.03961"/>
<path d="M7.9082 35.6049C7.9082 35.6049 11.4431 34.1543 11.2352 32.6001" stroke="black" stroke-width="1.03961"/>
<path d="M18.5635 28.4037C18.5635 28.4037 22.0984 26.9532 21.8904 25.3989" stroke="black" stroke-width="1.03961"/>
<path d="M75.5352 11.6699C75.5352 11.6699 80.3691 13.1205 81.8246 12.1361" stroke="black" stroke-width="1.03961"/>
<path d="M75.8457 43.9976C75.8457 43.9976 80.6797 45.4481 82.1351 44.4638" stroke="black" stroke-width="1.03961"/>
<path d="M20.9023 71.0418C20.9023 71.0418 25.373 72.9068 29.0116 72.2333C30.571 72.2851 31.5066 71.9743 32.8061 71.8189C34.4695 71.6635 36.2889 71.3526 39.4077 68.9695C42.1627 67.467 44.6577 65.6018 46.9449 63.4259L48.3479 61.7163" stroke="black" stroke-width="0.519805"/>
<defs>
<linearGradient id="paint0_linear_177_8900" x1="6.47279" y1="94.0605" x2="17.0526" y2="97.1301" gradientUnits="userSpaceOnUse">
<stop stop-color="#F37422"/>
<stop offset="1" stop-color="#E43922"/>
</linearGradient>
<linearGradient id="paint1_linear_177_8900" x1="44.3504" y1="79.4353" x2="61.2742" y2="81.6661" gradientUnits="userSpaceOnUse">
<stop stop-color="#F38620"/>
<stop offset="1" stop-color="#E5412C"/>
</linearGradient>
<linearGradient id="paint2_linear_177_8900" x1="31.8359" y1="20.0216" x2="41.9484" y2="21.3718" gradientUnits="userSpaceOnUse">
<stop stop-color="#C87AC1"/>
<stop offset="0.446" stop-color="#C278BA"/>
<stop offset="1" stop-color="#BB75B2"/>
</linearGradient>
<linearGradient id="paint3_linear_177_8900" x1="51.5129" y1="23.0361" x2="59.891" y2="28.7109" gradientUnits="userSpaceOnUse">
<stop stop-color="#C87AC1"/>
<stop offset="0.262" stop-color="#EAB7DC"/>
<stop offset="1" stop-color="#BB75B2"/>
</linearGradient>
<linearGradient id="paint4_linear_177_8900" x1="64.6407" y1="89.1743" x2="69.7437" y2="102.394" gradientUnits="userSpaceOnUse">
<stop stop-color="#EF8A23"/>
<stop offset="1" stop-color="#F03B1E"/>
</linearGradient>
</defs>
</svg>
