<svg width="88" height="122" viewBox="0 0 88 122" fill="none" xmlns="http://www.w3.org/2000/svg">
<path d="M38.4922 19.7253C38.4922 19.7253 34.6946 10.3627 31.3968 9.56588C28.8985 9.16747 30.048 2.89247 24.7016 4.0379C20.2545 5.03392 20.9038 5.93024 20.9038 5.93024C20.9038 5.93024 10.461 5.53188 8.46236 12.9523C7.9627 17.7332 9.6115 17.4843 7.11316 19.327C4.61483 21.1696 2.96592 26.5481 3.61549 28.0422C4.26506 29.5362 3.76529 32.7233 2.76596 33.3209C1.76662 33.9185 -0.0321787 37.0562 1.76662 38.9984C3.56543 40.9407 3.26563 42.2853 2.76596 42.4845C2.26629 42.6837 2.16646 44.626 3.61549 44.9746C5.06453 45.3232 5.91396 51.1 7.11316 50.851C8.31237 50.602 11.3601 48.2116 10.4108 46.9666C9.46141 45.7216 12.7095 45.5722 13.459 44.9746C14.2085 44.3769 15.7573 41.7373 16.7567 41.3389C17.756 40.9405 21.9035 33.6695 20.0547 30.6317C18.206 27.5938 24.202 29.2372 22.0534 25.8507C19.9048 22.4642 25.8507 31.5282 26.1005 18.5301C27.0999 14.2472 30.3979 14.5458 31.7969 18.1315C33.196 21.7172 33.2457 22.5142 33.2457 22.5142L38.4922 19.7253Z" fill="#57B741" stroke="black" stroke-width="0.852347"/>
<path d="M82.7132 81.2297C82.7132 81.2297 87.6602 83.3213 87.5103 88.899C87.0107 93.3811 84.6619 100.453 80.4647 101.349C77.6666 101.349 75.2184 100.005 74.6688 96.9171C74.4189 94.7756 74.7185 90.1441 72.1202 87.9528C73.0196 86.409 79.4656 80.5823 81.4143 81.2297C82.9633 81.1301 82.7132 81.2297 82.7132 81.2297Z" fill="url(#paint0_linear_177_2232)" stroke="black" stroke-width="0.852347"/>
<path d="M85.512 75.7017C85.3122 76.1499 81.5645 78.7894 81.5645 79.9348C81.5145 81.0802 79.2662 81.379 79.2662 81.379L75.9681 83.9189L72.0708 87.903C72.0708 87.903 68.1232 85.1639 67.6236 85.4129C67.1239 85.6619 67.3239 79.8849 67.3239 79.8849L76.518 83.0724C78.8165 83.8692 74.5693 81.9269 75.2689 79.0385C76.2682 76.399 81.8143 68.1319 85.0621 73.6598C85.4119 74.606 85.7119 75.3033 85.512 75.7017Z" fill="#F97D1B" stroke="black" stroke-width="0.852347"/>
<path d="M73.9692 58.5708C73.9692 58.5708 76.7674 62.256 73.5696 65.1943C70.3717 68.1326 65.225 71.1208 65.4748 72.8639C65.9245 74.6567 67.3239 78.79 67.2739 79.8857C67.224 80.9813 68.0231 84.8161 67.1236 85.5133C66.9737 86.4098 68.7729 92.8839 68.0234 94.7265C67.8735 95.9218 72.4705 100.354 70.0221 105.434C70.7216 107.725 72.1707 117.635 70.0221 119.328C68.4232 120.773 57.5301 123.312 50.4848 111.509C49.8353 109.717 43.0401 108.472 42.2906 100.852C42.7403 100.205 36.7443 97.5651 38.5431 91.1408C37.6437 90.2941 35.2949 87.356 35.7446 86.5094C36.1943 85.6627 46.0379 84.2683 37.5935 79.089C35.2451 78.7902 32.0972 79.836 32.0972 79.836C32.0972 79.836 31.3476 71.0709 27.85 67.5351C26.7007 65.3936 25.2517 64.9951 23.6028 55.2839C23.7527 48.5608 21.6043 41.6384 27.5504 35.6623C32.0474 31.0308 32.447 30.5825 32.447 30.5825C32.447 30.5825 43.9893 18.979 55.6816 22.3157C63.0766 24.7061 67.5737 28.7897 68.2733 30.8813C68.723 32.4252 75.4182 34.5668 75.718 41.2401C76.4675 46.7681 76.3677 55.1843 75.0686 56.7281C73.7694 58.2719 73.9692 58.5708 73.9692 58.5708Z" fill="url(#paint1_linear_177_2232)" stroke="black" stroke-width="0.852347"/>
<path d="M75.4189 39.796C72.9706 33.9194 69.6727 29.1884 64.0764 33.8697C63.7766 35.4633 59.2796 23.9593 55.582 25.9513C52.9838 26.9474 48.8364 31.529 47.987 35.8119C47.1376 40.1446 44.1895 50.6528 47.4873 56.1309C50.7851 61.609 53.5333 65.3938 58.9797 62.0073C62.3774 58.073 62.7774 56.9774 62.7774 56.9774C62.7774 56.9774 63.2767 64.3977 67.1242 63.2025C67.7737 62.8539 69.073 62.7544 69.9724 62.0073C72.5207 59.9157 75.0191 56.1308 75.3189 55.085C76.4681 51.3001 77.2677 44.3279 75.4189 39.796Z" fill="white" stroke="black" stroke-width="0.852347"/>
<path d="M68.4727 68.2312C68.4727 68.2312 59.7287 70.8209 53.183 67.534C49.3356 65.4424 45.738 62.9024 42.4402 59.9641C42.4402 59.9641 41.4407 57.9223 40.0916 59.9641C38.7425 62.006 36.1444 63.4504 40.9412 61.1097C43.7893 62.1057 46.0875 70.771 47.6364 71.9663C48.5358 73.8089 56.9805 87.9525 63.1764 79.7851C64.9752 74.307 62.6266 74.2571 65.075 71.6674C67.2236 69.5758 68.4727 68.2312 68.4727 68.2312Z" fill="white" stroke="black" stroke-width="0.426174"/>
<path d="M62.2768 17.5844C62.3768 17.2856 59.0787 7.57432 56.7302 11.8572C54.2819 15.6421 55.0316 16.6878 55.0316 16.6878C55.1316 17.2356 55.1813 17.7836 55.2312 18.3314C55.2812 18.3314 49.7849 19.128 50.3346 15.1439C50.8842 11.1598 54.7316 7.87308 54.7316 5.83123C54.7316 3.78939 56.7304 0.502558 59.4286 1.14997C62.2268 1.64798 66.2741 0.402955 67.923 1.39898C69.5719 2.395 74.8681 5.58223 73.3691 7.32527C71.8701 9.06831 76.4173 10.4626 76.4173 10.4626C76.4173 10.4626 80.0648 13.0025 79.3153 15.4428C78.6158 17.634 81.0141 21.419 82.7129 21.5186C84.162 21.9668 83.5625 28.9389 82.3133 30.184C81.0641 31.429 81.3637 35.3634 80.6142 35.0148C79.8647 34.6662 76.8171 30.8314 75.418 30.931C74.0689 30.9808 72.9196 30.433 71.6705 29.4369C70.4213 28.4409 66.6239 25.0543 67.0237 23.1121C67.4234 21.1699 66.7236 20.174 65.9741 20.5724C65.2246 20.9708 62.2768 17.5844 62.2768 17.5844Z" fill="#50B43F" stroke="black" stroke-width="0.852347"/>
<path d="M56.9804 17.8337C57.1802 17.236 61.1776 13.202 61.2275 18.4311C60.7778 20.473 59.4786 21.1204 60.378 22.4651C61.2774 23.8097 60.6781 26.5489 56.9306 23.5608C54.9819 21.768 52.3834 20.8714 51.484 21.9671C50.5846 23.0129 46.9373 24.0587 46.5376 21.9671C46.1379 19.8754 48.536 18.232 45.7378 16.5388C45.3881 14.5965 49.1857 12.9032 49.9352 15.4929C50.6847 18.0826 56.7805 18.4313 56.9804 17.8337Z" fill="url(#paint2_linear_177_2232)" stroke="black" stroke-width="0.426174"/>
<path d="M38.3432 19.5769C38.3432 19.5769 40.5418 15.7421 42.0907 18.6803C43.3399 21.519 41.3911 23.6108 42.7402 23.81C44.0893 24.0092 42.2408 25.8519 39.7925 24.806C37.3441 23.7602 35.7949 30.8318 34.5957 29.1386C33.3965 27.4454 31.7478 35.7623 30.0489 30.7822C28.3501 25.8021 29.3491 23.2124 27.0007 23.063C24.6522 22.9136 30.3487 20.7721 31.6978 22.067C33.0469 23.3618 38.3432 19.5769 38.3432 19.5769Z" fill="url(#paint3_linear_177_2232)" stroke="black" stroke-width="0.426174"/>
<path d="M37.8426 20.0739C37.8926 19.9743 39.0918 24.3566 39.0918 24.3566C39.0918 24.3566 36.943 25.9006 36.3934 27.1954C35.8438 28.4902 33.4457 22.4144 33.4457 22.4144C33.4457 22.4144 37.7927 20.1735 37.8426 20.0739Z" fill="#C888BE"/>
<path d="M56.9303 18.2811C57.1302 17.7831 55.6811 22.3151 55.6811 22.3151C55.6811 22.3151 53.1325 20.4226 51.3837 22.3151C49.7848 22.9625 51.0343 17.335 51.0343 17.335C51.0343 17.335 56.7304 18.7791 56.9303 18.2811Z" fill="#C888BE"/>
<path d="M20.0049 29.6857C20.0049 29.6857 13.6093 31.2793 13.2096 27.8928C12.8099 24.5063 21.1042 22.2154 15.1082 22.6138C9.11223 23.0122 9.26213 19.2772 8.61256 17.1855" stroke="black" stroke-width="0.852347"/>
<path d="M16.4072 41.6377C16.4072 41.6377 9.36191 43.331 8.91221 39.7453C8.46251 36.1596 17.6067 33.7691 10.9611 34.2173C4.31557 34.6655 4.5655 30.7313 3.816 28.54" stroke="black" stroke-width="0.852347"/>
<path d="M74.9688 9.91504C74.9688 9.91504 73.9697 16.3395 70.7718 15.2439C67.574 14.1482 70.9215 19.4769 69.0728 20.1741C67.224 20.8713 66.7242 20.8713 66.7242 20.8713" stroke="black" stroke-width="0.852347"/>
<path d="M79.166 16.2402C79.166 16.2402 78.0165 23.0629 74.3689 21.9175C70.7213 20.7721 74.5691 26.3996 72.4205 27.1466C70.2719 27.8937 69.7221 27.8438 69.7221 27.8438" stroke="black" stroke-width="0.852347"/>
<path d="M67.6191 85.6423C67.6191 85.6423 45.7837 81.6084 38.3386 91.718" stroke="black" stroke-width="0.852347"/>
<path d="M68.3672 95.3534C66.1187 94.706 63.7702 94.3076 61.3718 94.1582C60.1726 94.0586 59.0234 94.0586 57.8242 94.0586C56.625 94.1084 55.4258 94.208 54.2766 94.3574C51.9281 94.706 49.5797 95.4032 47.4811 96.4989C46.4318 97.0467 45.4324 97.7439 44.533 98.5407C43.6336 99.3375 42.8841 100.284 42.2845 101.28C43.084 100.433 43.9334 99.6363 44.8828 98.9391C45.8322 98.2419 46.8315 97.6941 47.8808 97.1961C48.9301 96.6981 50.0294 96.3494 51.1287 96.0506C52.2279 95.7518 53.3772 95.5028 54.5264 95.3534C56.8249 95.0048 59.1233 94.9052 61.4718 94.9052C63.6703 94.955 66.0188 95.1044 68.3672 95.3534Z" fill="black"/>
<path d="M70.3672 105.314C68.5184 104.767 66.6197 104.418 64.671 104.219C62.7223 104.019 60.8235 103.97 58.8249 104.119C57.8255 104.219 56.8262 104.368 55.8768 104.767C54.9275 105.165 54.078 105.812 53.4285 106.559C52.7789 107.306 52.2293 108.103 51.7296 108.95C51.2299 109.747 50.7303 110.593 50.2306 111.44C50.8802 110.743 51.4798 109.996 52.1293 109.249C52.7289 108.502 53.3285 107.755 53.9781 107.107C54.6277 106.46 55.3772 105.912 56.2266 105.663C57.076 105.364 57.9754 105.215 58.9248 105.115C59.8742 105.016 60.8235 105.016 61.7729 104.966C62.7223 104.916 63.6716 104.966 64.621 104.966C66.5197 105.016 68.4185 105.165 70.3672 105.314Z" fill="black"/>
<path d="M68.5724 44.1289C66.3738 44.1289 63.6757 46.868 63.6757 49.9059C63.6757 52.9438 65.7244 56.7784 67.9229 56.7784C70.1214 56.7784 73.1191 53.5413 73.1191 50.5532C73.1191 47.5153 70.7709 44.1289 68.5724 44.1289Z" fill="#97401A"/>
<path d="M53.0831 54.0887C49.7716 54.0887 47.0871 50.4097 47.0871 45.8715C47.0871 41.3333 49.7716 37.6543 53.0831 37.6543C56.3946 37.6543 59.0791 41.3333 59.0791 45.8715C59.0791 50.4097 56.3946 54.0887 53.0831 54.0887Z" fill="#97401A"/>
<path d="M51.3342 51.101C49.5405 51.101 48.0864 49.3173 48.0864 47.1169C48.0864 44.9166 49.5405 43.1328 51.3342 43.1328C53.1279 43.1328 54.582 44.9166 54.582 47.1169C54.582 49.3173 53.1279 51.101 51.3342 51.101Z" fill="#040211"/>
<path d="M67.0743 54.0883C65.4185 54.0883 64.0763 52.3046 64.0763 50.1042C64.0763 47.9039 65.4185 46.1201 67.0743 46.1201C68.73 46.1201 70.0723 47.9039 70.0723 50.1042C70.0723 52.3046 68.73 54.0883 67.0743 54.0883Z" fill="#040211"/>
<path d="M78.6158 36.5088C78.6158 36.5088 77.5166 39.1482 76.4673 38.8991C75.418 38.6501 75.2181 39.0983 75.2181 39.0983L76.4673 43.0325C76.4673 43.0325 79.1656 42.3354 79.0657 40.8912C78.9657 39.447 78.6158 36.5088 78.6158 36.5088Z" fill="#090807"/>
<path d="M63.876 33.8691C63.876 33.8691 63.5263 39.6461 63.4763 45.8713C63.4763 50.2538 64.276 55.0347 62.4272 57.6244" stroke="black" stroke-width="0.852347"/>
<path d="M58.03 51.0512C56.6502 51.0512 55.5316 49.2675 55.5316 47.0671C55.5316 44.8667 56.6502 43.083 58.03 43.083C59.4098 43.083 60.5283 44.8667 60.5283 47.0671C60.5283 49.2675 59.4098 51.0512 58.03 51.0512Z" fill="white"/>
<path d="M73.0202 55.0346C71.6404 55.0346 70.5219 53.2509 70.5219 51.0505C70.5219 48.8501 71.6404 47.0664 73.0202 47.0664C74.4 47.0664 75.5186 48.8501 75.5186 51.0505C75.5186 53.2509 74.4 55.0346 73.0202 55.0346Z" fill="white"/>
<path d="M47.6367 36.5087C47.6367 36.5087 45.1887 35.0643 44.789 33.8192C44.3893 32.5742 44.1893 34.9648 44.1893 34.9648L44.3889 35.413C44.3889 35.413 42.5901 32.923 42.3902 34.2178C42.1903 35.5126 43.7394 37.1062 43.7394 37.1062C43.7394 37.1062 41.691 33.9688 41.4411 34.9648C41.1913 35.9608 43.4898 38.1023 44.1893 38.5007C44.8888 38.8991 46.8872 39.9449 46.8872 39.9449L47.6367 36.5087Z" fill="black"/>
<path d="M43.3991 87.9371C43.3991 87.9371 40.5753 84.484 42.4853 81.9501" stroke="black" stroke-width="0.852347"/>
<path d="M55.9046 82.1476C55.9046 82.1476 60.8516 84.2392 60.7017 89.817C60.2021 94.2991 57.8533 101.371 53.6561 102.267C50.858 102.267 48.4098 100.923 47.8602 97.835C47.6104 95.6936 47.9099 91.0621 45.3116 88.8708C46.211 87.327 52.657 81.5002 54.6057 82.1476C56.1547 82.048 55.9046 82.1476 55.9046 82.1476Z" fill="url(#paint4_linear_177_2232)" stroke="black" stroke-width="0.852347"/>
<path d="M58.7015 76.6206C58.5016 77.0688 55.7135 80.0346 55.7135 81.1801C54.4643 81.6781 52.4557 82.2979 52.4557 82.2979L49.1576 84.8378L45.2602 88.8219C45.2602 88.8219 35.9766 86.4092 35.4769 86.6582C30.4802 84.6662 29.2311 81.7775 30.2304 79.437C33.0112 72.9243 48.9679 82.9231 48.9679 82.9231C51.2664 83.7199 47.7588 82.8459 48.4583 79.9574C49.4576 77.318 55.0038 69.0508 58.2516 74.5787C58.6014 75.525 58.9014 76.2222 58.7015 76.6206Z" fill="#F97D1B" stroke="black" stroke-width="0.852347"/>
<path opacity="0.28" d="M35.2542 34.6623C35.2542 34.6623 41.2001 34.2638 37.5525 42.2818C33.9049 50.2998 31.4567 50.5986 30.1575 50.4492C28.8584 50.2998 32.7058 55.3795 30.1575 56.6743C27.6092 57.9691 25.3608 56.9731 25.5107 53.9352C25.6606 50.8974 28.009 50.051 26.9097 47.4115C25.8104 44.772 29.0583 36.1564 31.4067 35.2102C33.7551 34.264 35.2542 34.6623 35.2542 34.6623Z" fill="#F8B53A"/>
<path d="M35.2539 13.6967C35.2539 13.6967 30.9068 10.4596 28.2586 10.7584C25.6103 11.0572 24.5111 13.099 23.5117 9.66271C22.5124 6.22643 20.8631 5.77832 20.8631 5.77832" stroke="black" stroke-width="0.852347"/>
<path d="M27.5098 15.937C27.5098 15.937 23.3123 12.4012 20.714 12.7498C18.1157 13.0984 17.0663 15.2897 16.117 11.5546C15.1676 7.8195 13.5688 7.37109 13.5688 7.37109" stroke="black" stroke-width="0.852347"/>
<path d="M72.6289 5.08105C72.6289 5.08105 68.0819 7.07305 67.3824 9.26431C66.6829 11.4556 68.1817 13.1986 64.684 12.5014C61.1863 11.8042 60.187 12.8997 60.187 12.8997" stroke="black" stroke-width="0.852347"/>
<path d="M65.6338 1.09668C65.6338 1.09668 61.0868 3.08868 60.3873 5.27993C59.6877 7.47118 61.1866 9.21422 57.6889 8.51701C54.1912 7.81979 53.1919 8.91532 53.1919 8.91532" stroke="black" stroke-width="0.852347"/>
<path d="M12.5195 34.8623C12.5195 34.8623 7.87233 36.2567 6.47326 35.3105" stroke="black" stroke-width="0.852347"/>
<path d="M16.416 23.4072C16.416 23.4072 11.7688 24.8016 10.3697 23.8554" stroke="black" stroke-width="0.852347"/>
<path d="M75.377 15.1406C75.377 15.1406 70.7298 16.535 69.3307 15.5888" stroke="black" stroke-width="0.852347"/>
<path d="M67.1328 5.03119C67.1328 5.03119 63.7349 3.63661 63.9347 2.14258" stroke="black" stroke-width="0.852347"/>
<path d="M76.127 25.4501C76.127 25.4501 72.729 24.0556 72.9289 22.5615" stroke="black" stroke-width="0.852347"/>
<path d="M82.623 28.4365C82.623 28.4365 79.2251 27.0419 79.425 25.5479" stroke="black" stroke-width="0.852347"/>
<path d="M80.873 34.2643C80.873 34.2643 77.4751 32.87 77.675 31.376" stroke="black" stroke-width="0.852347"/>
<path d="M70.6309 27.3415C70.6309 27.3415 67.2329 25.9472 67.4328 24.4531" stroke="black" stroke-width="0.852347"/>
<path d="M15.8672 11.2559C15.8672 11.2559 11.2205 12.6502 9.82141 11.704" stroke="black" stroke-width="0.852347"/>
<path d="M15.5664 42.332C15.5664 42.332 10.9197 43.7264 9.52062 42.7802" stroke="black" stroke-width="0.852347"/>
<path d="M68.3818 68.3275C68.3818 68.3275 64.0844 70.1202 60.5867 69.4728C59.0877 69.5226 58.1884 69.2239 56.9393 69.0745C55.3403 68.9251 53.5914 68.6263 50.5934 66.3354C47.9451 64.8912 45.5467 63.0983 43.3482 61.0066L41.9995 59.3633" stroke="black" stroke-width="0.426174"/>
<defs>
<linearGradient id="paint0_linear_177_2232" x1="82.2529" y1="90.4548" x2="72.083" y2="93.4054" gradientUnits="userSpaceOnUse">
<stop stop-color="#F37422"/>
<stop offset="1" stop-color="#E43922"/>
</linearGradient>
<linearGradient id="paint1_linear_177_2232" x1="45.8433" y1="76.3969" x2="29.575" y2="78.5413" gradientUnits="userSpaceOnUse">
<stop stop-color="#F38620"/>
<stop offset="1" stop-color="#E5412C"/>
</linearGradient>
<linearGradient id="paint2_linear_177_2232" x1="57.8726" y1="19.2852" x2="48.1518" y2="20.5832" gradientUnits="userSpaceOnUse">
<stop stop-color="#C87AC1"/>
<stop offset="0.446" stop-color="#C278BA"/>
<stop offset="1" stop-color="#BB75B2"/>
</linearGradient>
<linearGradient id="paint3_linear_177_2232" x1="38.9586" y1="22.1828" x2="30.9051" y2="27.6378" gradientUnits="userSpaceOnUse">
<stop stop-color="#C87AC1"/>
<stop offset="0.262" stop-color="#EAB7DC"/>
<stop offset="1" stop-color="#BB75B2"/>
</linearGradient>
<linearGradient id="paint4_linear_177_2232" x1="55.4443" y1="91.3727" x2="45.2744" y2="94.3234" gradientUnits="userSpaceOnUse">
<stop stop-color="#F37422"/>
<stop offset="1" stop-color="#E43922"/>
</linearGradient>
</defs>
</svg>
