<svg width="176" height="249" viewBox="0 0 176 249" fill="none" xmlns="http://www.w3.org/2000/svg">
<g clip-path="url(#clip0_1038_8488)">
<path d="M157.155 98.0332L151.844 98.3153" stroke="black" stroke-width="6"/>
<path d="M75.9414 45.1351C75.9414 45.1351 68.3642 26.3849 61.7412 24.7269C56.7702 23.8979 59.0913 11.3058 48.3203 13.6268C39.3733 15.6148 40.6982 17.4379 40.6982 17.4379C40.6982 17.4379 19.8207 16.6088 15.8447 31.5218C14.8507 41.1318 18.1653 40.607 13.1943 44.349C8.22334 48.091 4.90838 58.862 6.23438 61.849C7.56037 64.836 6.56612 71.2941 4.57812 72.4491C2.59013 73.6041 -1.05515 79.9052 2.58984 83.8822C6.23484 87.8592 5.57213 90.5102 4.57812 90.8412C3.58412 91.1722 3.41737 95.1489 6.23438 95.8119C9.05138 96.4749 10.8753 108.074 13.1943 107.577C15.5133 107.08 21.6453 102.277 19.8223 99.7889C17.9993 97.3009 24.4611 96.9719 25.9521 95.8119C27.4431 94.6519 30.5921 89.3499 32.5801 88.5209C34.5681 87.6919 42.853 73.1108 39.208 66.9798C35.563 60.8488 47.4925 64.163 43.1855 57.37C38.8785 50.577 50.8077 68.8029 51.3047 42.6229C53.2927 34.0069 59.9193 34.6688 62.7373 41.7938C65.5553 48.9188 65.6309 50.5712 65.6309 50.5712L75.9414 45.1351Z" fill="#57B741" stroke="black" stroke-width="2"/>
<path d="M164.433 168.662C164.433 168.662 174.372 172.868 173.991 184.084C172.971 193.133 168.257 207.284 159.845 209.065C154.237 209.065 149.393 206.389 148.244 200.143C147.734 195.81 148.372 186.505 143.145 182.171C144.93 179.112 157.802 167.386 161.753 168.661C164.942 168.407 164.433 168.662 164.433 168.662Z" fill="url(#paint0_linear_1038_8488)" stroke="black" stroke-width="2"/>
<path d="M170.04 157.574C169.62 158.448 162.141 163.82 162.141 166.114C162.014 168.408 157.553 169.046 157.553 169.046L150.924 174.146L143.15 182.176C143.15 182.176 135.25 176.696 134.228 177.205C133.206 177.714 133.589 166.116 133.589 166.116L151.982 172.516C156.582 174.116 148.061 170.261 149.532 164.378C151.492 159.084 162.662 142.492 169.16 153.573C169.795 155.315 170.46 156.701 170.04 157.574Z" fill="#F97D1B" stroke="black" stroke-width="2"/>
<path d="M146.962 123.167C146.962 123.167 152.57 130.558 146.197 136.421C139.824 142.284 129.498 148.276 130.01 151.845C130.903 155.413 133.709 163.698 133.577 165.992C133.445 168.286 135.106 175.933 133.322 177.336C133.067 179.121 136.638 192.12 135.108 195.816C134.853 198.238 144.03 207.161 139.059 217.358C140.459 221.946 143.393 241.83 139.059 245.271C135.872 248.203 114.077 253.301 99.9288 229.594C98.6548 226.025 85.0154 223.476 83.4864 208.181C84.3794 206.907 72.3979 201.553 75.9659 188.681C74.1819 187.024 69.4665 181.033 70.3585 179.38C71.2505 177.727 91.0067 174.92 74.0587 164.468C69.3427 163.831 63.0977 165.997 63.0977 165.997C63.0977 165.997 61.5677 148.408 54.5577 141.27C52.2637 136.937 49.3307 136.17 46.0177 116.67C46.2727 103.16 42.0661 89.2697 53.9171 77.2857C62.9671 67.9857 63.7315 67.0855 63.7315 67.0855C63.7315 67.0855 86.801 43.7617 110.253 50.5167C125.038 55.3597 134.087 63.5167 135.489 67.7237C136.382 70.7827 149.765 75.1166 150.402 88.4996C151.931 99.5886 151.677 116.541 149.128 119.6C146.579 122.659 146.962 123.167 146.962 123.167Z" fill="url(#paint1_linear_1038_8488)" stroke="black" stroke-width="2"/>
<path d="M149.763 85.4406C144.888 73.6186 138.293 64.1537 127.077 73.5857C126.44 76.7727 117.517 53.703 110.125 57.654C104.899 59.693 96.6152 68.8699 94.9582 77.4099C93.3012 86.0769 87.3586 107.231 93.9826 118.224C100.607 129.217 106.045 136.805 117.007 130.05C123.763 122.15 124.655 119.981 124.655 119.981C124.655 119.981 125.675 134.893 133.322 132.472C134.622 131.765 137.209 131.572 139.055 130.051C144.15 125.864 149.192 118.23 149.761 116.16C151.871 108.492 153.508 94.5196 149.763 85.4406Z" fill="white" stroke="black" stroke-width="2"/>
<path d="M135.87 142.54C135.87 142.54 118.408 147.766 105.28 141.14C97.561 136.897 90.3364 131.81 83.7393 125.973C83.7393 125.973 81.7004 121.894 79.0234 125.973C76.3464 130.052 71.1237 132.983 80.6807 128.267C86.4157 130.307 91.0035 147.641 94.0635 150.067C95.8485 153.767 112.798 182.186 125.163 165.744C128.732 154.783 124.017 154.655 128.987 149.43C133.448 145.218 135.87 142.54 135.87 142.54Z" fill="white" stroke="black"/>
<path d="M123.507 40.8519C123.729 40.2639 117.061 20.7522 112.453 29.3812C107.553 37.0282 109.022 39.0878 109.022 39.0878C109.219 40.1784 109.344 41.281 109.398 42.388C109.519 42.349 98.5197 44.0089 99.5977 35.9769C100.676 27.9449 108.435 21.3377 108.435 17.3177C108.435 13.2977 112.455 6.63114 117.847 7.90514C123.436 8.88514 131.574 6.43388 134.809 8.39488C138.044 10.3559 148.73 16.8272 145.691 20.2582C142.652 23.6892 151.771 26.5331 151.771 26.5331C151.771 26.5331 159.026 31.6331 157.555 36.5331C156.183 40.9451 160.987 48.4938 164.32 48.6908C167.261 49.5728 165.987 63.5908 163.536 66.0448C161.085 68.4988 161.675 76.4368 160.105 75.7508C158.535 75.0648 152.456 67.32 149.71 67.516C146.965 67.616 144.71 66.5359 142.161 64.4759C139.612 62.4159 132.062 55.6518 132.848 51.7298C133.634 47.8078 132.259 45.8467 130.788 46.6297C129.317 47.4127 123.507 40.8519 123.507 40.8519Z" fill="#50B43F" stroke="black" stroke-width="2"/>
<path d="M112.929 41.3862C113.322 40.2092 121.362 32.0719 121.459 42.5619C120.576 46.6799 117.929 47.9551 119.792 50.7001C121.655 53.4451 120.38 58.9359 112.929 52.8569C109.007 49.2289 103.811 47.464 102.046 49.621C100.281 51.68 92.9275 53.837 92.1455 49.621C91.3635 45.405 96.1671 42.0722 90.5781 38.7382C89.8911 34.8162 97.4408 31.4821 99.0098 36.6791C100.579 41.8761 112.536 42.5622 112.929 41.3862Z" fill="url(#paint2_linear_1038_8488)" stroke="black"/>
<path d="M75.5741 44.81C75.5741 44.81 79.9863 37.0703 83.0253 43.0513C85.5743 48.7383 81.6518 52.9512 84.2988 53.3462C86.9458 53.7412 83.3189 57.4641 78.4159 55.3071C73.5129 53.1501 70.3764 67.3662 68.0234 64.0332C65.6704 60.7002 62.3362 77.3672 58.9052 67.3662C55.4742 57.3652 57.5331 52.166 52.8271 51.875C48.1211 51.584 59.4942 47.267 62.2392 49.914C64.9842 52.561 75.5741 44.81 75.5741 44.81Z" fill="url(#paint3_linear_1038_8488)" stroke="black"/>
<path d="M74.5938 45.7963C74.6937 45.5963 77.1426 54.4247 77.1426 54.4247C77.1426 54.4247 72.829 57.5617 71.75 60.1117C70.671 62.6617 65.8672 50.5033 65.8672 50.5033C65.8672 50.5033 74.4957 45.9923 74.5938 45.7963Z" fill="#C888BE" stroke="black" stroke-opacity="0.29"/>
<path d="M112.831 42.2681C113.223 41.2881 110.282 50.4062 110.282 50.4062C110.282 50.4062 105.182 46.5823 101.654 50.4062C98.4185 51.6803 100.967 40.4062 100.967 40.4062C100.967 40.4062 112.439 43.2481 112.831 42.2681Z" fill="#C888BE" stroke="black" stroke-opacity="0.29"/>
<path d="M38.9541 65.1577C38.9541 65.1577 26.1045 68.4013 25.3145 61.5713C24.5245 54.7413 41.1263 50.1314 29.0703 50.9854C17.0143 51.8394 17.4094 44.3266 16.0254 40.0586" stroke="black" stroke-width="2"/>
<path d="M31.7598 89.1143C31.7598 89.1143 17.6385 92.5073 16.7715 85.3633C15.9045 78.2193 34.1494 73.3961 20.8984 74.2891C7.64744 75.1821 8.08252 67.3244 6.56152 62.8594" stroke="black" stroke-width="2"/>
<path d="M148.889 25.4902C148.889 25.4902 146.865 38.4053 140.451 36.1953C134.037 33.9853 140.787 44.6953 137.076 46.0503C133.365 47.4053 132.352 47.4092 132.352 47.4092" stroke="black" stroke-width="2"/>
<path d="M157.344 38.1719C157.344 38.1719 155.033 51.8719 147.712 49.5269C140.391 47.1819 148.096 58.539 143.858 59.98C139.62 61.421 138.466 61.4209 138.466 61.4209" stroke="black" stroke-width="2"/>
<g filter="url(#filter0_d_1038_8488)">
<path d="M134.158 177.494C134.158 177.494 90.4811 169.394 75.5801 189.648" stroke="black" stroke-width="2"/>
</g>
<g filter="url(#filter1_d_1038_8488)">
<path d="M135.666 197.008C128.748 195.663 121.696 195.132 114.654 195.426C103.754 195.897 90.7452 198.911 83.3242 208.999" stroke="black" stroke-width="2"/>
</g>
<g filter="url(#filter2_d_1038_8488)">
<path d="M139.666 217.008C132.748 215.663 125.696 215.132 118.654 215.426C107.754 215.897 106.885 219.126 99.4648 229.212" stroke="black" stroke-width="2"/>
</g>
<path d="M136.112 94.1406C131.694 94.1406 126.272 99.6856 126.272 105.762C126.272 111.838 130.384 119.586 134.802 119.586C139.22 119.586 145.195 113.112 145.195 107.041C145.195 100.97 140.53 94.1406 136.112 94.1406Z" fill="#97401A"/>
<path d="M105.112 114.141C98.4849 114.141 93.1123 106.753 93.1123 97.6406C93.1123 88.5279 98.4849 81.1406 105.112 81.1406C111.74 81.1406 117.112 88.5279 117.112 97.6406C117.112 106.753 111.74 114.141 105.112 114.141Z" fill="#97401A"/>
<path d="M101.612 108.141C98.0225 108.141 95.1123 104.559 95.1123 100.141C95.1123 95.7223 98.0225 92.1406 101.612 92.1406C105.202 92.1406 108.112 95.7223 108.112 100.141C108.112 104.559 105.202 108.141 101.612 108.141Z" fill="#040211"/>
<path d="M133.112 114.141C129.799 114.141 127.112 110.559 127.112 106.141C127.112 101.722 129.799 98.1406 133.112 98.1406C136.426 98.1406 139.112 101.722 139.112 106.141C139.112 110.559 136.426 114.141 133.112 114.141Z" fill="#040211"/>
<path d="M156.174 78.8477C156.174 78.8477 154.02 84.1478 151.865 83.6528C149.71 83.1578 149.404 84.0928 149.404 84.0928L151.865 92.0117C151.865 92.0117 157.248 90.6544 157.021 87.7114C156.794 84.7684 156.174 78.8477 156.174 78.8477Z" fill="#090807"/>
<path d="M126.693 73.5859C126.693 73.5859 125.986 85.1732 125.923 97.6782C125.88 106.507 127.532 116.088 123.834 121.318" stroke="black" stroke-width="2"/>
<path d="M115.03 108.035C112.269 108.035 110.03 104.453 110.03 100.035C110.03 95.6169 112.269 92.0352 115.03 92.0352C117.792 92.0352 120.03 95.6169 120.03 100.035C120.03 104.453 117.792 108.035 115.03 108.035Z" fill="white"/>
<path d="M145.03 116.035C142.269 116.035 140.03 112.453 140.03 108.035C140.03 103.617 142.269 100.035 145.03 100.035C147.792 100.035 150.03 103.617 150.03 108.035C150.03 112.453 147.792 116.035 145.03 116.035Z" fill="white"/>
<path d="M94.2119 78.7996C94.2119 78.7996 89.2751 75.8512 88.5381 73.4192C87.8011 70.9872 87.3594 75.7044 87.3594 75.7044L87.7275 76.5882C87.7275 76.5882 84.116 71.5775 83.748 74.1565C83.38 76.7355 86.4014 79.9773 86.4014 79.9773C86.4014 79.9773 82.348 73.7134 81.832 75.7034C81.316 77.6934 85.9604 82.0406 87.3594 82.7776C88.7584 83.5146 92.7383 85.7254 92.7383 85.7254L94.2119 78.7996Z" fill="black"/>
<path opacity="0.28" d="M69.425 75.1098C69.425 75.1098 81.2788 74.3447 74.0138 90.4047C66.7488 106.465 61.7777 107.105 59.2287 106.847C56.6797 106.589 64.3287 116.788 59.2287 119.337C54.1287 121.886 49.6689 119.974 49.9289 113.856C50.1889 107.738 54.9007 106.082 52.7287 100.728C50.5567 95.3745 57.0625 78.1678 61.7785 76.2568C66.4945 74.3458 69.425 75.1098 69.425 75.1098Z" fill="#F8B53A"/>
<path d="M69.3965 33.0762C69.3965 33.0762 60.6915 26.5533 55.3965 27.1763C50.1015 27.7993 47.8966 31.896 45.9326 25.002C43.9686 18.108 40.6523 17.2383 40.6523 17.2383" stroke="black" stroke-width="2"/>
<path d="M53.915 37.5117C53.915 37.5117 45.4903 30.428 40.3623 31.103C35.2343 31.778 33.1051 36.2277 31.2021 28.7407C29.2991 21.2537 26.0908 20.3086 26.0908 20.3086" stroke="black" stroke-width="2"/>
<path d="M144.244 15.7538C144.244 15.7538 135.113 19.7619 133.753 24.1615C132.393 28.561 135.342 32.0229 128.323 30.618C121.304 29.213 119.303 31.4267 119.303 31.4267" stroke="black" stroke-width="2"/>
<path d="M130.244 7.75384C130.244 7.75384 121.113 11.7619 119.753 16.1615C118.393 20.561 121.342 24.0229 114.323 22.618C107.304 21.213 105.303 23.4267 105.303 23.4267" stroke="black" stroke-width="2"/>
<path d="M23.9668 75.4863C23.9668 75.4863 14.6258 78.271 11.8418 76.356" stroke="black" stroke-width="2"/>
<path d="M31.7461 52.4863C31.7461 52.4863 22.4051 55.271 19.6211 53.356" stroke="black" stroke-width="2"/>
<path d="M149.746 35.9727C149.746 35.9727 140.405 38.7573 137.621 36.8423" stroke="black" stroke-width="2"/>
<path d="M133.276 15.5898C133.276 15.5898 126.48 12.7858 126.901 9.8226" stroke="black" stroke-width="2"/>
<path d="M151.219 56.6523C151.219 56.6523 144.422 53.8483 144.843 50.8851" stroke="black" stroke-width="2"/>
<path d="M164.219 62.6523C164.219 62.6523 157.422 59.8483 157.843 56.8851" stroke="black" stroke-width="2"/>
<path d="M160.73 74.291C160.73 74.291 153.934 71.487 154.355 68.5238" stroke="black" stroke-width="2"/>
<path d="M140.252 60.4688C140.252 60.4688 133.455 57.6647 133.877 54.7015" stroke="black" stroke-width="2"/>
<path d="M30.6445 28.1445C30.6445 28.1445 21.3035 30.9292 18.5195 29.0142" stroke="black" stroke-width="2"/>
<path d="M30.0293 90.4863C30.0293 90.4863 20.6883 93.271 17.9043 91.356" stroke="black" stroke-width="2"/>
<path d="M135.685 142.728C135.685 142.728 127.04 146.298 120.066 145.053C117.096 145.153 115.216 144.522 112.786 144.286C109.607 143.986 106.077 143.386 100.045 138.826C94.7837 135.887 89.9097 132.304 85.5352 128.159L82.8516 124.859" stroke="black"/>
<g opacity="0.92">
<path d="M111.673 60.377C118.653 60.377 119.582 72.928 120.283 93.5989C120.829 109.684 118.342 122.197 113.632 127.07C112.318 128.429 110.965 129.035 109.243 129.035C100.67 129.035 94.6824 115.778 94.6824 96.7954C94.6824 75.9516 103.652 60.377 111.673 60.377ZM111.673 54.377C98.4178 54.377 88.6824 74.9802 88.6824 96.7954C88.6824 118.611 95.9881 135.035 109.243 135.035C122.498 135.035 127.017 115.135 126.28 93.3955C125.543 71.6563 124.927 54.377 111.673 54.377Z" fill="black"/>
</g>
<g opacity="0.92">
<path d="M135.82 70.9473C143.229 70.9473 151.484 83.1268 151.484 100.604C151.484 118.081 143.229 130.26 135.82 130.26C130.591 130.26 130.352 128.747 130.022 126.65C129.69 124.554 130.504 119.936 131.222 115.861C132.133 110.686 133.166 104.821 133.018 99.3481C132.941 96.4987 132.821 93.7523 132.706 91.1373C132.363 83.2746 131.935 73.4893 133.96 71.3735C134.298 71.0212 135.158 70.9473 135.82 70.9473ZM135.82 64.9473C123.855 64.9473 126.483 79.7109 127.02 99.5107C127.286 109.312 123.126 121.457 124.095 127.586C125.175 134.434 129.778 136.26 135.82 136.26C147.785 136.26 157.484 120.296 157.484 100.604C157.484 80.9112 147.785 64.9473 135.82 64.9473Z" fill="black"/>
</g>
<path d="M127.305 102.908H125.867" stroke="black" stroke-width="4" stroke-linecap="round"/>
<path d="M88.6826 96.8574H45.6318C34.8688 96.8574 44.332 110.526 44.957 110.64" stroke="black" stroke-width="6"/>
<path d="M111.958 173.097C111.958 173.097 121.278 177.141 120.996 187.926C120.054 196.593 115.63 210.267 107.722 212C102.451 212 97.8388 209.4 96.8033 203.43C96.3326 199.289 96.8969 190.334 92.002 186.097C93.6963 183.111 105.84 171.845 109.511 173.097C112.429 172.904 111.958 173.097 111.958 173.097Z" fill="url(#paint4_linear_1038_8488)" stroke="black" stroke-width="2"/>
<path d="M116.88 162.519C116.499 163.381 111.184 169.089 111.184 171.293C108.803 172.252 104.974 173.445 104.974 173.445L98.6872 178.333L91.2582 186C91.2582 186 73.5619 181.357 72.6094 181.836C63.0848 178.002 60.7037 172.443 62.6086 167.939C67.9092 155.405 98.3258 174.648 98.3258 174.648C102.707 176.181 96.0209 174.499 97.3543 168.94C99.2592 163.861 109.831 147.95 116.022 158.589C116.689 160.41 117.261 161.752 116.88 162.519Z" fill="#F97D1B" stroke="black" stroke-width="2"/>
</g>
<defs>
<filter id="filter0_d_1038_8488" x="70.7744" y="174.895" width="67.5654" height="23.3457" filterUnits="userSpaceOnUse" color-interpolation-filters="sRGB">
<feFlood flood-opacity="0" result="BackgroundImageFix"/>
<feColorMatrix in="SourceAlpha" type="matrix" values="0 0 0 0 0 0 0 0 0 0 0 0 0 0 0 0 0 0 127 0" result="hardAlpha"/>
<feOffset dy="4"/>
<feGaussianBlur stdDeviation="2"/>
<feColorMatrix type="matrix" values="0 0 0 0 0 0 0 0 0 0 0 0 0 0 0 0 0 0 0.161 0"/>
<feBlend mode="normal" in2="BackgroundImageFix" result="effect1_dropShadow_1038_8488"/>
<feBlend mode="normal" in="SourceGraphic" in2="effect1_dropShadow_1038_8488" result="shape"/>
</filter>
<filter id="filter1_d_1038_8488" x="78.5186" y="194.348" width="61.3379" height="23.2441" filterUnits="userSpaceOnUse" color-interpolation-filters="sRGB">
<feFlood flood-opacity="0" result="BackgroundImageFix"/>
<feColorMatrix in="SourceAlpha" type="matrix" values="0 0 0 0 0 0 0 0 0 0 0 0 0 0 0 0 0 0 127 0" result="hardAlpha"/>
<feOffset dy="4"/>
<feGaussianBlur stdDeviation="2"/>
<feColorMatrix type="matrix" values="0 0 0 0 0 0 0 0 0 0 0 0 0 0 0 0 0 0 0.161 0"/>
<feBlend mode="normal" in2="BackgroundImageFix" result="effect1_dropShadow_1038_8488"/>
<feBlend mode="normal" in="SourceGraphic" in2="effect1_dropShadow_1038_8488" result="shape"/>
</filter>
<filter id="filter2_d_1038_8488" x="94.6592" y="214.348" width="49.1973" height="23.457" filterUnits="userSpaceOnUse" color-interpolation-filters="sRGB">
<feFlood flood-opacity="0" result="BackgroundImageFix"/>
<feColorMatrix in="SourceAlpha" type="matrix" values="0 0 0 0 0 0 0 0 0 0 0 0 0 0 0 0 0 0 127 0" result="hardAlpha"/>
<feOffset dy="4"/>
<feGaussianBlur stdDeviation="2"/>
<feColorMatrix type="matrix" values="0 0 0 0 0 0 0 0 0 0 0 0 0 0 0 0 0 0 0.161 0"/>
<feBlend mode="normal" in2="BackgroundImageFix" result="effect1_dropShadow_1038_8488"/>
<feBlend mode="normal" in="SourceGraphic" in2="effect1_dropShadow_1038_8488" result="shape"/>
</filter>
<linearGradient id="paint0_linear_1038_8488" x1="162.4" y1="182.608" x2="142.068" y2="188.489" gradientUnits="userSpaceOnUse">
<stop stop-color="#F37422"/>
<stop offset="1" stop-color="#E43922"/>
</linearGradient>
<linearGradient id="paint1_linear_1038_8488" x1="88.0482" y1="141.026" x2="55.4761" y2="145.322" gradientUnits="userSpaceOnUse">
<stop stop-color="#F38620"/>
<stop offset="1" stop-color="#E5412C"/>
</linearGradient>
<linearGradient id="paint2_linear_1038_8488" x1="114.903" y1="47.0569" x2="95.4405" y2="49.6461" gradientUnits="userSpaceOnUse">
<stop stop-color="#C87AC1"/>
<stop offset="0.446" stop-color="#C278BA"/>
<stop offset="1" stop-color="#BB75B2"/>
</linearGradient>
<linearGradient id="paint3_linear_1038_8488" x1="78.3583" y1="52.1451" x2="62.2311" y2="63.0473" gradientUnits="userSpaceOnUse">
<stop stop-color="#C87AC1"/>
<stop offset="0.262" stop-color="#EAB7DC"/>
<stop offset="1" stop-color="#BB75B2"/>
</linearGradient>
<linearGradient id="paint4_linear_1038_8488" x1="111.091" y1="190.934" x2="91.8561" y2="196.372" gradientUnits="userSpaceOnUse">
<stop stop-color="#F37422"/>
<stop offset="1" stop-color="#E43922"/>
</linearGradient>
<clipPath id="clip0_1038_8488">
<rect width="175.002" height="248.863" fill="white" transform="matrix(-1 0 0 1 175.002 0)"/>
</clipPath>
</defs>
</svg>
