<svg width="88" height="122" viewBox="0 0 88 122" fill="none" xmlns="http://www.w3.org/2000/svg">
<path d="M50.0205 19.7877C50.0205 19.7877 53.8181 10.394 57.1159 9.59449C59.6142 9.19475 58.4647 2.89889 63.8111 4.04813C68.2582 5.04746 67.6089 5.94677 67.6089 5.94677C67.6089 5.94677 78.0517 5.54708 80.0503 12.9921C80.55 17.7889 78.9012 17.5392 81.3995 19.388C83.8979 21.2368 85.5468 26.6332 84.8972 28.1322C84.2476 29.6312 84.7474 32.8289 85.7467 33.4285C86.7461 34.0281 88.5449 37.1762 86.7461 39.1249C84.9473 41.0736 85.2471 42.4227 85.7467 42.6226C86.2464 42.8224 86.3462 44.7711 84.8972 45.1209C83.4482 45.4707 82.5987 51.2667 81.3995 51.0169C80.2003 50.767 77.1526 48.3687 78.1019 47.1196C79.0513 45.8704 75.8032 45.7205 75.0537 45.1209C74.3042 44.5213 72.7554 41.8729 71.756 41.4732C70.7567 41.0734 66.6092 33.7783 68.4579 30.7303C70.3067 27.6824 64.3107 29.3312 66.4593 25.9335C68.6078 22.5357 62.662 31.6298 62.4122 18.5885C61.4128 14.2914 58.1148 14.591 56.7158 18.1886C55.3167 21.7862 55.267 22.5858 55.267 22.5858L50.0205 19.7877Z" fill="#57B741" stroke="black" stroke-width="0.852347"/>
<path d="M5.80044 81.4974C5.80044 81.4974 0.853439 83.596 1.00334 89.1923C1.50301 93.6893 3.85174 100.785 8.04894 101.684C10.8471 101.684 13.2953 100.335 13.8449 97.237C14.0947 95.0884 13.7952 90.4415 16.3935 88.2429C15.4941 86.694 9.04808 80.8479 7.09938 81.4974C5.55041 81.3975 5.80044 81.4974 5.80044 81.4974Z" fill="url(#paint0_linear_859_5529)" stroke="black" stroke-width="0.852347"/>
<path d="M3.00163 75.951C3.2015 76.4007 6.9492 79.0489 6.9492 80.1982C6.99917 81.3474 9.24747 81.6472 9.24747 81.6472L12.5456 84.1955L16.4429 88.1929C16.4429 88.1929 20.3904 85.4447 20.8901 85.6945C21.3898 85.9444 21.1897 80.1482 21.1897 80.1482L11.9956 83.3462C9.69718 84.1457 13.9443 82.197 13.2448 79.2989C12.2455 76.6506 6.69937 68.356 3.45153 73.9023C3.10176 74.8517 2.80176 75.5513 3.00163 75.951Z" fill="#F97D1B" stroke="black" stroke-width="0.852347"/>
<path d="M14.5445 58.7617C14.5445 58.7617 11.7462 62.4592 14.9441 65.4072C18.142 68.3553 23.2887 71.3535 23.0388 73.1023C22.5891 74.9011 21.1898 79.0482 21.2397 80.1474C21.2897 81.2467 20.4906 85.0943 21.39 85.7938C21.5399 86.6932 19.7407 93.1889 20.4902 95.0377C20.6401 96.2369 16.0432 100.684 18.4916 105.781C17.792 108.079 16.343 118.022 18.4916 119.721C20.0905 121.17 30.9835 123.718 38.0289 111.876C38.6784 110.078 45.4736 108.828 46.2231 101.183C45.7734 100.534 51.7694 97.8857 49.9706 91.44C50.87 90.5905 53.2187 87.6426 52.769 86.7931C52.3193 85.9437 42.4758 84.5447 50.9202 79.3481C53.2686 79.0483 56.4165 80.0976 56.4165 80.0976C56.4165 80.0976 57.166 71.3034 60.6637 67.7558C61.8129 65.6072 63.262 65.2074 64.9109 55.4639C64.761 48.7184 66.9093 41.7731 60.9633 35.777C56.4663 31.1301 56.0667 30.6803 56.0667 30.6803C56.0667 30.6803 44.5243 19.0383 32.8321 22.386C25.437 24.7845 20.9399 28.8816 20.2404 30.9802C19.7907 32.5292 13.0954 34.6779 12.7956 41.3734C12.0461 46.9197 12.146 55.3639 13.4451 56.9129C14.7442 58.4618 14.5445 58.7617 14.5445 58.7617Z" fill="url(#paint1_linear_859_5529)" stroke="black" stroke-width="0.852347"/>
<path d="M13.0947 39.9248C15.5431 34.0287 18.841 29.2819 24.4373 33.9788C24.7371 35.5777 29.2341 24.0355 32.9316 26.0341C35.5299 27.0335 39.6772 31.6303 40.5267 35.9275C41.3761 40.2746 44.3242 50.8177 41.0264 56.314C37.7285 61.8104 34.9804 65.6078 29.534 62.21C26.1363 58.2626 25.7362 57.1633 25.7362 57.1633C25.7362 57.1633 25.237 64.6084 21.3895 63.4092C20.7399 63.0594 19.4407 62.9595 18.5413 62.21C15.993 60.1114 13.4946 56.314 13.1948 55.2647C12.0455 51.4672 11.246 44.4718 13.0947 39.9248Z" fill="white" stroke="black" stroke-width="0.852347"/>
<path d="M20.041 68.455C20.041 68.455 28.785 71.0534 35.3306 67.7555C39.1781 65.6569 42.7757 63.1085 46.0735 60.1605C46.0735 60.1605 47.0729 58.1119 48.422 60.1605C49.7711 62.2091 52.3693 63.6583 47.5725 61.3099C44.7244 62.3092 42.4262 71.0033 40.8772 72.2025C39.9778 74.0513 31.5332 88.242 25.3373 80.0474C23.5385 74.5511 25.887 74.501 23.4387 71.9027C21.2901 69.8041 20.041 68.455 20.041 68.455Z" fill="white" stroke="black" stroke-width="0.426174"/>
<path d="M26.2368 17.6395C26.1369 17.3397 29.435 7.59618 31.7834 11.8933C34.2318 15.6908 33.482 16.74 33.482 16.74C33.3821 17.2896 33.3324 17.8394 33.2824 18.389C33.2325 18.389 38.7287 19.1883 38.1791 15.1909C37.6295 11.1936 33.7821 7.89593 33.7821 5.8473C33.7821 3.79866 31.7833 0.500904 29.085 1.15047C26.2869 1.65014 22.2396 0.40097 20.5907 1.40031C18.9418 2.39964 13.6456 5.59746 15.1446 7.3463C16.6436 9.09514 12.0964 10.4941 12.0964 10.4941C12.0964 10.4941 8.44888 13.0424 9.19838 15.4908C9.89791 17.6893 7.49961 21.4869 5.80074 21.5868C4.3517 22.0365 4.9512 29.0318 6.20037 30.281C7.44954 31.5302 7.14994 35.4776 7.89944 35.1279C8.64894 34.7781 11.6966 30.9306 13.0957 31.0305C14.4448 31.0805 15.594 30.5308 16.8432 29.5315C18.0924 28.5322 21.8897 25.1343 21.49 23.1856C21.0903 21.2369 21.7901 20.2378 22.5396 20.6375C23.2891 21.0372 26.2368 17.6395 26.2368 17.6395Z" fill="#50B43F" stroke="black" stroke-width="0.852347"/>
<path d="M31.5333 17.8898C31.3334 17.2902 27.3361 13.2427 27.2861 18.4892C27.7358 20.5379 29.0351 21.1875 28.1357 22.5366C27.2363 23.8857 27.8356 26.634 31.5831 23.636C33.5318 21.8371 36.1302 20.9376 37.0296 22.0369C37.9291 23.0862 41.5763 24.1355 41.9761 22.0369C42.3758 19.9383 39.9777 18.2895 42.7758 16.5906C43.1256 14.6419 39.3279 12.943 38.5784 15.5412C37.8289 18.1395 31.7332 18.4894 31.5333 17.8898Z" fill="url(#paint2_linear_859_5529)" stroke="black" stroke-width="0.426174"/>
<path d="M50.1704 19.6383C50.1704 19.6383 47.9719 15.7907 46.4229 18.7387C45.1738 21.5868 47.1226 23.6856 45.7735 23.8854C44.4244 24.0853 46.2728 25.9341 48.7212 24.8848C51.1696 23.8355 52.7187 30.9306 53.9179 29.2317C55.1171 27.5329 56.7659 35.8775 58.4647 30.8808C60.1636 25.8841 59.1646 23.2858 61.513 23.1359C63.8614 22.986 58.165 20.8375 56.8159 22.1366C55.4668 23.4357 50.1704 19.6383 50.1704 19.6383Z" fill="url(#paint3_linear_859_5529)" stroke="black" stroke-width="0.426174"/>
<path d="M50.671 20.1384C50.6211 20.0385 49.4219 24.4353 49.4219 24.4353C49.4219 24.4353 51.5706 25.9844 52.1203 27.2835C52.6699 28.5827 55.068 22.4867 55.068 22.4867C55.068 22.4867 50.721 20.2383 50.671 20.1384Z" fill="#C888BE"/>
<path d="M31.5834 18.3399C31.3835 17.8403 32.8325 22.3873 32.8325 22.3873C32.8325 22.3873 35.3811 20.4886 37.13 22.3873C38.7289 23.0369 37.4794 17.3906 37.4794 17.3906C37.4794 17.3906 31.7832 18.8396 31.5834 18.3399Z" fill="#C888BE"/>
<path d="M68.5088 29.78C68.5088 29.78 74.9043 31.3789 75.3041 27.9811C75.7038 24.5834 67.4094 22.2849 73.4054 22.6846C79.4014 23.0843 79.2515 19.3369 79.9011 17.2383" stroke="black" stroke-width="0.852347"/>
<path d="M72.1064 41.774C72.1064 41.774 79.1518 43.4729 79.6015 39.8753C80.0512 36.2777 70.907 33.8793 77.5525 34.329C84.1981 34.7787 83.9482 30.8313 84.6977 28.6328" stroke="black" stroke-width="0.852347"/>
<path d="M13.5449 9.94336C13.5449 9.94336 14.544 16.3892 17.7418 15.2899C20.9397 14.1906 17.5921 19.537 19.4409 20.2366C21.2897 20.9361 21.7894 20.936 21.7894 20.936" stroke="black" stroke-width="0.852347"/>
<path d="M9.34766 16.291C9.34766 16.291 10.4972 23.1364 14.1448 21.9872C17.7923 20.8379 13.9446 26.4842 16.0932 27.2337C18.2417 27.9832 18.7916 27.9332 18.7916 27.9332" stroke="black" stroke-width="0.852347"/>
<path d="M20.8955 85.9242C20.8955 85.9242 42.731 81.8769 50.176 92.0202" stroke="black" stroke-width="0.852347"/>
<path d="M20.1465 95.6663C22.395 95.0168 24.7434 94.617 27.1418 94.4671C28.341 94.3672 29.4903 94.3672 30.6895 94.3672C31.8887 94.4172 33.0879 94.5171 34.2371 94.667C36.5855 95.0168 38.934 95.7163 41.0326 96.8156C42.0819 97.3652 43.0812 98.0647 43.9806 98.8642C44.88 99.6637 45.6295 100.613 46.2291 101.612C45.4297 100.763 44.5802 99.9635 43.6309 99.2639C42.6815 98.5644 41.6822 98.0148 40.6329 97.5151C39.5836 97.0154 38.4843 96.6657 37.385 96.3659C36.2857 96.0661 35.1365 95.8162 33.9873 95.6663C31.6888 95.3166 29.3903 95.2166 27.0419 95.2166C24.8434 95.2666 22.4949 95.4165 20.1465 95.6663Z" fill="black"/>
<path d="M18.1475 105.661C19.9962 105.112 21.895 104.762 23.8437 104.562C25.7924 104.362 27.6911 104.312 29.6898 104.462C30.6891 104.562 31.6885 104.712 32.6378 105.112C33.5872 105.511 34.4366 106.161 35.0862 106.911C35.7358 107.66 36.2854 108.459 36.7851 109.309C37.2847 110.108 37.7844 110.958 38.2841 111.807C37.6345 111.108 37.0349 110.358 36.3853 109.609C35.7857 108.859 35.1861 108.11 34.5366 107.46C33.887 106.811 33.1375 106.261 32.2881 106.011C31.4386 105.711 30.5392 105.561 29.5898 105.461C28.6405 105.362 27.6911 105.362 26.7417 105.312C25.7924 105.262 24.843 105.312 23.8936 105.312C21.9949 105.362 20.0962 105.511 18.1475 105.661Z" fill="black"/>
<path d="M19.9413 44.2734C22.1398 44.2734 24.838 47.0217 24.838 50.0696C24.838 53.1176 22.7893 56.9649 20.5908 56.9649C18.3922 56.9649 15.3945 53.7171 15.3945 50.7191C15.3945 47.6711 17.7428 44.2734 19.9413 44.2734Z" fill="#97401A"/>
<path d="M35.4306 54.2644C38.7421 54.2644 41.4266 50.5732 41.4266 46.0199C41.4266 41.4666 38.7421 37.7754 35.4306 37.7754C32.1191 37.7754 29.4346 41.4666 29.4346 46.0199C29.4346 50.5732 32.1191 54.2644 35.4306 54.2644Z" fill="#97401A"/>
<path d="M37.1795 51.2681C38.9732 51.2681 40.4273 49.4784 40.4273 47.2708C40.4273 45.0631 38.9732 43.2734 37.1795 43.2734C35.3857 43.2734 33.9316 45.0631 33.9316 47.2708C33.9316 49.4784 35.3857 51.2681 37.1795 51.2681Z" fill="#040211"/>
<path d="M21.4394 54.2662C23.0952 54.2662 24.4374 52.4765 24.4374 50.2688C24.4374 48.0612 23.0952 46.2715 21.4394 46.2715C19.7837 46.2715 18.4414 48.0612 18.4414 50.2688C18.4414 52.4765 19.7837 54.2662 21.4394 54.2662Z" fill="#040211"/>
<path d="M9.89792 36.627C9.89792 36.627 10.9971 39.2751 12.0464 39.0253C13.0957 38.7754 13.2956 39.2251 13.2956 39.2251L12.0464 43.1724C12.0464 43.1724 9.34809 42.473 9.44802 41.0239C9.54795 39.5749 9.89792 36.627 9.89792 36.627Z" fill="#090807"/>
<path d="M24.6377 33.9785C24.6377 33.9785 24.9874 39.7747 25.0373 46.0206C25.0373 50.4176 24.2377 55.2145 26.0864 57.8128" stroke="black" stroke-width="0.852347"/>
<path d="M30.4837 51.2173C31.8635 51.2173 32.982 49.4277 32.982 47.22C32.982 45.0123 31.8635 43.2227 30.4837 43.2227C29.1039 43.2227 27.9854 45.0123 27.9854 47.22C27.9854 49.4277 29.1039 51.2173 30.4837 51.2173Z" fill="white"/>
<path d="M15.4935 55.2154C16.8732 55.2154 17.9918 53.4257 17.9918 51.218C17.9918 49.0104 16.8732 47.2207 15.4935 47.2207C14.1137 47.2207 12.9951 49.0104 12.9951 51.218C12.9951 53.4257 14.1137 55.2154 15.4935 55.2154Z" fill="white"/>
<path d="M40.877 36.6272C40.877 36.6272 43.3249 35.178 43.7247 33.9288C44.1244 32.6797 44.3244 35.0782 44.3244 35.0782L44.1248 35.5279C44.1248 35.5279 45.9236 33.0296 46.1235 34.3287C46.3233 35.6278 44.7743 37.2267 44.7743 37.2267C44.7743 37.2267 46.8227 34.0789 47.0725 35.0782C47.3224 36.0775 45.0239 38.2262 44.3244 38.6259C43.6248 39.0256 41.6265 40.0749 41.6265 40.0749L40.877 36.6272Z" fill="black"/>
<path d="M45.1145 88.2269C45.1145 88.2269 47.9383 84.7623 46.0284 82.22" stroke="black" stroke-width="0.852347"/>
<path d="M32.609 82.4173C32.609 82.4173 27.662 84.5159 27.8119 90.1122C28.3116 94.6092 30.6603 101.704 34.8575 102.604C37.6557 102.604 40.1039 101.255 40.6535 98.1569C40.9033 96.0083 40.6038 91.3614 43.2021 89.1629C42.3027 87.6139 35.8567 81.7678 33.908 82.4173C32.359 82.3174 32.609 82.4173 32.609 82.4173Z" fill="url(#paint4_linear_859_5529)" stroke="black" stroke-width="0.852347"/>
<path d="M29.8112 76.8729C30.0111 77.3226 32.7992 80.2982 32.7992 81.4475C34.0484 81.9471 36.057 82.569 36.057 82.569L39.3551 85.1174L43.2525 89.1147C43.2525 89.1147 52.5361 86.694 53.0358 86.9438C58.0324 84.9451 59.2816 82.0469 58.2823 79.6986C55.5015 73.1643 39.5448 83.1963 39.5448 83.1963C37.2463 83.9958 40.7539 83.1188 40.0544 80.2208C39.055 77.5725 33.5089 69.2779 30.2611 74.8242C29.9113 75.7736 29.6113 76.4732 29.8112 76.8729Z" fill="#F97D1B" stroke="black" stroke-width="0.852347"/>
<defs>
<linearGradient id="paint0_linear_859_5529" x1="6.26077" y1="90.7532" x2="16.4359" y2="93.6956" gradientUnits="userSpaceOnUse">
<stop stop-color="#F37422"/>
<stop offset="1" stop-color="#E43922"/>
</linearGradient>
<linearGradient id="paint1_linear_859_5529" x1="42.6704" y1="76.6471" x2="58.9405" y2="78.7847" gradientUnits="userSpaceOnUse">
<stop stop-color="#F38620"/>
<stop offset="1" stop-color="#E5412C"/>
</linearGradient>
<linearGradient id="paint2_linear_859_5529" x1="30.6411" y1="19.3462" x2="40.363" y2="20.64" gradientUnits="userSpaceOnUse">
<stop stop-color="#C87AC1"/>
<stop offset="0.446" stop-color="#C278BA"/>
<stop offset="1" stop-color="#BB75B2"/>
</linearGradient>
<linearGradient id="paint3_linear_859_5529" x1="49.555" y1="22.2528" x2="57.6254" y2="27.701" gradientUnits="userSpaceOnUse">
<stop stop-color="#C87AC1"/>
<stop offset="0.262" stop-color="#EAB7DC"/>
<stop offset="1" stop-color="#BB75B2"/>
</linearGradient>
<linearGradient id="paint4_linear_859_5529" x1="33.0694" y1="91.6731" x2="43.2445" y2="94.6155" gradientUnits="userSpaceOnUse">
<stop stop-color="#F37422"/>
<stop offset="1" stop-color="#E43922"/>
</linearGradient>
</defs>
</svg>
