<svg width="176" height="249" viewBox="0 0 176 249" fill="none" xmlns="http://www.w3.org/2000/svg">
<g clip-path="url(#clip0_1038_8605)">
<path d="M75.9414 45.1371C75.9414 45.1371 68.3642 26.3869 61.7412 24.7289C56.7702 23.8999 59.0913 11.3078 48.3203 13.6288C39.3733 15.6168 40.6982 17.4398 40.6982 17.4398C40.6982 17.4398 19.8207 16.6108 15.8447 31.5238C14.8507 41.1338 18.1653 40.6089 13.1943 44.3509C8.22334 48.0929 4.90838 58.8639 6.23438 61.8509C7.56037 64.8379 6.56612 71.296 4.57812 72.451C2.59013 73.606 -1.05515 79.9072 2.58984 83.8841C6.23484 87.8611 5.57213 90.5121 4.57812 90.8431C3.58412 91.1741 3.41737 95.1508 6.23438 95.8138C9.05138 96.4768 10.8753 108.076 13.1943 107.579C15.5133 107.082 21.6453 102.279 19.8223 99.7909C17.9993 97.3029 24.4611 96.9738 25.9521 95.8138C27.4431 94.6538 30.5921 89.3518 32.5801 88.5228C34.5681 87.6938 42.853 73.1128 39.208 66.9818C35.563 60.8508 47.4925 64.1649 43.1855 57.3719C38.8785 50.5789 50.8077 68.8049 51.3047 42.6249C53.2927 34.0089 59.9193 34.6708 62.7373 41.7958C65.5553 48.9208 65.6309 50.5731 65.6309 50.5731L75.9414 45.1371Z" fill="#57B741" stroke="black" stroke-width="2"/>
<path d="M164.433 168.664C164.433 168.664 174.372 172.87 173.991 184.086C172.971 193.135 168.257 207.286 159.845 209.067C154.237 209.067 149.393 206.391 148.244 200.145C147.734 195.812 148.372 186.507 143.145 182.173C144.93 179.114 157.802 167.388 161.753 168.663C164.942 168.409 164.433 168.664 164.433 168.664Z" fill="url(#paint0_linear_1038_8605)" stroke="black" stroke-width="2"/>
<path d="M170.04 157.576C169.62 158.45 162.141 163.822 162.141 166.116C162.014 168.41 157.553 169.048 157.553 169.048L150.924 174.148L143.15 182.178C143.15 182.178 135.25 176.698 134.228 177.207C133.206 177.716 133.589 166.118 133.589 166.118L151.982 172.518C156.582 174.118 148.061 170.263 149.532 164.38C151.492 159.086 162.662 142.494 169.16 153.575C169.795 155.317 170.46 156.703 170.04 157.576Z" fill="#F97D1B" stroke="black" stroke-width="2"/>
<path d="M146.962 123.167C146.962 123.167 152.57 130.558 146.197 136.421C139.824 142.284 129.498 148.276 130.01 151.845C130.903 155.413 133.709 163.698 133.577 165.992C133.445 168.286 135.106 175.933 133.322 177.336C133.067 179.121 136.638 192.12 135.108 195.816C134.853 198.238 144.03 207.161 139.059 217.358C140.459 221.946 143.393 241.83 139.059 245.271C135.872 248.203 114.077 253.301 99.9288 229.594C98.6548 226.025 85.0154 223.476 83.4864 208.181C84.3794 206.907 72.3979 201.553 75.9659 188.681C74.1819 187.024 69.4665 181.033 70.3585 179.38C71.2505 177.727 91.0067 174.92 74.0587 164.468C69.3427 163.831 63.0977 165.997 63.0977 165.997C63.0977 165.997 61.5677 148.408 54.5577 141.27C52.2637 136.937 49.3307 136.17 46.0177 116.67C46.2727 103.16 42.0661 89.2697 53.9171 77.2857C62.9671 67.9857 63.7315 67.0855 63.7315 67.0855C63.7315 67.0855 86.801 43.7617 110.253 50.5167C125.038 55.3597 134.087 63.5167 135.489 67.7237C136.382 70.7827 149.765 75.1166 150.402 88.4996C151.931 99.5886 151.677 116.541 149.128 119.6C146.579 122.659 146.962 123.167 146.962 123.167Z" fill="url(#paint1_linear_1038_8605)" stroke="black" stroke-width="2"/>
<path d="M149.763 85.4426C144.888 73.6206 138.293 64.1556 127.077 73.5876C126.44 76.7746 117.517 53.705 110.125 57.656C104.899 59.695 96.6152 68.8718 94.9582 77.4118C93.3012 86.0788 87.3586 107.233 93.9826 118.226C100.607 129.219 106.045 136.807 117.007 130.052C123.763 122.152 124.655 119.983 124.655 119.983C124.655 119.983 125.675 134.895 133.322 132.474C134.622 131.767 137.209 131.574 139.055 130.053C144.15 125.866 149.192 118.232 149.761 116.162C151.871 108.494 153.508 94.5216 149.763 85.4426Z" fill="white" stroke="black" stroke-width="2"/>
<path d="M123.507 40.8519C123.729 40.2639 117.061 20.7522 112.453 29.3812C107.553 37.0282 109.022 39.0878 109.022 39.0878C109.219 40.1784 109.344 41.281 109.398 42.388C109.519 42.349 98.5197 44.0089 99.5977 35.9769C100.676 27.9449 108.435 21.3377 108.435 17.3177C108.435 13.2977 112.455 6.63114 117.847 7.90514C123.436 8.88514 131.574 6.43388 134.809 8.39488C138.044 10.3559 148.73 16.8272 145.691 20.2582C142.652 23.6892 151.771 26.5331 151.771 26.5331C151.771 26.5331 159.026 31.6331 157.555 36.5331C156.183 40.9451 160.987 48.4938 164.32 48.6908C167.261 49.5728 165.987 63.5908 163.536 66.0448C161.085 68.4988 161.675 76.4368 160.105 75.7508C158.535 75.0648 152.456 67.32 149.71 67.516C146.965 67.616 144.71 66.5359 142.161 64.4759C139.612 62.4159 132.062 55.6518 132.848 51.7298C133.634 47.8078 132.259 45.8467 130.788 46.6297C129.317 47.4127 123.507 40.8519 123.507 40.8519Z" fill="#50B43F" stroke="black" stroke-width="2"/>
<path d="M112.929 41.3862C113.322 40.2092 121.362 32.0719 121.459 42.5619C120.576 46.6799 117.929 47.9551 119.792 50.7001C121.655 53.4451 120.38 58.9359 112.929 52.8569C109.007 49.2289 103.811 47.464 102.046 49.621C100.281 51.68 92.9275 53.837 92.1455 49.621C91.3635 45.405 96.1671 42.0722 90.5781 38.7382C89.8911 34.8162 97.4408 31.4821 99.0098 36.6791C100.579 41.8761 112.536 42.5622 112.929 41.3862Z" fill="url(#paint2_linear_1038_8605)" stroke="black"/>
<path d="M75.5741 44.812C75.5741 44.812 79.9863 37.0722 83.0253 43.0532C85.5743 48.7402 81.6518 52.9531 84.2988 53.3481C86.9458 53.7431 83.3189 57.4661 78.4159 55.3091C73.5129 53.1521 70.3764 67.3681 68.0234 64.0351C65.6704 60.7021 62.3362 77.3692 58.9052 67.3682C55.4742 57.3671 57.5331 52.1679 52.8271 51.8769C48.1211 51.5859 59.4942 47.269 62.2392 49.916C64.9842 52.563 75.5741 44.812 75.5741 44.812Z" fill="url(#paint3_linear_1038_8605)" stroke="black"/>
<path d="M74.5938 45.7963C74.6937 45.5963 77.1426 54.4247 77.1426 54.4247C77.1426 54.4247 72.829 57.5617 71.75 60.1117C70.671 62.6617 65.8672 50.5033 65.8672 50.5033C65.8672 50.5033 74.4957 45.9923 74.5938 45.7963Z" fill="#C888BE" stroke="black" stroke-opacity="0.29"/>
<path d="M112.831 42.2681C113.223 41.2881 110.282 50.4062 110.282 50.4062C110.282 50.4062 105.182 46.5823 101.654 50.4062C98.4185 51.6803 100.967 40.4062 100.967 40.4062C100.967 40.4062 112.439 43.2481 112.831 42.2681Z" fill="#C888BE" stroke="black" stroke-opacity="0.29"/>
<path d="M38.9551 65.1597C38.9551 65.1597 26.1054 68.4032 25.3154 61.5732C24.5254 54.7432 41.1273 50.1333 29.0713 50.9873C17.0153 51.8413 17.4104 44.3285 16.0264 40.0605" stroke="black" stroke-width="2"/>
<path d="M31.7598 89.1143C31.7598 89.1143 17.6385 92.5073 16.7715 85.3633C15.9045 78.2193 34.1494 73.3961 20.8984 74.2891C7.64744 75.1821 8.08252 67.3244 6.56152 62.8594" stroke="black" stroke-width="2"/>
<path d="M148.889 25.4922C148.889 25.4922 146.865 38.4073 140.451 36.1973C134.037 33.9873 140.787 44.6972 137.076 46.0522C133.365 47.4072 132.352 47.4111 132.352 47.4111" stroke="black" stroke-width="2"/>
<path d="M157.344 38.1738C157.344 38.1738 155.033 51.8738 147.712 49.5288C140.391 47.1838 148.096 58.5409 143.858 59.9819C139.62 61.4229 138.466 61.4229 138.466 61.4229" stroke="black" stroke-width="2"/>
<path d="M53.8121 173.712C53.8121 173.712 63.224 163.123 69.401 164.692C74.501 164.104 82.1457 169.692 80.8717 172.144C80.1262 173.678 79.0094 175.002 77.6227 175.995C76.2359 176.988 74.6238 177.619 72.9313 177.831C70.5783 178.811 67.0492 178.419 64.8922 179.596C62.7352 180.773 53.4211 191.557 55.4801 195.479C57.5391 199.401 60.2797 206.166 57.5387 207.539C54.7977 208.912 47.3393 211.265 45.9703 203.127C44.7933 195.48 44.5969 194.303 38.3229 196.068C32.1459 196.852 12.9304 194.695 12.3424 185.381C12.8324 179.988 14.8912 180.674 21.5582 183.224C28.2252 185.774 41.1663 185.773 42.6373 183.224C44.1083 180.675 53.8121 173.712 53.8121 173.712Z" fill="url(#paint4_linear_1038_8605)" stroke="black" stroke-width="2"/>
<path d="M52.8311 174.301C52.8311 174.301 61.7539 175.183 62.6309 181.458" stroke="black" stroke-width="2"/>
<g filter="url(#filter0_d_1038_8605)">
<path d="M134.16 177.486C134.16 177.486 90.483 169.386 75.582 189.64" stroke="black" stroke-width="2"/>
</g>
<g filter="url(#filter1_d_1038_8605)">
<path d="M135.668 197.004C128.75 195.659 121.698 195.128 114.656 195.422C103.756 195.893 90.7472 198.907 83.3262 208.995" stroke="black" stroke-width="2"/>
</g>
<g filter="url(#filter2_d_1038_8605)">
<path d="M139.668 217.004C132.75 215.659 125.698 215.128 118.656 215.422C107.756 215.893 106.887 219.123 99.4668 229.209" stroke="black" stroke-width="2"/>
</g>
<path d="M136.112 94.1426C131.694 94.1426 126.272 99.6876 126.272 105.764C126.272 111.84 130.384 119.588 134.802 119.588C139.22 119.588 145.195 113.114 145.195 107.043C145.195 100.972 140.53 94.1426 136.112 94.1426Z" fill="#97401A"/>
<path d="M105.112 114.143C98.4849 114.143 93.1123 106.755 93.1123 97.6426C93.1123 88.5299 98.4849 81.1426 105.112 81.1426C111.74 81.1426 117.112 88.5299 117.112 97.6426C117.112 106.755 111.74 114.143 105.112 114.143Z" fill="#97401A"/>
<path d="M101.612 108.143C98.0225 108.143 95.1123 104.561 95.1123 100.143C95.1123 95.7243 98.0225 92.1426 101.612 92.1426C105.202 92.1426 108.112 95.7243 108.112 100.143C108.112 104.561 105.202 108.143 101.612 108.143Z" fill="#040211"/>
<path d="M133.112 114.143C129.799 114.143 127.112 110.561 127.112 106.143C127.112 101.724 129.799 98.1426 133.112 98.1426C136.426 98.1426 139.112 101.724 139.112 106.143C139.112 110.561 136.426 114.143 133.112 114.143Z" fill="#040211"/>
<path d="M156.174 78.8477C156.174 78.8477 154.02 84.1478 151.865 83.6528C149.71 83.1578 149.404 84.0928 149.404 84.0928L151.865 92.0117C151.865 92.0117 157.248 90.6544 157.021 87.7114C156.794 84.7684 156.174 78.8477 156.174 78.8477Z" fill="#090807"/>
<path d="M126.693 73.5879C126.693 73.5879 125.986 85.1752 125.923 97.6802C125.88 106.509 127.532 116.09 123.834 121.32" stroke="black" stroke-width="2"/>
<path d="M115.03 108.035C112.269 108.035 110.03 104.453 110.03 100.035C110.03 95.6169 112.269 92.0352 115.03 92.0352C117.792 92.0352 120.03 95.6169 120.03 100.035C120.03 104.453 117.792 108.035 115.03 108.035Z" fill="white"/>
<path d="M145.03 116.035C142.269 116.035 140.03 112.453 140.03 108.035C140.03 103.617 142.269 100.035 145.03 100.035C147.792 100.035 150.03 103.617 150.03 108.035C150.03 112.453 147.792 116.035 145.03 116.035Z" fill="white"/>
<path d="M94.2119 78.7996C94.2119 78.7996 89.2751 75.8512 88.5381 73.4192C87.8011 70.9872 87.3594 75.7044 87.3594 75.7044L87.7275 76.5882C87.7275 76.5882 84.116 71.5775 83.748 74.1565C83.38 76.7355 86.4014 79.9773 86.4014 79.9773C86.4014 79.9773 82.348 73.7134 81.832 75.7034C81.316 77.6934 85.9604 82.0406 87.3594 82.7776C88.7584 83.5146 92.7383 85.7254 92.7383 85.7254L94.2119 78.7996Z" fill="black"/>
<path opacity="0.28" d="M69.425 75.1098C69.425 75.1098 81.2788 74.3447 74.0138 90.4047C66.7488 106.465 61.7777 107.105 59.2287 106.847C56.6797 106.589 64.3287 116.788 59.2287 119.337C54.1287 121.886 49.6689 119.974 49.9289 113.856C50.1889 107.738 54.9007 106.082 52.7287 100.728C50.5567 95.3745 57.0625 78.1678 61.7785 76.2568C66.4945 74.3458 69.425 75.1098 69.425 75.1098Z" fill="#F8B53A"/>
<path d="M69.3965 33.0762C69.3965 33.0762 60.6915 26.5533 55.3965 27.1763C50.1015 27.7993 47.8966 31.896 45.9326 25.002C43.9686 18.108 40.6523 17.2383 40.6523 17.2383" stroke="black" stroke-width="2"/>
<path d="M53.915 37.5117C53.915 37.5117 45.4903 30.428 40.3623 31.103C35.2343 31.778 33.1051 36.2277 31.2021 28.7407C29.2991 21.2537 26.0908 20.3086 26.0908 20.3086" stroke="black" stroke-width="2"/>
<path d="M144.244 15.7538C144.244 15.7538 135.113 19.7619 133.753 24.1615C132.393 28.561 135.342 32.0229 128.323 30.618C121.304 29.213 119.303 31.4267 119.303 31.4267" stroke="black" stroke-width="2"/>
<path d="M130.244 7.75384C130.244 7.75384 121.113 11.7619 119.753 16.1615C118.393 20.561 121.342 24.0229 114.323 22.618C107.304 21.213 105.303 23.4267 105.303 23.4267" stroke="black" stroke-width="2"/>
<path d="M23.9668 75.4863C23.9668 75.4863 14.6258 78.271 11.8418 76.356" stroke="black" stroke-width="2"/>
<path d="M31.7461 52.4863C31.7461 52.4863 22.4051 55.271 19.6211 53.356" stroke="black" stroke-width="2"/>
<path d="M149.746 35.9727C149.746 35.9727 140.405 38.7573 137.621 36.8423" stroke="black" stroke-width="2"/>
<path d="M133.276 15.5898C133.276 15.5898 126.48 12.7858 126.901 9.8226" stroke="black" stroke-width="2"/>
<path d="M151.219 56.6523C151.219 56.6523 144.422 53.8483 144.843 50.8851" stroke="black" stroke-width="2"/>
<path d="M164.219 62.6523C164.219 62.6523 157.422 59.8483 157.843 56.8851" stroke="black" stroke-width="2"/>
<path d="M160.73 74.291C160.73 74.291 153.934 71.487 154.355 68.5238" stroke="black" stroke-width="2"/>
<path d="M140.252 60.4688C140.252 60.4688 133.455 57.6647 133.877 54.7015" stroke="black" stroke-width="2"/>
<path d="M30.6445 28.1445C30.6445 28.1445 21.3035 30.9292 18.5195 29.0142" stroke="black" stroke-width="2"/>
<path d="M30.0293 90.4863C30.0293 90.4863 20.6883 93.271 17.9043 91.356" stroke="black" stroke-width="2"/>
<path d="M148.067 168.887L141.052 182.687L134.858 178.697L126.353 174.687L125.264 157.62L126.353 147.957L136.821 153.625L141.5 159L148.067 168.887Z" fill="#010101" stroke="white"/>
<path d="M138.702 179.535L146.821 241.834L121.458 241.635L128.595 176.053L138.702 179.535Z" fill="#010101" stroke="white"/>
<path d="M104.716 177.76L115.701 243.459L98.3008 241.671C98.3008 241.671 90.1551 234.213 87.9131 227.585C85.6711 220.957 78.6449 213.33 78.4189 209.749C77.9509 202.349 70.1055 184.175 70.1055 184.175L81.8857 173.023L104.716 177.76Z" fill="black" stroke="white"/>
<path d="M101.612 150.43C101.612 150.43 73.4308 142.712 62.6748 145.313C51.9188 147.914 35.428 184.864 46.5 189.021C57.572 193.178 61.0615 195.462 61.0615 195.462L83.0703 173.462L99.833 179.674L101.612 167.812V150.43Z" fill="#010101" stroke="white"/>
<path d="M131.817 153.365C131.165 154.808 121.178 180.654 121.178 180.654L96.5518 151.917C96.5518 151.917 106.04 183.055 103.471 182.946C107.999 186.693 108.902 187.289 108.902 187.289C108.902 187.289 103.935 190.588 101.028 190.331C100.415 193.555 119.43 246.894 119.43 246.894C119.43 246.894 107.131 181.584 108.007 180.649C109.19 184.608 114.42 190.104 114.42 190.104L121.178 180.654L128.119 189.618L131.086 177.301C131.086 177.301 130.077 226.854 125.475 244.99C125.078 247.902 142.65 189.625 142.65 189.625C142.65 189.625 135.158 188.834 134.018 187.476C132.879 186.118 139.636 183.096 139.846 182.328C137.936 181.466 136.235 180.202 134.858 178.624C132.371 175.885 131.817 153.365 131.817 153.365Z" fill="#010101"/>
<path d="M121.178 180.654C121.178 180.654 131.165 154.808 131.817 153.365C131.817 153.365 132.371 175.885 134.858 178.624C136.235 180.202 137.936 181.466 139.846 182.328C139.636 183.096 132.879 186.118 134.018 187.476C135.158 188.834 142.65 189.625 142.65 189.625C142.65 189.625 125.078 247.902 125.475 244.99C130.077 226.854 131.086 177.301 131.086 177.301L128.119 189.618L121.178 180.654ZM121.178 180.654L96.5518 151.917C96.5518 151.917 106.04 183.055 103.471 182.946C107.999 186.693 108.902 187.289 108.902 187.289C108.902 187.289 103.935 190.588 101.028 190.331C100.415 193.555 119.43 246.894 119.43 246.894C119.43 246.894 107.131 181.584 108.007 180.649C109.19 184.608 114.42 190.104 114.42 190.104L121.178 180.654Z" stroke="white" stroke-width="1.00014"/>
<path d="M124.305 180.033L121.105 177.487L117.933 180.565L119.353 183.835L123.468 183.765L124.305 180.033Z" fill="#ED1B24" stroke="white" stroke-width="1.00014"/>
<path d="M123.082 184.251L119.561 184.311C119.561 184.311 115.709 207.039 116.619 211.236C117.528 215.433 121.719 243.042 122.46 244.383C124.072 230.916 127.376 211.153 127.195 207.696C126.982 204.241 123.082 184.251 123.082 184.251Z" fill="#ED1B24" stroke="white" stroke-width="1.00014"/>
<path d="M135.87 142.542C135.87 142.542 118.408 147.768 105.28 141.142C97.561 136.899 90.3364 131.812 83.7393 125.975C83.7393 125.975 81.7004 121.896 79.0234 125.975C76.3464 130.054 71.1237 132.985 80.6807 128.269C86.4157 130.309 91.0035 147.643 94.0635 150.069C95.8485 153.769 112.798 182.188 125.163 165.746C128.732 154.785 124.017 154.657 128.987 149.432C133.448 145.22 135.87 142.542 135.87 142.542Z" fill="white" stroke="black"/>
</g>
<defs>
<filter id="filter0_d_1038_8605" x="70.7764" y="174.887" width="67.5654" height="23.3457" filterUnits="userSpaceOnUse" color-interpolation-filters="sRGB">
<feFlood flood-opacity="0" result="BackgroundImageFix"/>
<feColorMatrix in="SourceAlpha" type="matrix" values="0 0 0 0 0 0 0 0 0 0 0 0 0 0 0 0 0 0 127 0" result="hardAlpha"/>
<feOffset dy="4"/>
<feGaussianBlur stdDeviation="2"/>
<feColorMatrix type="matrix" values="0 0 0 0 0 0 0 0 0 0 0 0 0 0 0 0 0 0 0.161 0"/>
<feBlend mode="normal" in2="BackgroundImageFix" result="effect1_dropShadow_1038_8605"/>
<feBlend mode="normal" in="SourceGraphic" in2="effect1_dropShadow_1038_8605" result="shape"/>
</filter>
<filter id="filter1_d_1038_8605" x="78.5205" y="194.344" width="61.3379" height="23.2441" filterUnits="userSpaceOnUse" color-interpolation-filters="sRGB">
<feFlood flood-opacity="0" result="BackgroundImageFix"/>
<feColorMatrix in="SourceAlpha" type="matrix" values="0 0 0 0 0 0 0 0 0 0 0 0 0 0 0 0 0 0 127 0" result="hardAlpha"/>
<feOffset dy="4"/>
<feGaussianBlur stdDeviation="2"/>
<feColorMatrix type="matrix" values="0 0 0 0 0 0 0 0 0 0 0 0 0 0 0 0 0 0 0.161 0"/>
<feBlend mode="normal" in2="BackgroundImageFix" result="effect1_dropShadow_1038_8605"/>
<feBlend mode="normal" in="SourceGraphic" in2="effect1_dropShadow_1038_8605" result="shape"/>
</filter>
<filter id="filter2_d_1038_8605" x="94.6611" y="214.344" width="49.1973" height="23.457" filterUnits="userSpaceOnUse" color-interpolation-filters="sRGB">
<feFlood flood-opacity="0" result="BackgroundImageFix"/>
<feColorMatrix in="SourceAlpha" type="matrix" values="0 0 0 0 0 0 0 0 0 0 0 0 0 0 0 0 0 0 127 0" result="hardAlpha"/>
<feOffset dy="4"/>
<feGaussianBlur stdDeviation="2"/>
<feColorMatrix type="matrix" values="0 0 0 0 0 0 0 0 0 0 0 0 0 0 0 0 0 0 0.161 0"/>
<feBlend mode="normal" in2="BackgroundImageFix" result="effect1_dropShadow_1038_8605"/>
<feBlend mode="normal" in="SourceGraphic" in2="effect1_dropShadow_1038_8605" result="shape"/>
</filter>
<linearGradient id="paint0_linear_1038_8605" x1="162.4" y1="182.61" x2="142.068" y2="188.491" gradientUnits="userSpaceOnUse">
<stop stop-color="#F37422"/>
<stop offset="1" stop-color="#E43922"/>
</linearGradient>
<linearGradient id="paint1_linear_1038_8605" x1="88.0482" y1="141.026" x2="55.4761" y2="145.322" gradientUnits="userSpaceOnUse">
<stop stop-color="#F38620"/>
<stop offset="1" stop-color="#E5412C"/>
</linearGradient>
<linearGradient id="paint2_linear_1038_8605" x1="114.903" y1="47.0569" x2="95.4405" y2="49.6461" gradientUnits="userSpaceOnUse">
<stop stop-color="#C87AC1"/>
<stop offset="0.446" stop-color="#C278BA"/>
<stop offset="1" stop-color="#BB75B2"/>
</linearGradient>
<linearGradient id="paint3_linear_1038_8605" x1="78.3583" y1="52.147" x2="62.2311" y2="63.0493" gradientUnits="userSpaceOnUse">
<stop stop-color="#C87AC1"/>
<stop offset="0.262" stop-color="#EAB7DC"/>
<stop offset="1" stop-color="#BB75B2"/>
</linearGradient>
<linearGradient id="paint4_linear_1038_8605" x1="42.42" y1="173.815" x2="32.5464" y2="199.313" gradientUnits="userSpaceOnUse">
<stop stop-color="#EF8A23"/>
<stop offset="1" stop-color="#F03B1E"/>
</linearGradient>
<clipPath id="clip0_1038_8605">
<rect width="175.002" height="248.863" fill="white" transform="matrix(-1 0 0 1 175.002 0)"/>
</clipPath>
</defs>
</svg>
