<svg width="1280" height="447" viewBox="0 0 1280 447" fill="none" xmlns="http://www.w3.org/2000/svg">
<path opacity="0.1" fill-rule="evenodd" clip-rule="evenodd" d="M1281 366.452L1227.62 360.508C1174.25 354.564 1067.5 342.676 960.75 348.62C854 354.564 747.25 378.34 640.5 390.229C533.75 402.117 427 402.117 320.25 396.173C213.5 390.229 106.75 378.34 53.375 372.396L0 366.452V616.104H53.375C106.75 616.104 213.5 616.104 320.25 616.104C427 616.104 533.75 616.104 640.5 616.104C747.25 616.104 854 616.104 960.75 616.104C1067.5 616.104 1174.25 616.104 1227.62 616.104H1281V366.452Z" fill="#FD973A"/>
<path fill-rule="evenodd" clip-rule="evenodd" d="M53.375 392.897L0 398.132V463V618V632H1284V463H1281V398.132L1227.62 403.367C1174.25 408.602 1067.5 419.071 960.75 424.306C854 429.541 747.25 429.541 640.5 419.071C597.8 414.884 555.1 409.02 512.4 403.157C448.35 394.362 384.3 385.568 320.25 382.427C213.5 377.192 106.75 387.662 53.375 392.897Z" fill="#3ECE5A"/>
<path d="M264.566 0.501953H220.705C213.216 0.501953 207.256 6.22927 207.256 13.102V48.8977C207.256 55.9137 213.369 61.4978 220.705 61.4978H233.542L222.844 81.4002L242.712 61.4978H264.719C272.207 61.4978 278.168 55.7705 278.168 48.8977V13.102C278.015 6.08608 272.054 0.501953 264.566 0.501953Z" fill="#FD973A"/>
<path opacity="0.7" d="M264.566 0.501953H220.705C213.216 0.501953 207.256 6.22927 207.256 13.102V48.8977C207.256 55.9137 213.369 61.4978 220.705 61.4978H233.542L222.844 81.4002L242.712 61.4978H264.719C272.207 61.4978 278.168 55.7705 278.168 48.8977V13.102C278.015 6.08608 272.054 0.501953 264.566 0.501953Z" fill="white"/>
<path d="M258.008 45.3488C266.543 37.3529 266.543 24.3889 258.008 16.3929C249.474 8.39693 235.637 8.39693 227.102 16.3929C218.568 24.3889 218.568 37.3529 227.102 45.3488C235.637 53.3448 249.474 53.3448 258.008 45.3488Z" fill="#FD973A"/>
<path d="M240.265 40.0232C239.653 40.0232 239.042 39.7368 238.736 39.3073L230.178 29.8572C229.414 28.9981 229.567 27.8527 230.484 27.2799C231.401 26.564 232.623 26.7072 233.235 27.5663L240.265 35.2982L251.879 22.5549C252.644 21.6958 253.866 21.6958 254.63 22.2685C255.547 22.9845 255.547 24.1299 254.936 24.8458L241.793 39.3073C241.487 39.7368 240.876 40.0232 240.265 40.0232Z" fill="white"/>
<g filter="url(#filter0_d_53_1259)">
<path d="M300.781 385.381H389.726C390.643 385.381 391.407 384.666 391.407 383.806V378.509C391.407 377.65 390.643 376.934 389.726 376.934H305.365V206.689H388.351C390.184 206.689 391.56 205.401 391.56 203.683V198.098H300.781C298.183 198.098 296.196 199.96 296.196 202.394V381.086C296.196 383.52 298.183 385.381 300.781 385.381Z" fill="#263238"/>
<g opacity="0.3">
<path d="M296.196 202.394V381.086C296.196 383.52 298.183 385.381 300.781 385.381H389.726C390.643 385.381 391.407 384.666 391.407 383.806V378.509C391.407 377.65 390.643 376.934 389.726 376.934H305.365V206.689H388.351C390.032 206.689 391.56 205.401 391.56 203.683V198.098H300.781C298.183 198.098 296.196 199.96 296.196 202.394Z" fill="white"/>
</g>
<path opacity="0.2" d="M296.193 202.394V247.926C299.25 248.642 302.306 249.358 305.363 250.074V206.69H388.348C390.029 206.69 391.557 205.401 391.557 203.683V198.099H300.778C298.18 198.099 296.193 199.96 296.193 202.394Z" fill="black"/>
<path d="M135.268 361.472L171.793 358.465V313.649H184.631V358.465L221.309 361.472C224.519 361.759 226.964 364.336 226.964 367.343V371.925H179.587H177.142H129.613V367.343C129.613 364.336 132.058 361.759 135.268 361.472Z" fill="#263238"/>
<path opacity="0.1" d="M135.268 361.472L171.793 358.465V313.649H184.631V358.465L221.309 361.472C224.519 361.759 226.964 364.336 226.964 367.343V371.925H179.587H177.142H129.613V367.343C129.613 364.336 132.058 361.759 135.268 361.472Z" fill="white"/>
<path d="M215.044 377.509C215.044 381.805 218.865 385.384 223.45 385.384C228.034 385.384 231.855 381.805 231.855 377.509C231.855 373.214 228.034 369.634 223.45 369.634C218.865 369.634 215.044 373.214 215.044 377.509Z" fill="#263238"/>
<path d="M141.536 377.509C141.536 381.805 137.716 385.384 133.131 385.384C128.546 385.384 124.725 381.805 124.725 377.509C124.725 373.214 128.546 369.634 133.131 369.634C137.716 369.634 141.536 373.214 141.536 377.509Z" fill="#263238"/>
<path d="M175.308 322.67H181.268C184.478 322.67 186.923 320.236 186.923 317.373V278.713H169.653V317.373C169.653 320.38 172.099 322.67 175.308 322.67Z" fill="#263238"/>
<path opacity="0.2" d="M175.308 322.67H181.268C184.478 322.67 186.923 320.236 186.923 317.373V278.713H169.653V317.373C169.653 320.38 172.099 322.67 175.308 322.67Z" fill="white"/>
<path d="M140.465 190.083C140.465 190.083 144.439 264.251 161.403 276.994H143.216C143.216 276.994 127.016 251.651 125.794 190.083H140.465Z" fill="#263238"/>
<path opacity="0.1" d="M140.465 190.083C140.465 190.083 144.439 264.251 161.403 276.994H143.216C143.216 276.994 127.016 251.651 125.794 190.083H140.465Z" fill="white"/>
<path d="M219.784 270.835H138.938C135.118 270.835 132.061 273.698 132.061 277.278V283.148H226.661V277.278C226.661 273.698 223.604 270.835 219.784 270.835Z" fill="#FD973A"/>
<path d="M227.581 276.992H131.147C129.619 276.992 128.396 278.138 128.396 279.57V280.572C128.396 282.004 129.619 283.149 131.147 283.149H227.428C228.957 283.149 230.179 282.004 230.179 280.572V279.57C230.332 278.138 228.957 276.992 227.581 276.992Z" fill="#263238"/>
<path opacity="0.6" d="M227.581 276.992H131.147C129.619 276.992 128.396 278.138 128.396 279.57V280.572C128.396 282.004 129.619 283.149 131.147 283.149H227.428C228.957 283.149 230.179 282.004 230.179 280.572V279.57C230.332 278.138 228.957 276.992 227.581 276.992Z" fill="white"/>
<path d="M122.43 206.262H151.62C160.179 206.262 166.292 199.102 165.375 190.225L164.152 178.341C163.235 169.464 155.594 162.304 146.883 162.304H117.845C109.287 162.304 103.174 169.464 104.091 178.341L105.314 190.225C106.231 199.102 113.872 206.262 122.43 206.262Z" fill="#FD973A"/>
<path d="M219.016 142.259L220.392 146.268C220.85 147.7 221.462 148.989 221.92 150.421C222.99 153.141 224.06 155.862 225.282 158.439C226.505 161.016 227.728 163.594 229.103 165.741C230.478 167.889 232.007 170.037 233.229 171.039C233.993 171.898 236.286 172.9 239.037 173.473C241.788 174.046 244.691 174.619 247.748 174.905C253.861 175.621 260.433 175.907 266.698 176.194L267.768 184.212C261.044 185.93 254.319 186.932 247.289 187.219C243.774 187.362 240.107 187.362 236.286 186.932C234.299 186.646 232.465 186.36 230.326 185.787C229.256 185.5 228.186 185.071 227.116 184.641C226.046 184.212 224.671 183.496 223.754 182.78C219.781 180.06 217.335 177.053 215.043 174.046C212.903 171.039 211.069 168.032 209.541 165.025C208.013 162.019 206.637 159.012 205.415 155.862C204.804 154.287 204.192 152.712 203.734 151.28C203.122 149.705 202.664 148.273 202.205 146.412L219.016 142.259Z" fill="#B65B52"/>
<path d="M211.374 134.671C216.265 136.246 220.544 142.69 232.617 168.749C232.617 168.749 234.604 171.899 244.385 173.903L243.468 188.508C243.468 188.508 229.408 187.935 226.199 185.788C222.989 183.64 203.427 153.572 203.427 153.572L211.374 134.671Z" fill="#263238"/>
<path opacity="0.2" d="M244.541 173.902L243.624 188.507C243.624 188.507 232.315 188.077 227.73 186.359C227.119 186.216 226.66 185.929 226.355 185.786C224.521 184.498 217.185 174.045 211.377 165.311C207.098 159.011 203.583 153.713 203.583 153.713L211.53 134.813C216.421 136.388 220.7 142.831 232.773 168.891C232.773 168.748 234.76 171.898 244.541 173.902Z" fill="white"/>
<path opacity="0.2" d="M227.73 186.502C227.119 186.359 226.66 186.073 226.354 185.93C224.52 184.641 217.185 174.189 211.377 165.454C213.823 157.293 216.726 150.85 216.726 150.85C216.726 150.85 227.883 171.755 227.73 186.502Z" fill="black"/>
<path d="M263.334 177.053L274.338 173.33L272.963 187.075C272.963 187.075 262.876 188.221 261.653 183.353L263.334 177.053Z" fill="#B55B52"/>
<path d="M283.356 176.05L281.828 187.362L272.964 187.075L274.339 173.33L283.356 176.05Z" fill="#B55B52"/>
<path d="M244.542 173.328L250.197 174.903L248.21 189.078L242.555 189.937L244.542 173.328Z" fill="#263238"/>
<path d="M219.324 225.017C219.324 225.017 293.293 252.365 310.409 263.819C327.679 275.274 370.929 352.306 370.929 352.306L353.048 365.193C353.048 365.193 301.393 294.89 294.974 290.022C288.708 285.297 206.334 261.528 206.334 261.528L219.324 225.017Z" fill="#FD973A"/>
<path opacity="0.4" d="M371.08 352.164L353.2 365.051C353.2 365.051 341.126 348.585 327.983 331.116C313.923 312.359 298.487 292.314 295.278 289.88C290.693 286.443 245.304 272.841 221.31 265.682C212.446 263.105 206.485 261.386 206.485 261.386L219.476 224.875C219.476 224.875 293.444 252.223 310.561 263.677C327.677 275.132 371.08 352.164 371.08 352.164Z" fill="white"/>
<path d="M374.442 379.798L383 371.637L368.94 351.162L360.229 359.323L374.442 379.798Z" fill="#B55B52"/>
<path opacity="0.2" d="M360.229 359.323L368.94 351.162L376.887 362.903L368.023 370.635L360.229 359.323Z" fill="black"/>
<path d="M384.53 370.777C384.683 370.777 384.683 370.777 384.683 370.777C385.752 370.491 386.669 369.918 387.586 369.489C388.351 369.202 388.809 368.486 389.115 367.77C389.267 367.198 388.962 366.625 388.503 366.339C388.198 366.052 387.892 365.909 387.434 366.052C386.517 366.195 385.752 367.341 385.141 368.486C385.141 367.341 384.988 366.195 384.377 365.766C384.071 365.479 383.46 365.336 383.002 365.623C382.543 365.766 382.39 366.052 382.237 366.482C381.932 368.057 384.071 370.491 384.224 370.634C384.53 370.491 384.377 370.777 384.53 370.777ZM384.53 369.632C384.53 369.775 384.377 369.775 384.377 369.918C383.766 369.059 382.696 367.484 382.849 366.482C382.849 366.339 383.002 366.052 383.154 365.909H383.307C383.613 365.766 383.919 365.766 383.919 365.909C384.683 366.625 384.835 368.486 384.53 369.632ZM385.141 370.061C385.752 368.629 386.975 366.768 387.739 366.625C387.892 366.625 388.045 366.625 388.198 366.768C388.503 366.911 388.656 367.341 388.656 367.627C388.503 368.343 387.128 369.202 385.141 370.061Z" fill="#FD973A"/>
<path d="M382.849 370.063L371.387 377.222C370.929 377.508 370.776 377.938 371.082 378.367L376.584 387.244C377.195 388.104 378.57 388.39 379.487 387.817C383.461 385.24 385.142 383.808 390.185 380.658C393.242 378.653 399.508 375.217 403.328 371.924C407.149 368.631 403.481 365.194 401.647 366.34C397.062 368.917 389.268 369.919 384.989 369.633C384.225 369.49 383.461 369.633 382.849 370.063Z" fill="#263238"/>
<path d="M353.965 370.779L376.431 356.891L371.235 347.011L346.935 362.761L353.965 370.779Z" fill="#FD973A"/>
<path opacity="0.2" d="M353.965 370.779L376.431 356.891L371.235 347.011L346.935 362.761L353.965 370.779Z" fill="white"/>
<path opacity="0.2" d="M327.984 331.26C313.923 312.503 298.488 292.457 295.279 290.023C290.694 286.587 245.304 272.985 221.31 265.825L218.559 238.477L227.27 237.046L228.187 239.193C228.187 239.193 283.052 250.791 298.488 258.094C308.422 262.819 321.87 308.78 327.984 331.26Z" fill="black"/>
<path d="M324.619 373.498C324.772 373.498 324.772 373.498 324.772 373.498C325.842 373.498 326.912 373.355 327.981 373.068C328.745 372.925 329.51 372.639 330.121 371.923C330.427 371.493 330.427 370.921 330.121 370.348C329.968 370.061 329.662 369.775 329.357 369.775C328.44 369.632 327.37 370.491 326.3 371.35C326.759 370.348 326.912 369.202 326.606 368.486C326.453 368.057 325.842 367.771 325.383 367.914C324.925 367.914 324.619 368.2 324.313 368.486C323.396 369.775 324.619 372.925 324.772 373.068C324.772 373.355 324.466 373.355 324.619 373.498ZM325.078 372.496C325.078 372.639 324.925 372.639 324.925 372.639C324.619 371.636 324.161 369.775 324.772 369.059C324.925 368.916 325.078 368.773 325.23 368.63H325.383C325.842 368.63 325.995 368.773 325.995 368.916C326.3 369.632 325.842 371.35 325.078 372.496ZM325.383 372.925C326.606 371.78 328.287 370.348 329.051 370.491C329.204 370.491 329.357 370.634 329.51 370.777C329.662 371.064 329.662 371.493 329.51 371.78C329.204 372.496 327.676 372.925 325.383 372.925Z" fill="#FD973A"/>
<path d="M311.935 378.797L322.939 373.786L316.367 349.301L305.364 354.313L311.935 378.797Z" fill="#B55B52"/>
<path opacity="0.2" d="M305.364 354.313L316.367 349.301L320.035 363.333L308.879 367.772L305.364 354.313Z" fill="black"/>
<path d="M323.246 372.211L309.95 375.361C309.492 375.504 309.186 375.933 309.339 376.363L311.478 386.386C311.784 387.388 313.007 388.104 314.076 387.818C318.661 386.672 320.801 385.813 326.608 384.381C330.123 383.522 337.306 382.09 342.044 380.229C346.781 378.368 344.642 374.072 342.349 374.358C337.153 375.361 329.359 373.929 325.386 372.354C324.774 372.068 324.01 372.068 323.246 372.211Z" fill="#263238"/>
<path d="M321.721 353.883C321.721 353.883 303.076 266.255 299.255 260.957C292.989 252.366 218.41 238.477 218.41 238.477L227.121 237.045L217.034 211.845L150.554 214.279C150.554 214.279 151.93 255.373 158.654 266.398C165.379 277.423 265.327 282.434 271.899 285.012C278.318 287.446 298.185 356.317 298.185 356.317L321.721 353.883Z" fill="#FD973A"/>
<path opacity="0.4" d="M321.721 353.883C321.721 353.883 303.076 266.255 299.255 260.957C292.989 252.366 218.41 238.477 218.41 238.477L227.121 237.045L217.034 211.845L150.554 214.279C150.554 214.279 151.93 255.373 158.654 266.398C165.379 277.423 265.327 282.434 271.899 285.012C278.318 287.446 298.185 356.317 298.185 356.317L321.721 353.883Z" fill="white"/>
<path d="M298.638 364.192L324.771 358.035L323.396 347.153L294.97 354.455L298.638 364.192Z" fill="#FD973A"/>
<path opacity="0.2" d="M298.638 364.192L324.771 358.035L323.396 347.153L294.97 354.455L298.638 364.192Z" fill="white"/>
<path d="M171.641 215.425L152.384 215.138L151.926 220.579L172.558 221.009L171.641 215.425Z" fill="#263238"/>
<path d="M174.698 215.281L175.462 221.008L218.407 220.435L217.031 215.281H174.698Z" fill="#263238"/>
<path d="M195.329 216.284L195.94 220.007C196.093 220.866 197.01 221.582 197.927 221.582L204.804 221.439C205.874 221.439 206.485 220.58 206.333 219.721L205.721 215.998C205.568 215.139 204.651 214.423 203.735 214.423L196.857 214.566C195.94 214.709 195.176 215.425 195.329 216.284Z" fill="white"/>
<path d="M152.383 214.28H215.501C217.029 214.28 218.404 213.134 218.557 211.702C226.351 154.429 211.527 134.67 211.527 134.67C205.873 133.095 200.065 132.093 194.258 131.377C185.699 130.804 177.141 130.518 168.583 130.804C162.775 130.947 156.968 131.52 151.16 132.379C148.104 133.668 144.894 146.411 148.104 186.073C148.868 196.525 149.021 205.546 149.021 210.7C148.715 212.848 150.396 214.28 152.383 214.28Z" fill="#263238"/>
<path d="M202.662 155.002H214.736L215.653 168.605L209.234 172.471L202.662 169.464V155.002Z" fill="#263238"/>
<path opacity="0.2" d="M218.557 211.703C218.405 213.134 217.029 214.28 215.501 214.28H152.383C150.396 214.28 148.715 212.705 148.868 210.844C149.021 205.546 148.868 196.525 147.951 186.216C147.493 180.489 147.187 175.334 147.034 170.752C146.576 159.441 146.729 151.28 147.187 145.409C147.951 136.818 149.48 133.239 151.161 132.523C156.968 131.664 162.775 131.091 168.583 130.948C177.141 130.661 185.7 130.804 194.258 131.52C200.065 132.236 205.873 133.239 211.527 134.814C211.374 134.67 226.352 154.573 218.557 211.703Z" fill="white"/>
<path d="M169.042 130.231L189.368 136.675L190.132 131.234C188.146 127.94 187.687 125.936 189.368 122.07L175.767 107.465C176.225 115.054 174.697 125.363 169.042 130.231Z" fill="#B55B52"/>
<path d="M181.879 139.68L185.853 141.255L189.368 143.259C189.368 143.259 193.953 168.316 192.73 189.364L196.704 192.371L200.83 189.221C200.83 189.221 195.634 150.418 193.8 142.973L194.564 141.111L196.398 137.389L192.883 135.67L187.381 136.816H183.561L181.879 139.68Z" fill="white"/>
<path opacity="0.2" d="M181.423 113.479L189.523 122.213C188.911 123.502 188.453 124.934 187.994 126.365C184.632 125.363 180.353 121.211 180.506 117.631C180.506 116.199 180.811 114.911 181.423 113.479Z" fill="black"/>
<path d="M170.266 126.792C170.266 126.792 178.213 131.947 188.605 135.67C188.605 135.67 189.828 131.374 188.605 127.508L197.622 131.66C197.622 131.66 198.386 138.247 196.246 141.54L189.675 136.958L182.186 142.686C182.186 142.686 168.126 137.531 165.987 130.658L170.266 126.792Z" fill="#263238"/>
<path opacity="0.2" d="M216.114 177.623L195.329 193.373C165.375 199.673 152.232 182.062 147.036 170.607C146.578 159.296 146.73 151.134 147.189 145.264C154.372 144.977 163.236 144.977 165.681 146.696C169.96 149.702 184.479 170.894 186.771 172.469C188.911 174.044 216.114 177.623 216.114 177.623Z" fill="black"/>
<path d="M228.033 176.908L239.036 173.185L237.661 186.931C237.661 186.931 227.574 188.076 226.352 183.208L228.033 176.908Z" fill="#B55B52"/>
<path d="M248.054 175.906L246.373 187.217L237.662 186.931L239.037 173.185L248.054 175.906Z" fill="#B55B52"/>
<path d="M164.303 149.132L166.748 153.571C167.665 155.003 168.429 156.578 169.346 158.01C171.18 161.016 173.014 163.88 174.848 166.601C176.835 169.321 178.822 171.898 180.808 173.903C181.878 174.905 182.795 175.764 183.712 176.337C184.018 176.48 184.018 176.48 184.17 176.623C184.17 176.623 184.476 176.767 184.629 176.91C184.782 177.053 185.24 177.053 185.393 177.196L186.31 177.482C189.061 178.055 192.729 178.198 196.244 178.342C199.912 178.342 203.58 178.342 207.247 178.198C214.736 177.912 222.224 177.339 229.713 176.623L231.547 184.498C224.058 186.789 216.57 188.651 208.776 189.939C204.955 190.655 200.981 191.228 196.855 191.514C192.729 191.801 188.602 192.087 183.865 191.658C183.254 191.514 182.642 191.514 182.031 191.371C181.42 191.228 180.808 191.085 180.044 190.942C179.28 190.655 178.669 190.512 177.905 190.226C177.14 189.939 176.223 189.51 175.765 189.223C173.32 187.935 171.333 186.503 169.499 185.071C165.984 182.064 163.233 179.057 160.788 175.907C158.343 172.757 156.05 169.607 154.064 166.314C152.994 164.739 152.077 163.021 151.16 161.303C150.243 159.585 149.326 158.01 148.409 156.148L164.303 149.132Z" fill="#B65B52"/>
<path d="M151.01 132.523C131.295 139.252 156.817 185.214 167.668 190.369C178.366 195.523 196.552 193.375 196.552 193.375L197.775 177.339C197.775 177.339 188.3 176.337 185.549 175.621C181.117 174.618 171.947 156.148 165.987 145.982C160.026 135.816 151.01 132.523 151.01 132.523Z" fill="#263238"/>
<path opacity="0.2" d="M151.01 132.523C131.295 139.252 156.817 185.214 167.668 190.369C178.366 195.523 196.552 193.375 196.552 193.375L197.775 177.339C197.775 177.339 188.3 176.337 185.549 175.621C181.117 174.618 171.947 156.148 165.987 145.982C160.026 135.816 151.01 132.523 151.01 132.523Z" fill="white"/>
<path d="M195.332 176.192L193.651 194.806L199.305 193.804L200.833 177.195L195.332 176.192Z" fill="#263238"/>
<path d="M210.916 92.4335C211.68 96.7289 209.693 105.034 204.039 101.597C198.231 98.0176 209.54 85.1311 210.916 92.4335Z" fill="#263238"/>
<path d="M178.518 94.0093C176.378 104.462 174.392 110.475 178.518 117.062C184.631 126.941 199.608 125.51 205.11 115.773C210 107.039 212.904 91.432 203.123 84.7024C193.648 78.2592 180.657 83.557 178.518 94.0093Z" fill="#B55B52"/>
<path d="M173.169 82.4109L185.854 81.8381L186.159 88.7109C185.854 88.5677 185.701 88.4245 185.395 88.2814C185.395 88.2814 184.631 98.1609 178.518 101.597C170.265 95.87 167.973 86.2768 173.169 82.4109Z" fill="#263238"/>
<path d="M171.794 101.596C171.946 104.46 173.475 107.037 175.309 108.612C178.212 110.903 181.269 108.899 181.88 105.605C182.491 102.599 181.575 97.7304 178.059 96.7281C174.697 95.5826 171.641 98.3031 171.794 101.596Z" fill="#B55B52"/>
<path d="M194.413 100.881C194.107 101.74 194.413 102.456 195.024 102.599C195.635 102.743 196.246 102.17 196.552 101.311C196.858 100.452 196.552 99.7357 195.941 99.5925C195.329 99.4493 194.718 100.022 194.413 100.881Z" fill="#263238"/>
<path d="M204.65 103.173C204.345 104.032 204.65 104.748 205.262 104.891C205.873 105.034 206.484 104.462 206.79 103.602C207.096 102.743 206.79 102.027 206.179 101.884C205.567 101.884 204.803 102.457 204.65 103.173Z" fill="#263238"/>
<path d="M201.288 102.885C201.288 102.885 202.052 108.04 203.733 110.903C201.746 111.906 199.301 110.617 199.301 110.617L201.288 102.885Z" fill="#A02724"/>
<path d="M193.495 112.622C193.8 112.766 194.259 112.909 194.717 112.909C194.87 112.909 195.023 112.909 195.023 112.766C195.023 112.622 195.023 112.479 194.87 112.479C190.897 111.477 189.827 108.47 189.827 108.47C189.827 108.327 189.674 108.327 189.521 108.327C189.368 108.327 189.368 108.47 189.368 108.613C189.216 108.756 190.133 111.334 193.495 112.622Z" fill="#263238"/>
<path d="M192.12 97.0149C192.272 97.0149 192.578 97.0149 192.731 96.8717C194.718 95.4399 196.552 96.0126 196.552 96.0126C196.857 96.1558 197.163 96.0126 197.316 95.7263C197.469 95.4399 197.316 95.1535 197.01 95.1535C196.857 95.1535 194.565 94.4376 192.12 96.1558C191.814 96.299 191.814 96.5854 191.967 96.8717C191.967 97.0149 192.12 97.0149 192.12 97.0149Z" fill="#263238"/>
<path d="M209.847 101.024C210 101.024 210 101.024 210.153 101.024C210.458 101.024 210.611 100.737 210.611 100.451C210 97.7306 207.708 96.8715 207.555 96.7283C207.249 96.5851 206.943 96.7283 206.791 97.0147C206.638 97.301 206.791 97.5874 207.096 97.7306C207.249 97.7306 208.93 98.4465 209.389 100.594C209.541 100.737 209.694 100.881 209.847 101.024Z" fill="#263238"/>
<path d="M181.422 90.8576C181.422 90.8576 181.727 91.144 182.186 91.4303C183.103 92.0031 184.937 92.5758 187.076 91.5735C190.286 90.1417 191.203 81.6939 200.219 85.9894C200.219 85.9894 203.276 85.1303 205.568 87.7076C207.861 90.2849 206.333 100.021 211.223 98.7326C216.114 97.444 215.349 96.0122 215.349 96.0122C215.349 96.0122 213.974 96.8713 213.21 96.1554C213.21 96.1554 215.808 94.1508 214.585 91.2871C214.585 91.2871 213.363 92.5758 212.598 92.2894C212.598 92.2894 214.127 87.4212 211.223 80.6916C208.319 73.962 190.897 75.537 190.897 75.537C190.897 75.537 188.757 72.1006 180.81 74.5348C172.863 76.9689 169.348 85.8462 170.571 89.7121" fill="#263238"/>
<path d="M285.801 185.784L284.731 181.775H238.272L217.029 183.779L216.112 185.784H285.801Z" fill="#263238"/>
<path opacity="0.5" d="M285.801 185.784L284.731 181.775H238.272L217.029 183.779L216.112 185.784H285.801Z" fill="white"/>
<path opacity="0.2" d="M238.272 181.775V185.784H285.801L284.731 181.775H238.272Z" fill="black"/>
<path d="M254.015 162.734C253.863 164.882 255.391 166.6 257.683 166.6H328.748C331.04 166.6 333.027 164.882 333.18 162.734L337.459 120.209C337.459 119.779 337.459 119.35 337.306 118.92C336.848 117.488 335.472 116.343 333.791 116.343H262.727C260.434 116.343 258.447 118.061 258.295 120.209L254.015 162.734Z" fill="#263238"/>
<path opacity="0.5" d="M254.015 162.734C253.863 164.882 255.391 166.6 257.683 166.6H328.748C331.04 166.6 333.027 164.882 333.18 162.734L337.459 120.209C337.459 119.779 337.459 119.35 337.306 118.92C336.848 117.488 335.472 116.343 333.791 116.343H262.727C260.434 116.343 258.447 118.061 258.295 120.209L254.015 162.734Z" fill="white"/>
<path opacity="0.1" d="M257.99 166.599H328.749C331.041 166.599 333.028 164.88 333.181 162.733L337.46 120.207C337.46 119.778 337.46 119.348 337.307 118.919H266.548C264.256 118.919 262.269 120.637 262.116 122.785L257.837 165.31C257.837 165.739 257.837 166.169 257.99 166.599Z" fill="black"/>
<path d="M306.742 140.397H292.071L295.891 179.772L272.662 183.066V185.786H321.566V183.066L311.633 179.772L306.742 140.397Z" fill="#263238"/>
<path opacity="0.5" d="M306.742 140.397H292.071L295.891 179.772L272.662 183.066V185.786H321.566V183.066L311.633 179.772L306.742 140.397Z" fill="white"/>
<path opacity="0.2" d="M292.071 140.397L302.922 185.213L311.633 184.927L306.742 140.397H292.071Z" fill="white"/>
<path d="M170.722 385.38H259.667C260.584 385.38 261.348 384.665 261.348 383.805V378.508C261.348 377.649 260.584 376.933 259.667 376.933H175.307V206.688H258.292C260.126 206.688 261.501 205.4 261.501 203.682V198.097H170.875C168.277 198.097 166.29 199.959 166.29 202.393V381.085C166.137 383.519 168.277 385.38 170.722 385.38Z" fill="#263238"/>
<g opacity="0.4">
<path d="M170.722 385.38H259.667C260.584 385.38 261.348 384.665 261.348 383.805V378.508C261.348 377.649 260.584 376.933 259.667 376.933H175.307V206.688H258.292C260.126 206.688 261.501 205.4 261.501 203.682V198.097H170.875C168.277 198.097 166.29 199.959 166.29 202.393V381.085C166.137 383.519 168.277 385.38 170.722 385.38Z" fill="white"/>
</g>
<path d="M159.419 199.528H393.856C395.537 199.528 396.76 198.239 396.76 196.807V190.078H156.363V196.807C156.363 198.239 157.738 199.528 159.419 199.528Z" fill="#FD973A"/>
<path opacity="0.2" d="M156.5 194.779L396.897 194.779V190.054L156.5 190.054V194.779Z" fill="black"/>
<path d="M151.314 191.225H401.797C403.326 191.225 404.701 190.08 404.701 188.505C404.701 187.073 403.479 185.784 401.797 185.784H151.314C149.786 185.784 148.41 186.93 148.41 188.505C148.563 190.08 149.786 191.225 151.314 191.225Z" fill="#FD973A"/>
</g>
<defs>
<filter id="filter0_d_53_1259" x="100" y="73.6631" width="309.001" height="322.452" filterUnits="userSpaceOnUse" color-interpolation-filters="sRGB">
<feFlood flood-opacity="0" result="BackgroundImageFix"/>
<feColorMatrix in="SourceAlpha" type="matrix" values="0 0 0 0 0 0 0 0 0 0 0 0 0 0 0 0 0 0 127 0" result="hardAlpha"/>
<feOffset dy="4"/>
<feGaussianBlur stdDeviation="2"/>
<feComposite in2="hardAlpha" operator="out"/>
<feColorMatrix type="matrix" values="0 0 0 0 0 0 0 0 0 0 0 0 0 0 0 0 0 0 0.25 0"/>
<feBlend mode="normal" in2="BackgroundImageFix" result="effect1_dropShadow_53_1259"/>
<feBlend mode="normal" in="SourceGraphic" in2="effect1_dropShadow_53_1259" result="shape"/>
</filter>
</defs>
</svg>
