<svg width="146" height="194" viewBox="0 0 146 194" fill="none" xmlns="http://www.w3.org/2000/svg">
<g clip-path="url(#clip0_3360_10086)">
<path d="M75.273 38.2628C75.273 38.2628 79.442 24.0842 84.14 22.4045C87.6959 21.4459 85.1068 12.4542 93.1063 13.3715C99.7554 14.1771 98.9222 15.5978 98.9222 15.5978C98.9222 15.5978 114.046 13.501 118.005 24.0622C119.416 30.98 116.967 30.8355 120.85 33.2012C124.733 35.567 127.915 43.1631 127.164 45.4303C126.414 47.6976 127.599 52.3232 129.127 53.0209C130.656 53.7186 133.758 58.0404 131.391 61.1935C129.025 64.3467 129.697 66.2272 130.443 66.3968C131.19 66.5664 131.596 69.4466 129.595 70.1303C127.593 70.8141 127.097 79.3802 125.375 79.1847C123.653 78.9892 118.849 75.9348 119.997 73.995C121.145 72.0551 116.422 72.2782 115.254 71.5412C114.087 70.8043 111.418 67.1736 109.913 66.713C108.407 66.2523 101.339 56.2409 103.551 51.5212C105.763 46.8016 97.3243 50.0654 99.9706 44.8169C102.617 39.5684 95.2454 53.6771 93.0106 34.6729C90.9483 28.549 86.1764 29.5046 84.6368 34.8879C83.0972 40.2713 83.1604 41.4784 83.1604 41.4784L75.273 38.2628Z" fill="#57B741" stroke="black" stroke-width="1.46155"/>
<path d="M19.7546 134.433C19.7546 134.433 12.8269 138.203 13.9065 146.333C15.2958 152.841 19.737 162.795 25.9822 163.488C30.0607 163.087 33.3918 160.794 33.7805 156.17C33.8414 152.982 32.712 146.26 36.2033 142.734C34.6862 140.637 24.4856 133.031 21.7034 134.241C19.366 134.284 19.7546 134.433 19.7546 134.433Z" fill="url(#paint0_linear_3360_10086)" stroke="black" stroke-width="1.46155"/>
<path d="M14.8835 126.769C15.2515 127.375 21.0754 130.747 21.2396 132.415C21.4961 134.074 24.7859 134.219 24.7859 134.219L29.9718 137.453L36.2005 142.737C36.2005 142.737 41.5536 138.186 42.3333 138.484C43.113 138.781 42.0044 130.373 42.0044 130.373L29.086 136.344C25.8551 137.837 31.7764 134.423 30.2857 130.25C28.4814 126.54 19.1707 115.273 15.2379 123.796C14.9007 125.109 14.5156 126.164 14.8835 126.769Z" fill="#F97D1B" stroke="black" stroke-width="1.46155"/>
<path d="M29.205 100.09C29.205 100.09 25.6552 105.868 30.7095 109.675C35.7639 113.483 43.7027 117.102 43.5857 119.734C43.1916 122.393 41.7434 128.619 42.0036 130.278C42.2637 131.937 41.6028 137.617 43.0006 138.51C43.3138 139.789 41.6475 149.499 43.0247 152.078C43.3835 153.821 37.3477 160.966 41.6925 168.027C41.0026 171.463 40.2916 186.134 43.6898 188.327C46.2174 190.231 62.4328 192.379 71.0258 174.126C71.697 171.439 81.434 168.609 81.4516 157.376C80.711 156.514 89.0416 151.762 85.5257 142.656C86.7046 141.324 89.7053 136.63 88.9383 135.491C88.1713 134.353 73.6024 133.725 85.1802 124.911C88.5644 124.11 93.2611 125.238 93.2611 125.238C93.2611 125.238 93.1153 112.337 97.7027 106.644C99.061 103.329 101.139 102.561 102.153 88.1423C101.001 78.3352 103.067 67.9327 93.5903 60.0651C86.3431 53.9492 85.7227 53.3492 85.7227 53.3492C85.7227 53.3492 67.2762 38.0373 50.7037 44.628C40.2977 49.2081 34.3001 55.7879 33.5815 58.9479C33.1509 61.2365 23.728 65.3459 24.2223 75.1245C23.9038 83.2985 25.3018 95.609 27.3745 97.6513C29.4472 99.6936 29.205 100.09 29.205 100.09Z" fill="url(#paint1_linear_3360_10086)" stroke="black" stroke-width="1.46155"/>
<path d="M24.4694 72.857C27.1689 63.9104 31.2877 56.555 40.1195 62.612C40.8109 64.8842 45.6496 47.468 51.3083 49.8125C55.2548 50.9215 61.9361 57.0027 63.7523 63.095C65.5775 69.2796 71.413 84.2389 67.3822 92.7077C63.3514 101.176 59.9392 107.084 51.4836 102.956C46.0049 97.694 45.2013 96.1801 45.2013 96.1801C45.2013 96.1801 45.5266 107.098 39.7919 105.885C38.7959 105.463 36.9004 105.508 35.449 104.534C31.444 101.854 27.2309 96.6625 26.6689 95.1978C24.5857 89.7721 22.3955 79.7277 24.4694 72.857Z" fill="white" stroke="black" stroke-width="1.46155"/>
<path d="M40.3742 38.5481C40.1706 38.1363 43.6237 23.4691 47.5923 29.4149C51.7031 34.6257 50.7826 36.2286 50.7826 36.2286C50.7174 37.0359 50.7049 37.8468 50.7453 38.6557C50.6545 38.636 58.7723 39.0561 57.4136 33.2919C56.0549 27.5276 49.9393 23.2776 49.6517 20.354C49.3641 17.4304 45.9634 12.8697 42.1331 14.1821C38.1386 15.2947 32.0447 14.0943 29.8324 15.7519C27.62 17.4096 20.3109 22.8806 22.7665 25.1584C25.2222 27.4362 18.7944 30.1569 18.7944 30.1569C18.7944 30.1569 13.8829 34.3851 15.3033 37.8434C16.6168 40.9539 13.6628 46.7876 11.2529 47.1694C9.1771 48.0213 11.1068 58.1249 13.0649 59.7342C15.023 61.3435 15.1624 67.1588 16.2551 66.5475C17.3479 65.9363 21.2144 59.8688 23.2255 59.8148C25.229 59.6911 26.7915 58.7443 28.4979 57.0638C30.2043 55.3832 35.2115 49.9237 34.3593 47.1276C33.507 44.3315 34.3664 42.8069 35.4922 43.2711C36.618 43.7353 40.3742 38.5481 40.3742 38.5481Z" fill="#50B43F" stroke="black" stroke-width="1.46155"/>
<path d="M48.1045 38.1825C47.7344 37.3546 41.3048 32.012 41.9848 39.648C42.9217 42.5796 44.938 43.3176 43.7795 45.4473C42.621 47.5769 43.9414 51.4789 48.9253 46.5247C51.518 43.6056 55.1704 41.9503 56.6084 43.3927C58.0393 44.7638 63.5415 45.8064 63.8086 42.6843C64.0756 39.5622 60.3437 37.4821 64.1698 34.6574C64.3888 31.756 58.6596 29.8714 57.8904 33.7633C57.1212 37.6551 48.4744 39.0096 48.1045 38.1825Z" fill="url(#paint2_linear_3360_10086)" stroke="black" stroke-width="0.730776"/>
<path d="M75.518 37.9983C75.518 37.9983 71.7554 32.6851 69.9732 37.2524C68.5264 41.5707 71.6805 44.3539 69.7837 44.8306C67.8869 45.3073 70.791 47.7553 74.2024 45.8358C77.6138 43.9163 80.9122 54.0307 82.3849 51.4383C83.8577 48.846 87.4751 60.7287 89.2548 53.2099C91.0344 45.691 89.165 42.0571 92.5667 41.5087C95.9684 40.9604 87.3882 38.6346 85.5813 40.7561C83.7744 42.8776 75.518 37.9983 75.518 37.9983Z" fill="url(#paint3_linear_3360_10086)" stroke="black" stroke-width="0.730776"/>
<path d="M76.2992 38.6443C76.2122 38.506 75.0629 45.1018 75.0629 45.1018C75.0629 45.1018 78.4245 47.0746 79.3917 48.8519C80.3589 50.6292 82.9825 41.4431 82.9825 41.4431C82.9825 41.4431 76.3845 38.7798 76.2992 38.6443Z" fill="#C888BE" stroke="black" stroke-opacity="0.29" stroke-width="0.730776"/>
<path d="M48.2395 38.8163C47.8843 38.1316 50.6755 44.5525 50.6755 44.5525C50.6755 44.5525 54.1108 41.4066 56.9502 43.9352C59.3948 44.6302 56.7347 36.6133 56.7347 36.6133C56.7347 36.6133 48.5947 39.501 48.2395 38.8163Z" fill="#C888BE" stroke="black" stroke-opacity="0.29" stroke-width="0.730776"/>
<path d="M103.605 50.1795C103.605 50.1795 113.182 51.619 113.268 46.5952C113.353 41.5715 100.95 39.4068 109.779 39.1652C118.608 38.9236 117.783 33.4881 118.484 30.2851" stroke="black" stroke-width="1.46155"/>
<path d="M110.551 67.0825C110.551 67.0825 121.063 68.5397 121.183 63.2821C121.302 58.0245 107.688 55.8222 117.389 55.5235C127.09 55.2248 126.211 49.5413 126.998 46.1852" stroke="black" stroke-width="1.46155"/>
<path d="M20.8145 29.1953C20.8145 29.1953 23.2102 38.4432 27.7167 36.377C32.2233 34.3108 28.0806 42.5828 30.8764 43.3027C33.6722 44.0226 34.4097 43.9529 34.4097 43.9529" stroke="black" stroke-width="1.46155"/>
<path d="M15.5742 39.0234C15.5742 39.0234 18.2351 48.8216 23.3916 46.5923C28.5481 44.363 23.7568 53.174 26.9421 53.9188C30.1273 54.6635 30.967 54.5808 30.967 54.5808" stroke="black" stroke-width="1.46155"/>
<path d="M100.566 130.186C100.566 130.186 92.9631 123.158 88.5831 124.742C84.8319 124.679 79.6721 129.29 80.7741 130.982C81.426 132.044 82.3329 132.927 83.4125 133.55C84.4921 134.173 85.7097 134.517 86.9558 134.55C88.7372 135.094 91.2757 134.557 92.9286 135.258C94.5815 135.96 102.127 143.136 100.91 146.136C99.6934 149.135 98.1843 154.252 100.276 155.054C102.368 155.856 107.96 157.034 108.374 151.017C108.682 145.372 108.741 144.502 113.43 145.336C117.979 145.465 131.799 142.521 131.56 135.705C130.818 131.818 129.37 132.464 124.703 134.796C120.037 137.128 110.626 138.053 109.373 136.304C108.121 134.556 100.566 130.186 100.566 130.186Z" fill="url(#paint4_linear_3360_10086)" stroke="black" stroke-width="1.46155"/>
<path d="M101.322 130.545C101.322 130.545 94.8962 131.825 94.7074 136.451" stroke="black" stroke-width="1.46155"/>
<g filter="url(#filter0_d_3360_10086)">
<path d="M42.4035 138.679C42.4035 138.679 73.5887 129.663 85.8749 143.327" stroke="black" stroke-width="1.46155"/>
</g>
<g filter="url(#filter1_d_3360_10086)">
<path d="M42.7028 152.981C47.6378 151.508 52.7287 150.617 57.8707 150.327C65.8316 149.89 75.5082 151.151 81.6271 157.956" stroke="black" stroke-width="1.46155"/>
</g>
<g filter="url(#filter2_d_3360_10086)">
<path d="M41.2263 167.817C46.1612 166.344 51.2521 165.453 56.3941 165.163C64.355 164.726 65.2184 167.012 71.3364 173.816" stroke="black" stroke-width="1.46155"/>
</g>
<path d="M35.0198 78.2055C38.2329 77.8894 42.5728 81.5341 43.0076 85.953C43.4424 90.3718 41.0063 96.3009 37.7932 96.617C34.5802 96.9332 29.7715 92.6524 29.3371 88.2372C28.9027 83.822 31.8067 78.5217 35.0198 78.2055Z" fill="#97401A"/>
<path d="M58.9967 90.5317C63.8165 90.0575 67.1952 84.3005 66.5432 77.6732C65.8911 71.0458 61.4553 66.0578 56.6354 66.532C51.8155 67.0062 48.4368 72.7631 49.0888 79.3905C49.7409 86.0178 54.1768 91.0059 58.9967 90.5317Z" fill="#97401A"/>
<path d="M61.1123 85.9211C63.7231 85.6643 65.5832 82.8512 65.2671 79.6379C64.951 76.4247 62.5782 74.028 59.9675 74.2849C57.3567 74.5418 55.4965 77.3549 55.8127 80.5681C56.1288 83.7814 58.5015 86.178 61.1123 85.9211Z" fill="#040211"/>
<path d="M38.6334 92.535C41.0434 92.2979 42.7407 89.5008 42.4246 86.2876C42.1085 83.0743 39.8985 80.6617 37.4886 80.8988C35.0786 81.1359 33.3813 83.933 33.6974 87.1462C34.0136 90.3595 36.2235 92.7721 38.6334 92.535Z" fill="#040211"/>
<path d="M19.3344 68.5209C19.3344 68.5209 21.2799 72.2214 22.8118 71.7072C24.3436 71.193 24.633 71.8511 24.633 71.8511L23.4099 77.7863C23.4099 77.7863 19.3977 77.1844 19.3522 75.0278C19.3067 72.8713 19.3344 68.5209 19.3344 68.5209Z" fill="#090807"/>
<path d="M40.3984 62.582C40.3984 62.582 41.7421 70.9584 42.6827 80.0484C43.3457 86.4663 42.8298 93.5525 45.8934 97.0915" stroke="black" stroke-width="1.46155"/>
<path d="M51.3456 86.8019C53.3539 86.6043 54.7257 83.8393 54.4095 80.626C54.0934 77.4128 52.2091 74.9681 50.2008 75.1657C48.1925 75.3633 46.8207 78.1283 47.1369 81.3416C47.453 84.5548 49.3374 86.9995 51.3456 86.8019Z" fill="white"/>
<path d="M30.1015 94.7667C32.1098 94.5691 33.4815 91.8041 33.1654 88.5909C32.8492 85.3776 30.9649 82.9329 28.9566 83.1305C26.9483 83.3281 25.5766 86.0931 25.8927 89.3064C26.2089 92.5196 28.0932 94.9643 30.1015 94.7667Z" fill="white"/>
<path d="M64.3938 64.0524C64.3938 64.0524 67.7732 61.5549 68.1352 59.7334C68.4972 57.912 69.1559 61.311 69.1559 61.311L68.9514 61.9801C68.9514 61.9801 71.2194 58.0776 71.6716 59.9269C72.1237 61.7762 70.1584 64.35 70.1584 64.35C70.1584 64.35 72.6581 59.5044 73.1757 60.9148C73.6934 62.3251 70.6268 65.819 69.6621 66.4551C68.6974 67.0912 65.9611 68.9838 65.9611 68.9838L64.3938 64.0524Z" fill="black"/>
<path opacity="0.28" d="M82.1574 59.5971C82.1574 59.5971 73.4818 59.8889 79.9145 71.0489C86.3473 82.2089 90.0084 82.3186 91.8437 81.9486C93.6791 81.5786 88.8461 89.5438 92.7375 91.0326C96.6289 92.5215 99.7356 90.8119 99.1087 86.3811C98.4819 81.9503 94.9367 81.0831 96.1332 77.034C97.3297 72.9848 91.367 60.9365 87.8005 59.8841C84.234 58.8318 82.1574 59.5971 82.1574 59.5971Z" fill="#F8B53A"/>
<path d="M79.1704 29.0222C79.1704 29.0222 85.0345 23.6555 88.9299 23.7297C92.8254 23.8039 94.722 26.6255 95.6571 21.4712C96.5921 16.3169 98.9417 15.4471 98.9417 15.4471" stroke="black" stroke-width="1.46155"/>
<path d="M90.7446 31.1401C90.7446 31.1401 96.3648 25.3856 100.142 25.5096C103.92 25.6335 105.787 28.7173 106.635 23.1361C107.484 17.5549 109.749 16.638 109.749 16.638" stroke="black" stroke-width="1.46155"/>
<path d="M23.4967 21.7802C23.4967 21.7802 30.4245 24.0418 31.7282 27.1441C33.0319 30.2465 31.1354 32.9751 36.1394 31.4511C41.1435 29.9271 42.7571 31.3939 42.7571 31.3939" stroke="black" stroke-width="1.46155"/>
<path d="M33.1061 14.9599C33.1061 14.9599 40.0339 17.2215 41.3376 20.3238C42.6413 23.4261 40.7448 26.1548 45.7488 24.6308C50.7528 23.1068 52.3665 24.5736 52.3665 24.5736" stroke="black" stroke-width="1.46155"/>
<path d="M115.244 56.6133C115.244 56.6133 122.237 57.9701 124.124 56.3781" stroke="black" stroke-width="1.46155"/>
<path d="M107.939 40.4453C107.939 40.4453 114.932 41.8021 116.82 40.2102" stroke="black" stroke-width="1.46155"/>
<path d="M20.9414 36.8789C20.9414 36.8789 27.934 38.2357 29.8217 36.6438" stroke="black" stroke-width="1.46155"/>
<path d="M31.4609 20.875C31.4609 20.875 36.2032 18.3494 35.6848 16.2245" stroke="black" stroke-width="1.46155"/>
<path d="M21.3496 52.0234C21.3496 52.0234 26.0919 49.4979 25.5735 47.373" stroke="black" stroke-width="1.46155"/>
<path d="M12.3262 57.3164C12.3262 57.3164 17.0684 54.7908 16.55 52.6659" stroke="black" stroke-width="1.46155"/>
<path d="M15.6953 65.5312C15.6953 65.5312 20.4376 63.0057 19.9192 60.8808" stroke="black" stroke-width="1.46155"/>
<path d="M29.5996 54.0156C29.5996 54.0156 34.3419 51.49 33.8235 49.3651" stroke="black" stroke-width="1.46155"/>
<path d="M107 22.6641C107 22.6641 113.993 24.0208 115.88 22.4289" stroke="black" stroke-width="1.46155"/>
<path d="M111.908 67.957C111.908 67.957 118.901 69.3138 120.789 67.7219" stroke="black" stroke-width="1.46155"/>
<path d="M31.6715 133.421L37.7611 142.955L41.9798 139.61L47.8789 136.085L47.4496 123.595L45.9663 116.645L38.7583 121.517L35.7402 125.76L31.6715 133.421Z" fill="#086036" stroke="white" stroke-width="0.730776"/>
<path d="M39.2457 140.498L37.7987 186.388L56.2303 184.427L46.3473 137.243L39.2457 140.498Z" fill="#086036" stroke="white" stroke-width="0.730776"/>
<path d="M63.836 136.772L60.5478 185.339L73.0745 182.793C73.0745 182.793 78.4649 176.787 79.6212 171.806C80.7775 166.825 85.3415 160.775 85.2497 158.154C85.0605 152.739 89.4659 138.961 89.4659 138.961L80.1006 131.694L63.836 136.772Z" fill="#086036" stroke="white" stroke-width="0.730776"/>
<path d="M64.1388 116.673C64.1388 116.673 84.082 109.044 92.0905 110.166C100.099 111.288 114.736 136.98 106.981 140.796C99.2266 144.611 96.8522 146.522 96.8522 146.522L79.2718 132.097L67.5254 137.814L65.3826 129.315L64.1388 116.673Z" fill="#086036" stroke="white" stroke-width="0.730776"/>
<path d="M42.3821 120.969C42.9592 121.971 52.072 140.053 52.072 140.053L67.9256 117.392C67.9256 117.392 63.253 140.717 65.1139 140.453C62.089 143.502 61.475 144.001 61.475 144.001C61.475 144.001 65.3228 146.044 67.4188 145.65C68.0956 147.951 58.0828 188.102 58.0828 188.102C58.0828 188.102 62.3546 139.725 61.6503 139.107C61.0735 142.071 57.6633 146.443 57.6633 146.443L52.072 140.053L47.6658 147.069L44.6265 138.324C44.6265 138.324 48.9059 174.29 53.5506 187.15C54.0474 189.24 37.098 148.114 37.098 148.114C37.098 148.114 42.4903 147.003 43.2218 145.934C43.9533 144.864 38.8232 143.15 38.6155 142.607C39.9425 141.843 41.0893 140.803 41.9782 139.556C43.5904 137.386 42.3821 120.969 42.3821 120.969Z" fill="#086036"/>
<path d="M52.072 140.053C52.072 140.053 42.9592 121.971 42.3821 120.969C42.3821 120.969 43.5904 137.386 41.9782 139.556C41.0893 140.803 39.9425 141.843 38.6155 142.607C38.8232 143.15 43.9533 144.864 43.2218 145.934C42.4903 147.003 37.098 148.114 37.098 148.114C37.098 148.114 54.0474 189.24 53.5506 187.15C48.9059 174.29 44.6265 138.324 44.6265 138.324L47.6658 147.069L52.072 140.053ZM52.072 140.053L67.9256 117.392C67.9256 117.392 63.253 140.717 65.1139 140.453C62.089 143.502 61.475 144.001 61.475 144.001C61.475 144.001 65.3228 146.044 67.4188 145.65C68.0956 147.951 58.0828 188.102 58.0828 188.102C58.0828 188.102 62.3546 139.725 61.6503 139.107C61.0735 142.071 57.6633 146.443 57.6633 146.443L52.072 140.053Z" stroke="white" stroke-width="0.730881"/>
<path d="M49.7535 139.827L51.8985 137.747L54.4255 139.758L53.6267 142.238L50.6293 142.481L49.7535 139.827Z" fill="black" stroke="white" stroke-width="0.730881"/>
<path d="M50.944 142.807L53.5086 142.599C53.5086 142.599 57.9365 158.853 57.5753 161.97C57.2141 165.088 56.1418 185.467 55.6989 186.495C53.5632 176.816 49.7459 162.68 49.63 160.153C49.5382 157.625 50.944 142.807 50.944 142.807Z" fill="black" stroke="white" stroke-width="0.730881"/>
<path d="M38.6589 113.39C38.6589 113.39 51.7322 115.942 60.8056 110.183C66.116 106.545 71.0062 102.329 75.3864 97.6117C75.3864 97.6117 76.5773 94.4993 78.816 97.2743C81.0548 100.049 85.0628 101.807 77.7749 99.0612C73.75 100.955 71.6538 113.89 69.6019 115.873C68.5685 118.692 58.2752 140.573 48.1061 129.5C44.7262 121.784 48.1459 121.353 44.1575 117.909C40.6118 115.165 38.6589 113.39 38.6589 113.39Z" fill="white" stroke="black" stroke-width="0.730776"/>
</g>
<defs>
<filter id="filter0_d_3360_10086" x="39.2781" y="135.031" width="50.063" height="14.6314" filterUnits="userSpaceOnUse" color-interpolation-filters="sRGB">
<feFlood flood-opacity="0" result="BackgroundImageFix"/>
<feColorMatrix in="SourceAlpha" type="matrix" values="0 0 0 0 0 0 0 0 0 0 0 0 0 0 0 0 0 0 127 0" result="hardAlpha"/>
<feOffset dy="2.9231"/>
<feGaussianBlur stdDeviation="1.46155"/>
<feColorMatrix type="matrix" values="0 0 0 0 0 0 0 0 0 0 0 0 0 0 0 0 0 0 0.161 0"/>
<feBlend mode="normal" in2="BackgroundImageFix" result="effect1_dropShadow_3360_10086"/>
<feBlend mode="normal" in="SourceGraphic" in2="effect1_dropShadow_3360_10086" result="shape"/>
</filter>
<filter id="filter1_d_3360_10086" x="39.571" y="149.52" width="45.522" height="14.772" filterUnits="userSpaceOnUse" color-interpolation-filters="sRGB">
<feFlood flood-opacity="0" result="BackgroundImageFix"/>
<feColorMatrix in="SourceAlpha" type="matrix" values="0 0 0 0 0 0 0 0 0 0 0 0 0 0 0 0 0 0 127 0" result="hardAlpha"/>
<feOffset dy="2.9231"/>
<feGaussianBlur stdDeviation="1.46155"/>
<feColorMatrix type="matrix" values="0 0 0 0 0 0 0 0 0 0 0 0 0 0 0 0 0 0 0.161 0"/>
<feBlend mode="normal" in2="BackgroundImageFix" result="effect1_dropShadow_3360_10086"/>
<feBlend mode="normal" in="SourceGraphic" in2="effect1_dropShadow_3360_10086" result="shape"/>
</filter>
<filter id="filter2_d_3360_10086" x="38.0945" y="164.379" width="36.7075" height="15.772" filterUnits="userSpaceOnUse" color-interpolation-filters="sRGB">
<feFlood flood-opacity="0" result="BackgroundImageFix"/>
<feColorMatrix in="SourceAlpha" type="matrix" values="0 0 0 0 0 0 0 0 0 0 0 0 0 0 0 0 0 0 127 0" result="hardAlpha"/>
<feOffset dy="2.9231"/>
<feGaussianBlur stdDeviation="1.46155"/>
<feColorMatrix type="matrix" values="0 0 0 0 0 0 0 0 0 0 0 0 0 0 0 0 0 0 0.161 0"/>
<feBlend mode="normal" in2="BackgroundImageFix" result="effect1_dropShadow_3360_10086"/>
<feBlend mode="normal" in="SourceGraphic" in2="effect1_dropShadow_3360_10086" result="shape"/>
</filter>
<linearGradient id="paint0_linear_3360_10086" x1="22.2311" y1="144.43" x2="37.4382" y2="147.252" gradientUnits="userSpaceOnUse">
<stop stop-color="#F37422"/>
<stop offset="1" stop-color="#E43922"/>
</linearGradient>
<linearGradient id="paint1_linear_3360_10086" x1="73.3287" y1="108.863" x2="97.3247" y2="109.657" gradientUnits="userSpaceOnUse">
<stop stop-color="#F38620"/>
<stop offset="1" stop-color="#E5412C"/>
</linearGradient>
<linearGradient id="paint2_linear_3360_10086" x1="47.0745" y1="42.4479" x2="61.4141" y2="42.9383" gradientUnits="userSpaceOnUse">
<stop stop-color="#C87AC1"/>
<stop offset="0.446" stop-color="#C278BA"/>
<stop offset="1" stop-color="#BB75B2"/>
</linearGradient>
<linearGradient id="paint3_linear_3360_10086" x1="74.0181" y1="43.532" x2="86.5269" y2="50.3069" gradientUnits="userSpaceOnUse">
<stop stop-color="#C87AC1"/>
<stop offset="0.262" stop-color="#EAB7DC"/>
<stop offset="1" stop-color="#BB75B2"/>
</linearGradient>
<linearGradient id="paint4_linear_3360_10086" x1="108.858" y1="129.446" x2="117.863" y2="147.283" gradientUnits="userSpaceOnUse">
<stop stop-color="#EF8A23"/>
<stop offset="1" stop-color="#F03B1E"/>
</linearGradient>
<clipPath id="clip0_3360_10086">
<rect width="127.887" height="181.863" fill="white" transform="translate(0 12.5234) rotate(-5.61913)"/>
</clipPath>
</defs>
</svg>
