<svg width="85" height="18" viewBox="0 0 85 18" fill="none" xmlns="http://www.w3.org/2000/svg">
<path d="M0.924292 3.0454C0.346936 2.4513 0.360507 1.50165 0.954604 0.924293C1.5487 0.346936 2.49835 0.360507 3.07571 0.954604L0.924292 3.0454ZM80.729 0.524674C81.5439 0.375034 82.3257 0.914253 82.4753 1.72905L84.9138 15.007C85.0635 15.8218 84.5243 16.6036 83.7095 16.7533C82.8947 16.9029 82.1128 16.3637 81.9632 15.5489L79.7956 3.74627L67.993 5.91385C67.1782 6.06349 66.3964 5.52427 66.2467 4.70947C66.0971 3.89467 66.6363 3.11284 67.4511 2.9632L80.729 0.524674ZM5.74063 3.19982C6.40228 3.69833 6.53453 4.63882 6.03602 5.30047C5.5375 5.96212 4.59701 6.09437 3.93536 5.59585L5.74063 3.19982ZM10.4228 9.71797C9.69322 9.32551 9.41995 8.41592 9.81242 7.68636C10.2049 6.9568 11.1145 6.68352 11.844 7.07599L10.4228 9.71797ZM18.4476 10.0956C19.221 10.3925 19.6072 11.2602 19.3102 12.0336C19.0132 12.807 18.1456 13.1932 17.3722 12.8962L18.4476 10.0956ZM24.6401 15.2084C23.8376 15.0027 23.3538 14.1854 23.5596 13.3829C23.7653 12.5804 24.5826 12.0967 25.385 12.3024L24.6401 15.2084ZM32.533 13.7278C33.3528 13.8469 33.9209 14.608 33.8019 15.4278C33.6828 16.2476 32.9217 16.8157 32.1019 16.6967L32.533 13.7278ZM39.6686 17.4131C38.8411 17.375 38.2011 16.6733 38.2392 15.8457C38.2773 15.0182 38.9791 14.3782 39.8066 14.4163L39.6686 17.4131ZM46.8647 14.4277C47.6924 14.3919 48.3924 15.0338 48.4282 15.8615C48.464 16.6891 47.822 17.3891 46.9944 17.4249L46.8647 14.4277ZM53.9949 16.789C53.1747 16.905 52.4157 16.3341 52.2996 15.5139C52.1836 14.6936 52.7545 13.9346 53.5747 13.8186L53.9949 16.789ZM60.1573 12.5102C60.9589 12.3011 61.7782 12.7815 61.9873 13.5831C62.1963 14.3847 61.716 15.204 60.9143 15.4131L60.1573 12.5102ZM67.638 13.1785C66.8718 13.4937 65.9953 13.1281 65.6801 12.362C65.365 11.5958 65.7306 10.7193 66.4967 10.4041L67.638 13.1785ZM72.4225 7.40838C73.1283 6.97464 74.0521 7.1952 74.4858 7.901C74.9196 8.60681 74.699 9.53059 73.9932 9.96433L72.4225 7.40838ZM79.7198 5.62951C79.117 6.19773 78.1676 6.16968 77.5994 5.56684C77.0312 4.96401 77.0592 4.01468 77.6621 3.44645L79.7198 5.62951ZM2 2C3.07571 0.954604 3.07557 0.954467 3.07544 0.954332C3.0754 0.954292 3.07528 0.954163 3.0752 0.954082C3.07505 0.953923 3.0749 0.953779 3.07478 0.953649C3.07453 0.953389 3.07433 0.953189 3.07419 0.953046C3.07391 0.952762 3.07386 0.95271 3.07404 0.952891C3.07439 0.953254 3.07566 0.954543 3.07784 0.956746C3.08219 0.961151 3.09019 0.969205 3.10184 0.980785C3.12513 1.00395 3.163 1.0412 3.21549 1.09158C3.32045 1.19232 3.48381 1.34548 3.70573 1.54316C4.14961 1.93856 4.82745 2.51179 5.74063 3.19982L3.93536 5.59585C2.95254 4.85536 2.21139 4.22967 1.71027 3.78328C1.45969 3.56007 1.26905 3.38162 1.13814 3.25598C1.07268 3.19315 1.02215 3.14353 0.986524 3.1081C0.968708 3.09038 0.954617 3.07622 0.944246 3.06572C0.939061 3.06048 0.934806 3.05615 0.93148 3.05276C0.929818 3.05106 0.928387 3.0496 0.927189 3.04837C0.92659 3.04776 0.926049 3.0472 0.925567 3.04671C0.925325 3.04646 0.925098 3.04623 0.924886 3.04601C0.92478 3.0459 0.924631 3.04574 0.924578 3.04569C0.924433 3.04554 0.924292 3.0454 2 2ZM11.844 7.07599C13.7363 8.09394 15.9367 9.13146 18.4476 10.0956L17.3722 12.8962C14.7364 11.8841 12.4207 10.7927 10.4228 9.71797L11.844 7.07599ZM25.385 12.3024C27.5998 12.8701 29.9821 13.3574 32.533 13.7278L32.1019 16.6967C29.4433 16.3106 26.9563 15.8021 24.6401 15.2084L25.385 12.3024ZM39.8066 14.4163C40.9996 14.4712 42.2223 14.5 43.475 14.5L43.475 17.5C42.1763 17.5 40.9076 17.4701 39.6686 17.4131L39.8066 14.4163ZM43.475 14.5C44.6378 14.5 45.7675 14.4752 46.8647 14.4277L46.9944 17.4249C45.8535 17.4743 44.6805 17.5 43.475 17.5L43.475 14.5ZM53.5747 13.8186C55.9553 13.4818 58.146 13.0347 60.1573 12.5102L60.9143 15.4131C58.7909 15.9668 56.4877 16.4364 53.9949 16.789L53.5747 13.8186ZM66.4967 10.4041C68.8026 9.45558 70.7679 8.42518 72.4225 7.40838L73.9932 9.96433C72.2055 11.0629 70.0968 12.1671 67.638 13.1785L66.4967 10.4041ZM77.6621 3.44645C78.4167 2.7351 78.9554 2.14191 79.2991 1.73576C79.4709 1.53269 79.5939 1.37645 79.6707 1.27564C79.7092 1.22524 79.736 1.18872 79.7517 1.16714C79.7595 1.15635 79.7645 1.14931 79.7667 1.14613C79.7679 1.14455 79.7683 1.14393 79.768 1.1443C79.7679 1.14448 79.7676 1.14491 79.7671 1.14559C79.7669 1.14593 79.7666 1.14633 79.7663 1.1468C79.7661 1.14703 79.766 1.14728 79.7658 1.14754C79.7657 1.14767 79.7655 1.14788 79.7655 1.14795C79.7653 1.14816 79.7652 1.14838 81 2C82.2348 2.85162 82.2346 2.85185 82.2345 2.85208C82.2344 2.85216 82.2343 2.85239 82.2342 2.85256C82.2339 2.85288 82.2337 2.85322 82.2334 2.85358C82.233 2.8543 82.2324 2.85508 82.2318 2.85592C82.2307 2.8576 82.2293 2.85954 82.2278 2.86172C82.2247 2.86609 82.221 2.87146 82.2165 2.87781C82.2075 2.8905 82.1957 2.90712 82.1809 2.92752C82.1513 2.96832 82.11 3.02426 82.0567 3.09422C81.95 3.23415 81.7952 3.43023 81.5893 3.67355C81.1775 4.16016 80.5617 4.83596 79.7198 5.62951L77.6621 3.44645Z" fill="url(#paint0_linear_1708_16064)"/>
<defs>
<linearGradient id="paint0_linear_1708_16064" x1="81" y1="10.4583" x2="54.5626" y2="-28.702" gradientUnits="userSpaceOnUse">
<stop stop-color="#E43F0F"/>
<stop offset="1" stop-color="#FD973A"/>
</linearGradient>
</defs>
</svg>
