<svg width="85" height="18" viewBox="0 0 85 18" fill="none" xmlns="http://www.w3.org/2000/svg">
<path d="M0.924292 14.9546C0.346936 15.5487 0.360507 16.4984 0.954604 17.0757C1.5487 17.6531 2.49835 17.6395 3.07571 17.0454L0.924292 14.9546ZM80.729 17.4753C81.5439 17.625 82.3257 17.0857 82.4753 16.2709L84.9138 2.99301C85.0635 2.17821 84.5243 1.39638 83.7095 1.24674C82.8947 1.0971 82.1128 1.63632 81.9632 2.45112L79.7956 14.2537L67.993 12.0861C67.1782 11.9365 66.3964 12.4757 66.2467 13.2905C66.0971 14.1053 66.6363 14.8872 67.4511 15.0368L80.729 17.4753ZM5.74063 14.8002C6.40228 14.3017 6.53453 13.3612 6.03602 12.6995C5.5375 12.0379 4.59701 11.9056 3.93536 12.4041L5.74063 14.8002ZM10.4228 8.28203C9.69322 8.67449 9.41995 9.58408 9.81242 10.3136C10.2049 11.0432 11.1145 11.3165 11.844 10.924L10.4228 8.28203ZM18.4476 7.90442C19.221 7.60746 19.6072 6.73978 19.3102 5.96641C19.0132 5.19304 18.1456 4.80683 17.3722 5.10379L18.4476 7.90442ZM24.6401 2.7916C23.8376 2.9973 23.3538 3.8146 23.5596 4.61708C23.7653 5.41956 24.5826 5.90335 25.385 5.69764L24.6401 2.7916ZM32.533 4.2722C33.3528 4.15315 33.9209 3.39204 33.8019 2.57221C33.6828 1.75238 32.9217 1.18429 32.1019 1.30334L32.533 4.2722ZM39.6686 0.58689C38.8411 0.624987 38.2011 1.32673 38.2392 2.15428C38.2773 2.98183 38.9791 3.62181 39.8066 3.58372L39.6686 0.58689ZM46.8647 3.57229C47.6924 3.60809 48.3924 2.96616 48.4282 2.13851C48.464 1.31086 47.822 0.610889 46.9944 0.575088L46.8647 3.57229ZM53.9949 1.21101C53.1747 1.09497 52.4157 1.66586 52.2996 2.48612C52.1836 3.30638 52.7545 4.0654 53.5747 4.18144L53.9949 1.21101ZM60.1573 5.48983C60.9589 5.69888 61.7782 5.21851 61.9873 4.41689C62.1963 3.61527 61.716 2.79597 60.9143 2.58692L60.1573 5.48983ZM67.638 4.82146C66.8718 4.50631 65.9953 4.8719 65.6801 5.63804C65.365 6.40419 65.7306 7.28075 66.4967 7.5959L67.638 4.82146ZM72.4225 10.5916C73.1283 11.0254 74.0521 10.8048 74.4858 10.099C74.9196 9.39319 74.699 8.46941 73.9932 8.03567L72.4225 10.5916ZM79.7198 12.3705C79.117 11.8023 78.1676 11.8303 77.5994 12.4332C77.0312 13.036 77.0592 13.9853 77.6621 14.5536L79.7198 12.3705ZM2 16C3.07571 17.0454 3.07557 17.0455 3.07544 17.0457C3.0754 17.0457 3.07528 17.0458 3.0752 17.0459C3.07505 17.0461 3.0749 17.0462 3.07478 17.0464C3.07453 17.0466 3.07433 17.0468 3.07419 17.047C3.07391 17.0472 3.07386 17.0473 3.07404 17.0471C3.07439 17.0467 3.07566 17.0455 3.07784 17.0433C3.08219 17.0388 3.09019 17.0308 3.10184 17.0192C3.12513 16.9961 3.163 16.9588 3.21549 16.9084C3.32045 16.8077 3.48381 16.6545 3.70573 16.4568C4.14961 16.0614 4.82745 15.4882 5.74063 14.8002L3.93536 12.4041C2.95254 13.1446 2.21139 13.7703 1.71027 14.2167C1.45969 14.4399 1.26905 14.6184 1.13814 14.744C1.07268 14.8068 1.02215 14.8565 0.986524 14.8919C0.968708 14.9096 0.954617 14.9238 0.944246 14.9343C0.939061 14.9395 0.934806 14.9438 0.93148 14.9472C0.929818 14.9489 0.928387 14.9504 0.927189 14.9516C0.92659 14.9522 0.926049 14.9528 0.925567 14.9533C0.925325 14.9535 0.925098 14.9538 0.924886 14.954C0.92478 14.9541 0.924631 14.9543 0.924578 14.9543C0.924433 14.9545 0.924292 14.9546 2 16ZM11.844 10.924C13.7363 9.90606 15.9367 8.86854 18.4476 7.90442L17.3722 5.10379C14.7364 6.11589 12.4207 7.20728 10.4228 8.28203L11.844 10.924ZM25.385 5.69764C27.5998 5.12994 29.9821 4.64263 32.533 4.2722L32.1019 1.30334C29.4433 1.6894 26.9563 2.19789 24.6401 2.7916L25.385 5.69764ZM39.8066 3.58372C40.9996 3.5288 42.2223 3.5 43.475 3.5L43.475 0.5C42.1763 0.499997 40.9076 0.529856 39.6686 0.58689L39.8066 3.58372ZM43.475 3.5C44.6378 3.5 45.7675 3.52482 46.8647 3.57229L46.9944 0.575088C45.8535 0.525736 44.6805 0.500002 43.475 0.5L43.475 3.5ZM53.5747 4.18144C55.9553 4.51819 58.146 4.96532 60.1573 5.48983L60.9143 2.58692C58.7909 2.03316 56.4877 1.56363 53.9949 1.21101L53.5747 4.18144ZM66.4967 7.5959C68.8026 8.54442 70.7679 9.57482 72.4225 10.5916L73.9932 8.03567C72.2055 6.93706 70.0968 5.83291 67.638 4.82146L66.4967 7.5959ZM77.6621 14.5536C78.4167 15.2649 78.9554 15.8581 79.2991 16.2642C79.4709 16.4673 79.5939 16.6236 79.6707 16.7244C79.7092 16.7748 79.736 16.8113 79.7517 16.8329C79.7595 16.8436 79.7645 16.8507 79.7667 16.8539C79.7679 16.8555 79.7683 16.8561 79.768 16.8557C79.7679 16.8555 79.7676 16.8551 79.7671 16.8544C79.7669 16.8541 79.7666 16.8537 79.7663 16.8532C79.7661 16.853 79.766 16.8527 79.7658 16.8525C79.7657 16.8523 79.7655 16.8521 79.7655 16.8521C79.7653 16.8518 79.7652 16.8516 81 16C82.2348 15.1484 82.2346 15.1482 82.2345 15.1479C82.2344 15.1478 82.2343 15.1476 82.2342 15.1474C82.2339 15.1471 82.2337 15.1468 82.2334 15.1464C82.233 15.1457 82.2324 15.1449 82.2318 15.1441C82.2307 15.1424 82.2293 15.1405 82.2278 15.1383C82.2247 15.1339 82.221 15.1285 82.2165 15.1222C82.2075 15.1095 82.1957 15.0929 82.1809 15.0725C82.1513 15.0317 82.11 14.9757 82.0567 14.9058C81.95 14.7658 81.7952 14.5698 81.5893 14.3265C81.1775 13.8398 80.5617 13.164 79.7198 12.3705L77.6621 14.5536Z" fill="url(#paint0_linear_1708_16063)"/>
<defs>
<linearGradient id="paint0_linear_1708_16063" x1="81" y1="7.54167" x2="54.5626" y2="46.702" gradientUnits="userSpaceOnUse">
<stop stop-color="#E43F0F"/>
<stop offset="1" stop-color="#FD973A"/>
</linearGradient>
</defs>
</svg>
