<svg width="24" height="24" viewBox="0 0 24 24" fill="none" xmlns="http://www.w3.org/2000/svg">
<path d="M2 9L5 9L5 21L2 21C1.73478 21 1.48043 20.8946 1.29289 20.7071C1.10535 20.5196 0.999998 20.2652 0.999998 20L0.999997 10C0.999997 9.73479 1.10535 9.48043 1.29289 9.2929C1.48043 9.10536 1.73478 9 2 9ZM7.293 7.707L13.693 1.307C13.7781 1.22169 13.8911 1.16997 14.0112 1.16133C14.1314 1.1527 14.2506 1.18774 14.347 1.26L15.2 1.9C15.4369 2.07785 15.6158 2.32185 15.7143 2.60126C15.8127 2.88066 15.8261 3.18295 15.753 3.47L14.6 8L21 8C21.5304 8 22.0391 8.21071 22.4142 8.58579C22.7893 8.96086 23 9.46957 23 10L23 12.104C23.0003 12.3654 22.9493 12.6242 22.85 12.866L19.754 20.38C19.6787 20.5632 19.5507 20.72 19.3862 20.8304C19.2217 20.9408 19.0281 20.9998 18.83 21L8 21C7.73478 21 7.48043 20.8946 7.29289 20.7071C7.10536 20.5196 7 20.2652 7 20L7 8.414C7.00005 8.14881 7.10545 7.89449 7.293 7.707Z" fill="#626262"/>
</svg>
