<svg width="51" height="51" viewBox="0 0 51 51" fill="none" xmlns="http://www.w3.org/2000/svg">
<circle cx="25.5" cy="25.5" r="25.5" fill="#F37335"/>
<path d="M29.3333 32.5832C28.7375 32.5832 28.2276 32.3712 27.8037 31.9473C27.3797 31.5233 27.1674 31.0131 27.1667 30.4165V19.5832C27.1667 18.9873 27.379 18.4774 27.8037 18.0535C28.2283 17.6296 28.7382 17.4172 29.3333 17.4165C29.9292 17.4165 30.4394 17.6288 30.8641 18.0535C31.2888 18.4782 31.5007 18.9881 31.5 19.5832V30.4165C31.5 31.0123 31.288 31.5226 30.8641 31.9473C30.4401 32.3719 29.9299 32.5839 29.3333 32.5832ZM20.6667 32.5832C20.0708 32.5832 19.5609 32.3712 19.137 31.9473C18.7131 31.5233 18.5007 31.0131 18.5 30.4165V19.5832C18.5 18.9873 18.7123 18.4774 19.137 18.0535C19.5617 17.6296 20.0716 17.4172 20.6667 17.4165C21.2625 17.4165 21.7728 17.6288 22.1974 18.0535C22.6221 18.4782 22.8341 18.9881 22.8333 19.5832V30.4165C22.8333 31.0123 22.6214 31.5226 22.1974 31.9473C21.7735 32.3719 21.2632 32.5839 20.6667 32.5832Z" fill="white"/>
</svg>
