<svg width="1280" height="793" viewBox="0 0 1280 793" fill="none" xmlns="http://www.w3.org/2000/svg">
<g clip-path="url(#clip0_558_3167)">
<mask id="mask0_558_3167" style="mask-type:luminance" maskUnits="userSpaceOnUse" x="0" y="-102" width="1280" height="1236">
<path d="M1280 -102H0V1134H1280V-102Z" fill="white"/>
</mask>
<g mask="url(#mask0_558_3167)">
<path d="M1280 -102H0V1134H1280V-102Z" fill="white"/>
<path opacity="0.1" d="M656.5 137C1075.96 137 1416 -100.289 1416 -393C1416 -685.711 1075.96 -923 656.5 -923C237.04 -923 -103 -685.711 -103 -393C-103 -100.289 237.04 137 656.5 137Z" fill="url(#paint0_linear_558_3167)"/>
<path opacity="0.2" d="M-19.5 -285C-451.663 -285 -802 53.025 -802 470C-802 886.975 -451.663 1225 -19.5 1225C412.663 1225 763 886.975 763 470C763 53.025 412.663 -285 -19.5 -285Z" fill="url(#paint1_radial_558_3167)"/>
<path opacity="0.2" d="M1347.5 -91C915.337 -91 565 247.025 565 664C565 1080.97 915.337 1419 1347.5 1419C1779.66 1419 2130 1080.97 2130 664C2130 247.025 1779.66 -91 1347.5 -91Z" fill="url(#paint2_radial_558_3167)"/>
<g filter="url(#filter0_d_558_3167)">
</g>
<path opacity="0.1" fill-rule="evenodd" clip-rule="evenodd" d="M1281 813.601L1227.62 807.306C1174.25 801.011 1067.5 788.421 960.75 794.716C854 801.011 747.25 826.192 640.5 838.782C533.75 851.373 427 851.373 320.25 845.077C213.5 838.782 106.75 826.192 53.375 819.897L0 813.601V1078H53.375C106.75 1078 213.5 1078 320.25 1078C427 1078 533.75 1078 640.5 1078C747.25 1078 854 1078 960.75 1078C1067.5 1078 1174.25 1078 1227.62 1078H1281V813.601Z" fill="url(#paint3_linear_558_3167)"/>
</g>
</g>
<defs>
<filter id="filter0_d_558_3167" x="-8" y="-106" width="1296" height="118" filterUnits="userSpaceOnUse" color-interpolation-filters="sRGB">
<feFlood flood-opacity="0" result="BackgroundImageFix"/>
<feColorMatrix in="SourceAlpha" type="matrix" values="0 0 0 0 0 0 0 0 0 0 0 0 0 0 0 0 0 0 127 0" result="hardAlpha"/>
<feOffset dy="4"/>
<feGaussianBlur stdDeviation="4"/>
<feComposite in2="hardAlpha" operator="out"/>
<feColorMatrix type="matrix" values="0 0 0 0 0 0 0 0 0 0 0 0 0 0 0 0 0 0 0.2 0"/>
<feBlend mode="normal" in2="BackgroundImageFix" result="effect1_dropShadow_558_3167"/>
<feBlend mode="normal" in="SourceGraphic" in2="effect1_dropShadow_558_3167" result="shape"/>
</filter>
<linearGradient id="paint0_linear_558_3167" x1="-103" y1="-464.793" x2="1416.87" y2="-475.404" gradientUnits="userSpaceOnUse">
<stop stop-color="#28C54E"/>
<stop offset="1" stop-color="#A1F68B"/>
</linearGradient>
<radialGradient id="paint1_radial_558_3167" cx="0" cy="0" r="1" gradientUnits="userSpaceOnUse" gradientTransform="translate(-19.5 470) rotate(-90) scale(755 782.5)">
<stop stop-color="#90F083"/>
<stop offset="0.602083" stop-color="#EBFAEE" stop-opacity="0"/>
</radialGradient>
<radialGradient id="paint2_radial_558_3167" cx="0" cy="0" r="1" gradientUnits="userSpaceOnUse" gradientTransform="translate(1347.5 664) rotate(-90) scale(755 782.5)">
<stop stop-color="#90F083"/>
<stop offset="0.602083" stop-color="#EBFAEE" stop-opacity="0"/>
</radialGradient>
<linearGradient id="paint3_linear_558_3167" x1="1281" y1="916.2" x2="-0.181381" y2="888.142" gradientUnits="userSpaceOnUse">
<stop stop-color="#28C54E"/>
<stop offset="1" stop-color="#A1F68B"/>
</linearGradient>
<clipPath id="clip0_558_3167">
<rect width="1280" height="793" fill="white"/>
</clipPath>
</defs>
</svg>
