<svg width="133" height="190" viewBox="0 0 133 190" fill="none" xmlns="http://www.w3.org/2000/svg">
<g clip-path="url(#clip0_3360_10024)">
<path d="M13.5664 74.5L17.6028 74.7144" stroke="black" stroke-width="4.55995"/>
<path d="M75.2871 34.2994C75.2871 34.2994 81.0457 20.0494 86.0791 18.7893C89.8571 18.1593 88.093 8.58939 96.2789 10.3533C103.079 11.8642 102.072 13.2497 102.072 13.2497C102.072 13.2497 117.938 12.6196 120.96 23.9534C121.715 31.2569 119.196 30.858 122.974 33.7019C126.752 36.5458 129.272 44.7317 128.264 47.0018C127.256 49.2719 128.012 54.18 129.523 55.0577C131.033 55.9355 133.804 60.7243 131.034 63.7468C128.263 66.7693 128.767 68.784 129.523 69.0356C130.278 69.2871 130.405 72.3094 128.264 72.8133C126.123 73.3171 124.737 82.1324 122.974 81.7547C121.212 81.377 116.552 77.7267 117.937 75.8358C119.323 73.9449 114.412 73.6949 113.279 72.8133C112.145 71.9317 109.752 67.9022 108.241 67.2722C106.73 66.6421 100.434 55.5607 103.204 50.9012C105.974 46.2417 96.908 48.7604 100.181 43.5978C103.455 38.4351 94.3885 52.2867 94.0108 32.3901C92.4999 25.842 87.4638 26.3451 85.3221 31.76C83.1805 37.1749 83.123 38.4307 83.123 38.4307L75.2871 34.2994Z" fill="#57B741" stroke="black" stroke-width="1.51998"/>
<path d="M8.03428 128.18C8.03428 128.18 0.480279 131.377 0.769835 139.901C1.54503 146.778 5.12799 157.532 11.521 158.886C15.7831 158.886 19.4642 156.852 20.3374 152.105C20.725 148.812 20.2406 141.74 24.213 138.447C22.8565 136.122 13.0735 127.21 10.0708 128.179C7.64721 127.986 8.03428 128.18 8.03428 128.18Z" fill="url(#paint0_linear_3360_10024)" stroke="black" stroke-width="1.51998"/>
<path d="M3.77177 119.754C4.09096 120.419 9.77525 124.501 9.77525 126.245C9.87177 127.988 13.262 128.473 13.262 128.473L18.2999 132.349L24.2084 138.452C24.2084 138.452 30.2122 134.287 30.989 134.674C31.7657 135.061 31.4743 126.246 31.4743 126.246L17.4961 131.11C14.0002 132.326 20.4762 129.396 19.3583 124.925C17.8687 120.902 9.37963 108.292 4.44121 116.714C3.95862 118.038 3.45257 119.091 3.77177 119.754Z" fill="#F97D1B" stroke="black" stroke-width="1.51998"/>
<path d="M21.3123 93.6033C21.3123 93.6033 17.05 99.2211 21.8934 103.677C26.7369 108.133 34.5849 112.686 34.1958 115.399C33.5171 118.11 31.3843 124.407 31.4846 126.15C31.5849 127.894 30.3225 133.705 31.6783 134.771C31.8721 136.128 29.1588 146.008 30.3216 148.817C30.5154 150.657 23.5409 157.438 27.3188 165.188C26.2548 168.674 24.025 183.786 27.3188 186.401C29.7409 188.63 46.3048 192.504 57.0571 174.487C58.0254 171.775 68.3912 169.837 69.5532 158.213C68.8745 157.245 77.9804 153.176 75.2687 143.394C76.6246 142.134 80.2082 137.582 79.5303 136.325C78.8524 135.069 63.8379 132.935 76.7182 124.992C80.3023 124.508 85.0484 126.154 85.0484 126.154C85.0484 126.154 86.2112 112.786 91.5388 107.361C93.2822 104.068 95.5113 103.485 98.0291 88.6656C97.8353 78.3981 101.032 67.842 92.0257 58.7343C85.1477 51.6663 84.5667 50.9822 84.5667 50.9822C84.5667 50.9822 67.0341 33.2563 49.2108 38.39C37.9744 42.0707 31.0969 48.2699 30.0314 51.4672C29.3528 53.792 19.1817 57.0857 18.6976 67.2567C17.5356 75.6843 17.7289 88.5677 19.6662 90.8925C21.6034 93.2173 21.3123 93.6033 21.3123 93.6033Z" fill="url(#paint1_linear_3360_10024)" stroke="black" stroke-width="1.51998"/>
<path d="M19.1858 64.9296C22.8907 55.9449 27.9025 48.7516 36.4266 55.9199C36.9107 58.342 43.6922 40.8092 49.3101 43.812C53.2818 45.3616 59.5775 52.3359 60.8368 58.8263C62.0961 65.4131 66.6125 81.4899 61.5783 89.8445C56.5441 98.1991 52.4109 103.966 44.0799 98.8323C38.9454 92.8284 38.2679 91.1797 38.2679 91.1797C38.2679 91.1797 37.4927 102.513 31.6811 100.673C30.6931 100.136 28.7267 99.989 27.3237 98.833C23.4516 95.651 19.6197 89.8491 19.1872 88.2759C17.5837 82.4483 16.3396 71.8295 19.1858 64.9296Z" fill="white" stroke="black" stroke-width="1.51998"/>
<path d="M29.7422 108.328C29.7422 108.328 43.013 112.3 52.9902 107.264C58.8568 104.039 64.3474 100.173 69.3612 95.7372C69.3612 95.7372 70.9107 92.6372 72.9452 95.7372C74.9797 98.8372 78.9489 101.065 71.6857 97.4805C67.3271 99.0309 63.8404 112.204 61.5149 114.048C60.1583 116.86 47.2767 138.459 37.8794 125.963C35.167 117.633 38.7502 117.535 34.9731 113.564C31.5827 110.363 29.7422 108.328 29.7422 108.328Z" fill="white" stroke="black" stroke-width="0.759991"/>
<path d="M39.1369 31.0453C38.9682 30.5984 44.0356 15.7697 47.5376 22.3277C51.2616 28.1393 50.1456 29.7045 50.1456 29.7045C49.9959 30.5334 49.9005 31.3714 49.8599 32.2127C49.7679 32.1831 58.1269 33.4446 57.3077 27.3403C56.4884 21.2361 50.5917 16.2147 50.5917 13.1595C50.5917 10.1044 47.5364 5.0378 43.4386 6.00603C39.191 6.75082 33.0062 4.88789 30.5477 6.37823C28.0891 7.86857 19.9672 12.7867 22.2768 15.3942C24.5864 18.0017 17.6568 20.1631 17.6568 20.1631C17.6568 20.1631 12.1429 24.039 13.2608 27.763C14.3035 31.1161 10.6521 36.853 8.11901 37.0028C5.88388 37.6731 6.85224 48.3266 8.71498 50.1917C10.5777 52.0567 10.1298 58.0895 11.323 57.5682C12.5162 57.0468 17.1358 51.1608 19.2228 51.3097C21.3089 51.3857 23.0226 50.5649 24.9598 48.9993C26.897 47.4338 32.6353 42.2931 32.038 39.3124C31.4406 36.3317 32.4853 34.8413 33.6032 35.4364C34.7212 36.0315 39.1369 31.0453 39.1369 31.0453Z" fill="#50B43F" stroke="black" stroke-width="1.51998"/>
<path d="M47.1782 31.4522C46.8796 30.5577 40.769 24.3734 40.6953 32.3458C41.3664 35.4754 43.3781 36.4445 41.9622 38.5307C40.5463 40.6169 41.5156 44.7898 47.1782 40.1698C50.1589 37.4126 54.1077 36.0713 55.4491 37.7106C56.7905 39.2754 62.379 40.9147 62.9733 37.7106C63.5676 34.5065 59.9169 31.9736 64.1645 29.4397C64.6866 26.4591 58.949 23.9252 57.7565 27.8749C56.5641 31.8245 47.4769 32.3459 47.1782 31.4522Z" fill="url(#paint2_linear_3360_10024)" stroke="black" stroke-width="0.759991"/>
<path d="M75.5661 34.0526C75.5661 34.0526 72.2129 28.1704 69.9033 32.7159C67.9661 37.038 70.9472 40.2397 68.9355 40.5399C66.9238 40.8401 69.6801 43.6695 73.4064 42.0302C77.1326 40.3909 79.5164 51.195 81.3046 48.662C83.0929 46.1289 85.6268 58.7957 88.2344 51.195C90.8419 43.5944 89.2772 39.643 92.8537 39.4218C96.4302 39.2007 87.7867 35.9199 85.7006 37.9316C83.6144 39.9432 75.5661 34.0526 75.5661 34.0526Z" fill="url(#paint3_linear_3360_10024)" stroke="black" stroke-width="0.759991"/>
<path d="M76.3101 34.8033C76.2341 34.6513 74.373 41.3608 74.373 41.3608C74.373 41.3608 77.6513 43.7449 78.4714 45.6829C79.2914 47.6209 82.9422 38.3806 82.9422 38.3806C82.9422 38.3806 76.3846 34.9523 76.3101 34.8033Z" fill="#C888BE" stroke="black" stroke-opacity="0.29" stroke-width="0.759991"/>
<path d="M47.252 32.122C46.954 31.3772 49.189 38.3069 49.189 38.3069C49.189 38.3069 53.0649 35.4007 55.7462 38.3069C58.2055 39.2752 56.2687 30.707 56.2687 30.707C56.2687 30.707 47.5499 32.8668 47.252 32.122Z" fill="#C888BE" stroke="black" stroke-opacity="0.29" stroke-width="0.759991"/>
<path d="M103.395 49.5165C103.395 49.5165 113.16 51.9816 113.761 46.7909C114.361 41.6001 101.744 38.0966 110.906 38.7456C120.069 39.3947 119.768 33.685 120.82 30.4414" stroke="black" stroke-width="1.51998"/>
<path d="M108.865 67.7269C108.865 67.7269 119.597 70.3056 120.256 64.8762C120.915 59.4468 107.049 55.7812 117.12 56.4599C127.19 57.1386 126.86 51.1668 128.016 47.7734" stroke="black" stroke-width="1.51998"/>
<path d="M19.8477 19.3711C19.8477 19.3711 21.3855 29.1864 26.2601 27.5069C31.1347 25.8273 26.0047 33.9668 28.8251 34.9966C31.6454 36.0263 32.4157 36.0293 32.4157 36.0293" stroke="black" stroke-width="1.51998"/>
<path d="M13.4199 29.0117C13.4199 29.0117 15.1761 39.4236 20.74 37.6414C26.3039 35.8592 20.4478 44.4905 23.6687 45.5857C26.8895 46.6808 27.767 46.6808 27.767 46.6808" stroke="black" stroke-width="1.51998"/>
<g filter="url(#filter0_d_3360_10024)">
<path d="M31.043 134.895C31.043 134.895 64.2372 128.739 75.5618 144.132" stroke="black" stroke-width="1.51998"/>
</g>
<g filter="url(#filter1_d_3360_10024)">
<path d="M29.8984 149.723C35.156 148.701 40.5158 148.297 45.8672 148.521C54.1511 148.879 64.0379 151.169 69.6777 158.836" stroke="black" stroke-width="1.51998"/>
</g>
<g filter="url(#filter2_d_3360_10024)">
<path d="M26.8574 164.922C32.115 163.9 37.4747 163.496 42.8261 163.72C51.1101 164.078 51.7708 166.532 57.41 174.197" stroke="black" stroke-width="1.51998"/>
</g>
<path d="M29.5573 71.543C32.9149 71.543 37.0356 75.7571 37.0356 80.3748C37.0356 84.9925 33.9105 90.8809 30.5529 90.8809C27.1952 90.8809 22.6543 85.9608 22.6543 81.3469C22.6543 76.7329 26.1997 71.543 29.5573 71.543Z" fill="#97401A"/>
<path d="M53.1179 86.7438C58.1547 86.7438 62.2378 81.1295 62.2378 74.2039C62.2378 67.2783 58.1547 61.6641 53.1179 61.6641C48.0812 61.6641 43.998 67.2783 43.998 74.2039C43.998 81.1295 48.0812 86.7438 53.1179 86.7438Z" fill="#97401A"/>
<path d="M55.7778 82.1872C58.5061 82.1872 60.7178 79.4651 60.7178 76.1073C60.7178 72.7494 58.5061 70.0273 55.7778 70.0273C53.0496 70.0273 50.8379 72.7494 50.8379 76.1073C50.8379 79.4651 53.0496 82.1872 55.7778 82.1872Z" fill="#040211"/>
<path d="M31.8373 86.7419C34.3557 86.7419 36.3972 84.0198 36.3972 80.662C36.3972 77.3041 34.3557 74.582 31.8373 74.582C29.3189 74.582 27.2773 77.3041 27.2773 80.662C27.2773 84.0198 29.3189 86.7419 31.8373 86.7419Z" fill="#040211"/>
<path d="M14.3116 59.9219C14.3116 59.9219 15.9483 63.95 17.5861 63.5738C19.2239 63.1976 19.4564 63.9081 19.4564 63.9081L17.5861 69.9264C17.5861 69.9264 13.4949 68.8949 13.6674 66.6583C13.8399 64.4216 14.3116 59.9219 14.3116 59.9219Z" fill="#090807"/>
<path d="M36.7168 55.9219C36.7168 55.9219 37.2545 64.7281 37.3024 74.2318C37.3351 80.9418 36.0794 88.2233 38.8899 92.1981" stroke="black" stroke-width="1.51998"/>
<path d="M45.5812 82.1052C47.6799 82.1052 49.3812 79.3831 49.3812 76.0252C49.3812 72.6674 47.6799 69.9453 45.5812 69.9453C43.4825 69.9453 41.7812 72.6674 41.7812 76.0252C41.7812 79.3831 43.4825 82.1052 45.5812 82.1052Z" fill="white"/>
<path d="M22.7804 88.1872C24.8791 88.1872 26.5804 85.4651 26.5804 82.1073C26.5804 78.7494 24.8791 76.0273 22.7804 76.0273C20.6818 76.0273 18.9805 78.7494 18.9805 82.1073C18.9805 85.4651 20.6818 88.1872 22.7804 88.1872Z" fill="white"/>
<path d="M61.4004 59.888C61.4004 59.888 65.1523 57.6472 65.7125 55.7989C66.2726 53.9506 66.6083 57.5356 66.6083 57.5356L66.3285 58.2073C66.3285 58.2073 69.0732 54.3993 69.3528 56.3593C69.6325 58.3193 67.3363 60.783 67.3363 60.783C67.3363 60.783 70.4168 56.0225 70.809 57.5349C71.2011 59.0473 67.6715 62.3511 66.6083 62.9112C65.545 63.4713 62.5203 65.1515 62.5203 65.1515L61.4004 59.888Z" fill="black"/>
<path opacity="0.28" d="M80.2392 57.0795C80.2392 57.0795 71.2303 56.498 76.7517 68.7035C82.273 80.9089 86.0511 81.3953 87.9883 81.1992C89.9255 81.0031 84.1123 88.7548 87.9883 90.692C91.8642 92.6292 95.2536 91.1762 95.056 86.5265C94.8584 81.8769 91.2775 80.6184 92.9282 76.5494C94.5789 72.4804 89.6346 59.4035 86.0504 57.9512C82.4663 56.4988 80.2392 57.0795 80.2392 57.0795Z" fill="#F8B53A"/>
<path d="M80.2598 25.1382C80.2598 25.1382 86.8755 20.1809 90.8996 20.6543C94.9238 21.1278 96.5995 24.2413 98.0921 19.0019C99.5847 13.7625 102.105 13.1016 102.105 13.1016" stroke="black" stroke-width="1.51998"/>
<path d="M92.0254 28.5039C92.0254 28.5039 98.4281 23.1204 102.325 23.6334C106.223 24.1464 107.841 27.5281 109.287 21.838C110.733 16.148 113.172 15.4297 113.172 15.4297" stroke="black" stroke-width="1.51998"/>
<path d="M23.3773 11.9727C23.3773 11.9727 30.3172 15.0188 31.3506 18.3624C32.3839 21.7061 30.1432 24.337 35.4775 23.2693C40.8118 22.2016 42.3326 23.8839 42.3326 23.8839" stroke="black" stroke-width="1.51998"/>
<path d="M34.016 5.89068C34.016 5.89068 40.9559 8.93679 41.9892 12.2804C43.0226 15.624 40.7819 18.255 46.1162 17.1873C51.4505 16.1195 52.9712 17.8019 52.9712 17.8019" stroke="black" stroke-width="1.51998"/>
<path d="M114.787 57.3672C114.787 57.3672 121.886 59.4835 124.002 58.0281" stroke="black" stroke-width="1.51998"/>
<path d="M108.875 39.8828C108.875 39.8828 115.974 41.9991 118.09 40.5437" stroke="black" stroke-width="1.51998"/>
<path d="M19.1953 27.3359C19.1953 27.3359 26.2944 29.4522 28.4102 27.9968" stroke="black" stroke-width="1.51998"/>
<path d="M31.7129 11.8438C31.7129 11.8438 36.8782 9.71273 36.558 7.46069" stroke="black" stroke-width="1.51998"/>
<path d="M18.0762 43.0508C18.0762 43.0508 23.2415 40.9198 22.9213 38.6677" stroke="black" stroke-width="1.51998"/>
<path d="M8.19531 47.6133C8.19531 47.6133 13.3606 45.4823 13.0405 43.2302" stroke="black" stroke-width="1.51998"/>
<path d="M10.8477 56.457C10.8477 56.457 16.013 54.326 15.6928 52.074" stroke="black" stroke-width="1.51998"/>
<path d="M26.4121 45.957C26.4121 45.957 31.5774 43.826 31.2573 41.574" stroke="black" stroke-width="1.51998"/>
<path d="M109.711 21.3867C109.711 21.3867 116.81 23.503 118.926 22.0476" stroke="black" stroke-width="1.51998"/>
<path d="M110.18 68.7656C110.18 68.7656 117.279 70.8819 119.395 69.4265" stroke="black" stroke-width="1.51998"/>
<path d="M29.8809 108.471C29.8809 108.471 36.4503 111.184 41.7505 110.238C44.0077 110.314 45.4367 109.834 47.2835 109.655C49.6995 109.427 52.3824 108.971 56.9667 105.505C60.9651 103.272 64.6694 100.549 67.994 97.3984L70.0335 94.8906" stroke="black" stroke-width="0.759991"/>
<g opacity="0.92">
<path d="M48.1303 45.8881C42.8252 45.8881 42.1189 55.4268 41.5861 71.1365C41.1715 83.3614 43.0613 92.8709 46.6415 96.5746C47.6397 97.6072 48.6684 98.0677 49.9768 98.0677C56.4923 98.0677 61.0427 87.9921 61.0427 73.5658C61.0427 57.7247 54.2256 45.8881 48.1303 45.8881ZM48.1303 41.3281C58.2038 41.3281 65.6027 56.9864 65.6027 73.5658C65.6027 90.1452 60.0504 102.628 49.9768 102.628C39.9033 102.628 36.4684 87.5035 37.0288 70.9819C37.5891 54.4602 38.0567 41.3281 48.1303 41.3281Z" fill="black"/>
</g>
<g opacity="0.92">
<path d="M29.7773 53.9193C24.1465 53.9193 17.8724 63.1756 17.8724 76.458C17.8724 89.7405 24.1465 98.9968 29.7773 98.9968C33.7512 98.9968 33.9326 97.8464 34.1839 96.2526C34.4357 94.6599 33.8175 91.1501 33.272 88.0534C32.5793 84.1205 31.7941 79.6628 31.9069 75.5037C31.9656 73.3382 32.0566 71.251 32.1435 69.2636C32.4047 63.288 32.7298 55.8512 31.1906 54.2433C30.9343 53.9755 30.2806 53.9193 29.7773 53.9193ZM29.7773 49.3594C38.8706 49.3594 36.8731 60.5796 36.4651 75.6273C36.2632 83.0759 39.4243 92.3066 38.688 96.9646C37.8672 102.169 34.3694 103.557 29.7773 103.557C20.6841 103.557 13.3125 91.4242 13.3125 76.458C13.3125 61.4919 20.6841 49.3594 29.7773 49.3594Z" fill="black"/>
</g>
<path d="M36.25 78.207H37.3425" stroke="black" stroke-width="3.03997" stroke-linecap="round"/>
<path d="M65.6035 73.6094H98.3217C106.502 73.6094 99.3096 83.9971 98.8346 84.0837" stroke="black" stroke-width="4.55995"/>
<path d="M47.9121 131.55C47.9121 131.55 40.8292 134.624 41.0438 142.82C41.7592 149.407 45.1221 159.799 51.1314 161.116C55.1377 161.116 58.6429 159.14 59.4298 154.603C59.7875 151.456 59.3587 144.65 63.0788 141.43C61.7911 139.161 52.562 130.599 49.7719 131.55C47.5541 131.404 47.9121 131.55 47.9121 131.55Z" fill="url(#paint4_linear_3360_10024)" stroke="black" stroke-width="1.51998"/>
<path d="M44.173 123.511C44.4625 124.166 48.5017 128.504 48.5017 130.18C50.3114 130.908 53.2212 131.815 53.2212 131.815L57.9991 135.529L63.6451 141.357C63.6451 141.357 77.0942 137.828 77.818 138.192C85.0566 135.278 86.8663 131.053 85.4185 127.63C81.3901 118.105 58.2738 132.729 58.2738 132.729C54.9441 133.894 60.0255 132.616 59.0121 128.391C57.5644 124.531 49.5298 112.439 44.8247 120.524C44.318 121.908 43.8834 122.928 44.173 123.511Z" fill="#F97D1B" stroke="black" stroke-width="1.51998"/>
</g>
<defs>
<filter id="filter0_d_3360_10024" x="27.8643" y="132.918" width="51.3495" height="17.744" filterUnits="userSpaceOnUse" color-interpolation-filters="sRGB">
<feFlood flood-opacity="0" result="BackgroundImageFix"/>
<feColorMatrix in="SourceAlpha" type="matrix" values="0 0 0 0 0 0 0 0 0 0 0 0 0 0 0 0 0 0 127 0" result="hardAlpha"/>
<feOffset dy="3.03997"/>
<feGaussianBlur stdDeviation="1.51998"/>
<feColorMatrix type="matrix" values="0 0 0 0 0 0 0 0 0 0 0 0 0 0 0 0 0 0 0.161 0"/>
<feBlend mode="normal" in2="BackgroundImageFix" result="effect1_dropShadow_3360_10024"/>
<feBlend mode="normal" in="SourceGraphic" in2="effect1_dropShadow_3360_10024" result="shape"/>
</filter>
<filter id="filter1_d_3360_10024" x="26.7139" y="147.699" width="46.6151" height="17.6659" filterUnits="userSpaceOnUse" color-interpolation-filters="sRGB">
<feFlood flood-opacity="0" result="BackgroundImageFix"/>
<feColorMatrix in="SourceAlpha" type="matrix" values="0 0 0 0 0 0 0 0 0 0 0 0 0 0 0 0 0 0 127 0" result="hardAlpha"/>
<feOffset dy="3.03997"/>
<feGaussianBlur stdDeviation="1.51998"/>
<feColorMatrix type="matrix" values="0 0 0 0 0 0 0 0 0 0 0 0 0 0 0 0 0 0 0.161 0"/>
<feBlend mode="normal" in2="BackgroundImageFix" result="effect1_dropShadow_3360_10024"/>
<feBlend mode="normal" in="SourceGraphic" in2="effect1_dropShadow_3360_10024" result="shape"/>
</filter>
<filter id="filter2_d_3360_10024" x="23.6729" y="162.898" width="37.3885" height="17.8299" filterUnits="userSpaceOnUse" color-interpolation-filters="sRGB">
<feFlood flood-opacity="0" result="BackgroundImageFix"/>
<feColorMatrix in="SourceAlpha" type="matrix" values="0 0 0 0 0 0 0 0 0 0 0 0 0 0 0 0 0 0 127 0" result="hardAlpha"/>
<feOffset dy="3.03997"/>
<feGaussianBlur stdDeviation="1.51998"/>
<feColorMatrix type="matrix" values="0 0 0 0 0 0 0 0 0 0 0 0 0 0 0 0 0 0 0.161 0"/>
<feBlend mode="normal" in2="BackgroundImageFix" result="effect1_dropShadow_3360_10024"/>
<feBlend mode="normal" in="SourceGraphic" in2="effect1_dropShadow_3360_10024" result="shape"/>
</filter>
<linearGradient id="paint0_linear_3360_10024" x1="9.57942" y1="138.779" x2="25.0311" y2="143.248" gradientUnits="userSpaceOnUse">
<stop stop-color="#F37422"/>
<stop offset="1" stop-color="#E43922"/>
</linearGradient>
<linearGradient id="paint1_linear_3360_10024" x1="66.0863" y1="107.176" x2="90.8408" y2="110.442" gradientUnits="userSpaceOnUse">
<stop stop-color="#F38620"/>
<stop offset="1" stop-color="#E5412C"/>
</linearGradient>
<linearGradient id="paint2_linear_3360_10024" x1="45.6779" y1="35.7619" x2="60.4691" y2="37.7297" gradientUnits="userSpaceOnUse">
<stop stop-color="#C87AC1"/>
<stop offset="0.446" stop-color="#C278BA"/>
<stop offset="1" stop-color="#BB75B2"/>
</linearGradient>
<linearGradient id="paint3_linear_3360_10024" x1="73.4502" y1="39.6271" x2="85.7067" y2="47.9127" gradientUnits="userSpaceOnUse">
<stop stop-color="#C87AC1"/>
<stop offset="0.262" stop-color="#EAB7DC"/>
<stop offset="1" stop-color="#BB75B2"/>
</linearGradient>
<linearGradient id="paint4_linear_3360_10024" x1="48.5712" y1="145.106" x2="63.1896" y2="149.239" gradientUnits="userSpaceOnUse">
<stop stop-color="#F37422"/>
<stop offset="1" stop-color="#E43922"/>
</linearGradient>
<clipPath id="clip0_3360_10024">
<rect width="133" height="189.134" fill="white"/>
</clipPath>
</defs>
</svg>
