<svg width="228" height="40" viewBox="0 0 228 40" fill="none" xmlns="http://www.w3.org/2000/svg">
<path d="M0 0H228L210.652 20L228 40H0L17.3478 20L0 0Z" fill="url(#paint0_linear_1186_8268)"/>
<path d="M62.4298 14C65.5498 14 67.5498 16.02 67.5498 18.54C67.5498 21.1 65.5498 23.04 62.4298 23.04H59.9898V26.78C59.9898 27.52 59.3898 28.14 58.6498 28.14C57.8898 28.14 57.2898 27.52 57.2898 26.78V15.48C57.2898 14.62 57.9098 14 58.7698 14H62.4298ZM62.3098 20.74C63.8098 20.74 64.9298 20.2 64.9298 18.54C64.9298 16.9 63.8098 16.3 62.3098 16.3H59.9898V20.74H62.3098ZM79.4178 13.94C80.1578 13.94 80.7178 14.54 80.7178 15.24V22.98C80.7178 26.22 78.2378 28.14 75.1378 28.14C72.0178 28.14 69.5578 26.22 69.5578 22.98V15.24C69.5578 14.54 70.1378 13.94 70.8778 13.94C71.6178 13.94 72.2578 14.54 72.2578 15.24V22.94C72.2578 25.04 73.5978 25.88 75.1378 25.88C76.6978 25.88 78.0178 25.04 78.0178 22.94V15.24C78.0178 14.54 78.6578 13.94 79.4178 13.94ZM93.3473 25.98C93.5273 26.2 93.6673 26.48 93.6673 26.8C93.6673 27.5 93.1473 28.06 92.4473 28.06C92.0273 28.06 91.6673 27.86 91.4473 27.56L87.9073 23.04H85.9273V26.78C85.9273 27.52 85.3273 28.14 84.5873 28.14C83.8273 28.14 83.2273 27.52 83.2273 26.78V15.48C83.2273 14.62 83.8473 14 84.7073 14H88.3673C91.4873 14 93.4873 16.02 93.4873 18.54C93.4873 20.42 92.4073 21.96 90.5873 22.66L93.3473 25.98ZM85.9273 16.3V20.74H88.2473C89.7473 20.74 90.8673 20.2 90.8673 18.54C90.8673 16.9 89.7473 16.3 88.2473 16.3H85.9273ZM105.593 24.48C106.233 24.48 106.853 24.92 106.853 25.7C106.853 26.36 106.393 26.8 105.653 27.28C104.813 27.8 103.713 28.14 102.353 28.14C98.8134 28.14 95.2734 25.22 95.2734 21C95.2734 16.78 98.8334 13.86 102.313 13.86C103.713 13.86 104.813 14.22 105.653 14.72C106.393 15.2 106.853 15.64 106.853 16.3C106.853 17.08 106.233 17.52 105.593 17.52C105.093 17.52 104.733 17.26 104.513 17.1C104.213 16.9 103.473 16.42 102.353 16.42C100.093 16.42 98.0934 18.42 98.0934 21C98.0934 23.58 100.073 25.58 102.373 25.58C103.453 25.58 104.213 25.1 104.513 24.9C104.733 24.74 105.073 24.48 105.593 24.48ZM117.495 15.3C117.495 14.56 118.095 13.94 118.855 13.94C119.595 13.94 120.175 14.56 120.175 15.3V26.7C120.175 27.44 119.595 28.06 118.855 28.06C118.095 28.06 117.495 27.44 117.495 26.7V22.26H111.455V26.7C111.455 27.44 110.855 28.06 110.115 28.06C109.355 28.06 108.755 27.44 108.755 26.7V15.3C108.755 14.56 109.355 13.94 110.115 13.94C110.855 13.94 111.455 14.56 111.455 15.3V19.96H117.495V15.3ZM134.803 26.1C134.903 26.32 134.963 26.58 134.963 26.86C134.963 27.52 134.403 28.08 133.663 28.08C133.063 28.08 132.583 27.74 132.363 27.22L131.363 24.86H125.683L124.683 27.22C124.463 27.74 123.983 28.08 123.403 28.08C122.663 28.08 122.083 27.52 122.083 26.86C122.083 26.58 122.163 26.32 122.263 26.1L127.223 14.92C127.503 14.24 127.923 13.92 128.523 13.92C129.123 13.92 129.543 14.24 129.843 14.92L134.803 26.1ZM126.603 22.72H130.443L128.523 18.2L126.603 22.72ZM141.205 13.86C142.965 13.86 144.045 14.52 144.845 15.4C145.225 15.84 145.425 16.2 145.425 16.6C145.425 17.2 144.945 17.68 144.305 17.68C143.885 17.68 143.485 17.42 143.225 17.14C142.665 16.56 142.185 16.24 141.305 16.24C140.085 16.24 139.385 16.86 139.385 17.74C139.385 18.4 139.745 19 140.945 19.46L141.725 19.76C144.845 20.94 146.105 22.08 146.105 24C146.105 26.76 143.365 28.14 141.045 28.14C139.465 28.14 137.805 27.5 136.825 26.26C136.625 26.02 136.265 25.56 136.265 24.96C136.265 24.4 136.625 23.82 137.365 23.82C137.965 23.82 138.365 24.2 138.645 24.58C139.345 25.46 140.285 25.74 141.045 25.74C142.025 25.74 143.365 25.36 143.365 24C143.365 22.96 142.665 22.48 141.125 21.88L140.285 21.56C138.225 20.76 136.705 19.76 136.705 17.72C136.705 15.34 138.705 13.86 141.205 13.86ZM150.81 25.64H156.43C157.07 25.64 157.63 26.18 157.63 26.82C157.63 27.48 157.07 28 156.43 28H149.59C148.73 28 148.11 27.38 148.11 26.52V15.48C148.11 14.62 148.73 14 149.59 14H156.23C156.87 14 157.43 14.52 157.43 15.16C157.43 15.82 156.87 16.36 156.23 16.36H150.81V19.84H154.37C155.03 19.84 155.55 20.36 155.55 20.96C155.55 21.58 155.03 22.1 154.37 22.1H150.81V25.64ZM163.956 14C167.916 14 171.116 16.46 171.116 20.94C171.116 25.54 167.916 28 163.956 28H161.016C160.156 28 159.536 27.38 159.536 26.52V15.48C159.536 14.62 160.156 14 161.016 14H163.956ZM163.956 25.72C166.776 25.72 168.416 24.28 168.416 20.94C168.416 17.72 166.776 16.28 163.956 16.28H162.236V25.72H163.956Z" fill="white"/>
<defs>
<linearGradient id="paint0_linear_1186_8268" x1="228" y1="15.8333" x2="152.752" y2="128.423" gradientUnits="userSpaceOnUse">
<stop stop-color="#E43F0F"/>
<stop offset="1" stop-color="#FD973A"/>
</linearGradient>
</defs>
</svg>
