<svg width="145" height="143" viewBox="0 0 145 143" fill="none" xmlns="http://www.w3.org/2000/svg">
<g filter="url(#filter0_d_2732_12066)">
<path d="M64.6686 8.24857C66.5015 4.7582 71.4985 4.7582 73.3313 8.24857V8.24857C74.8922 11.221 78.9149 11.7739 81.2198 9.33282V9.33282C83.9263 6.46636 88.7381 7.81455 89.5613 11.67V11.67C90.2623 14.9533 93.9866 16.571 96.8647 14.8423V14.8423C100.244 12.8124 104.514 15.4088 104.266 19.3433V19.3433C104.055 22.694 107.205 25.2566 110.443 24.3684V24.3684C114.245 23.3255 117.656 26.9776 116.356 30.6994V30.6994C115.249 33.869 117.59 37.1863 120.948 37.2046V37.2046C124.89 37.2262 127.189 41.663 124.933 44.8961V44.8961C123.012 47.6495 124.372 51.4756 127.6 52.399V52.399C131.39 53.4833 132.406 58.3759 129.362 60.8805V60.8805C126.769 63.0135 127.046 67.0645 129.905 68.8246V68.8246C133.263 70.8913 132.922 75.8767 129.314 77.4671V77.4671C126.242 78.8214 125.416 82.797 127.694 85.2632V85.2632C130.369 88.159 128.696 92.8675 124.793 93.4257V93.4257C121.47 93.901 119.602 97.5062 121.13 100.496V100.496C122.924 104.006 120.043 108.088 116.134 107.573V107.573C112.806 107.134 110.034 110.101 110.699 113.392V113.392C111.48 117.256 107.604 120.41 103.98 118.859V118.859C100.893 117.538 97.4236 119.648 97.1762 122.996V122.996C96.8857 126.928 92.3023 128.919 89.2307 126.448V126.448C86.6148 124.343 82.7049 125.438 81.5633 128.596V128.596C80.2229 132.303 75.2723 132.984 72.9813 129.775V129.775C71.0302 127.043 66.9698 127.043 65.0187 129.775V129.775C62.7277 132.984 57.7771 132.303 56.4367 128.596V128.596C55.2951 125.438 51.3852 124.343 48.7693 126.448V126.448C45.6977 128.919 41.1143 126.928 40.8238 122.996V122.996C40.5764 119.648 37.107 117.538 34.0204 118.859V118.859C30.3959 120.41 26.5196 117.256 27.3006 113.392V113.392C27.9657 110.101 25.1942 107.134 21.8657 107.573V107.573C17.9572 108.088 15.0755 104.006 16.8701 100.496V100.496C18.3984 97.5062 16.5303 93.901 13.2068 93.4257V93.4257C9.30417 92.8675 7.63075 88.159 10.3058 85.2632V85.2632C12.584 82.797 11.7578 78.8214 8.68578 77.4671V77.4671C5.07847 75.8767 4.73745 70.8913 8.09462 68.8246V68.8246C10.9536 67.0645 11.2307 63.0135 8.63801 60.8805V60.8805C5.59353 58.3759 6.61022 53.4833 10.4005 52.399V52.399C13.6283 51.4756 14.9881 47.6495 13.067 44.8961V44.8961C10.8112 41.663 13.1101 37.2262 17.0524 37.2046V37.2046C20.4097 37.1863 22.7513 33.869 21.6443 30.6994V30.6994C20.3444 26.9776 23.7552 23.3255 27.557 24.3684V24.3684C30.7948 25.2566 33.9446 22.694 33.7337 19.3433V19.3433C33.4862 15.4088 37.7558 12.8124 41.1353 14.8423V14.8423C44.0134 16.571 47.7377 14.9533 48.4387 11.67V11.67C49.2619 7.81455 54.0737 6.46636 56.7802 9.33282V9.33282C59.0851 11.7739 63.1078 11.221 64.6686 8.24857V8.24857Z" fill="#28C54E"/>
<path d="M47.1221 72.366C52.0306 75.4514 58.0611 81.6221 61.8477 88.7745C67.5977 78.3965 81.4538 56.0416 90.8782 49.6465" stroke="white" stroke-width="11.7805" stroke-linecap="round" stroke-linejoin="round"/>
</g>
<defs>
<filter id="filter0_d_2732_12066" x="3.7666" y="2.63086" width="140.467" height="140.194" filterUnits="userSpaceOnUse" color-interpolation-filters="sRGB">
<feFlood flood-opacity="0" result="BackgroundImageFix"/>
<feColorMatrix in="SourceAlpha" type="matrix" values="0 0 0 0 0 0 0 0 0 0 0 0 0 0 0 0 0 0 127 0" result="hardAlpha"/>
<feOffset dx="5" dy="4"/>
<feGaussianBlur stdDeviation="3.5"/>
<feComposite in2="hardAlpha" operator="out"/>
<feColorMatrix type="matrix" values="0 0 0 0 0 0 0 0 0 0 0 0 0 0 0 0 0 0 0.1 0"/>
<feBlend mode="normal" in2="BackgroundImageFix" result="effect1_dropShadow_2732_12066"/>
<feBlend mode="normal" in="SourceGraphic" in2="effect1_dropShadow_2732_12066" result="shape"/>
</filter>
</defs>
</svg>
