<svg width="1280" height="555" viewBox="0 0 1280 555" fill="none" xmlns="http://www.w3.org/2000/svg">
<path d="M1280 21.8341L1226.62 15.1623H1226.62C1173.25 8.48977 1066.5 -4.85355 959.75 1.81848C895.7 5.82165 831.649 17.0304 767.599 28.2394C724.899 35.7119 682.2 43.1842 639.5 48.522C532.75 61.8655 426 61.8655 319.25 55.1938C212.509 48.5225 105.768 35.1799 52.3884 28.5076L52.3813 28.5069L-0.999941 21.8341V291.077C-1.00005 325.475 -0.999941 388.03 -0.999941 415.936C86.9713 496.659 340.929 555 640.5 555C937.833 555 1190.23 497.528 1280 417.742C1280 375.801 1280 325.945 1280 289.271V21.8341Z" fill="#F3FDF2"/>
</svg>
