<svg width="30" height="30" viewBox="0 0 30 30" fill="none" xmlns="http://www.w3.org/2000/svg">
<g id="octicon:share-24">
<path id="Vector" d="M6.875 12.1875V25.3125C6.875 25.485 7.015 25.625 7.1875 25.625H22.8125C22.8954 25.625 22.9749 25.5921 23.0335 25.5335C23.0921 25.4749 23.125 25.3954 23.125 25.3125V12.1875C23.125 12.1046 23.0921 12.0252 23.0335 11.9666C22.9749 11.908 22.8954 11.875 22.8125 11.875H19.6875C19.4389 11.875 19.2004 11.7763 19.0246 11.6004C18.8488 11.4246 18.75 11.1862 18.75 10.9375C18.75 10.6889 18.8488 10.4504 19.0246 10.2746C19.2004 10.0988 19.4389 10 19.6875 10H22.8125C24.02 10 25 10.98 25 12.1875V25.3125C25 25.8927 24.7695 26.4491 24.3593 26.8593C23.9491 27.2696 23.3927 27.5 22.8125 27.5H7.1875C6.60734 27.5 6.05094 27.2696 5.6407 26.8593C5.23047 26.4491 5 25.8927 5 25.3125V12.1875C5 10.98 5.98 10 7.1875 10H10.3125C10.5611 10 10.7996 10.0988 10.9754 10.2746C11.1512 10.4504 11.25 10.6889 11.25 10.9375C11.25 11.1862 11.1512 11.4246 10.9754 11.6004C10.7996 11.7763 10.5611 11.875 10.3125 11.875H7.1875C7.10462 11.875 7.02513 11.908 6.96653 11.9666C6.90792 12.0252 6.875 12.1046 6.875 12.1875ZM15.6625 1.52503L19.725 5.58753C19.8484 5.70212 19.9386 5.84787 19.9861 6.00943C20.0337 6.17099 20.0367 6.34238 19.995 6.50554C19.9533 6.66869 19.8683 6.81757 19.7491 6.9365C19.6299 7.05542 19.4808 7.13999 19.3175 7.18128C19.1545 7.22305 18.9833 7.22014 18.8219 7.17284C18.6604 7.12555 18.5147 7.03563 18.4 6.91253L15.9375 4.45003V17.8125C15.9375 18.0612 15.8387 18.2996 15.6629 18.4754C15.4871 18.6513 15.2486 18.75 15 18.75C14.7514 18.75 14.5129 18.6513 14.3371 18.4754C14.1613 18.2996 14.0625 18.0612 14.0625 17.8125V4.45003L11.6 6.91253C11.4222 7.07804 11.1871 7.16817 10.9442 7.16397C10.7013 7.15978 10.4695 7.06158 10.2975 6.89003C10.1259 6.71803 10.0278 6.48621 10.0236 6.24332C10.0194 6.00042 10.1095 5.76536 10.275 5.58753L14.3375 1.52503C14.5133 1.34947 14.7516 1.25085 15 1.25085C15.2484 1.25085 15.4867 1.34947 15.6625 1.52503Z" fill="#00080E"/>
</g>
</svg>
