<svg width="200" height="93" viewBox="0 0 200 93" fill="none" xmlns="http://www.w3.org/2000/svg">
<path d="M176.599 68.8481C172.623 68.8481 169.415 72.2576 169.415 76.4614C169.415 80.6652 172.623 84.0746 176.599 84.0746C180.576 84.0746 183.784 80.6652 183.784 76.4614C183.784 72.2576 180.576 68.8481 176.599 68.8481ZM176.933 80.4335C174.628 80.4335 172.756 78.7454 172.756 76.6269C172.756 74.5084 174.628 72.8203 176.933 72.8203C179.239 72.8203 181.11 74.5084 181.11 76.6269C181.11 78.7454 179.239 80.4335 176.933 80.4335Z" fill="url(#paint0_linear_741_5219)"/>
<path d="M176.599 83.7432C180.382 83.7432 183.449 80.4828 183.449 76.4609C183.449 72.4391 180.382 69.1787 176.599 69.1787C172.816 69.1787 169.749 72.4391 169.749 76.4609C169.749 80.4828 172.816 83.7432 176.599 83.7432Z" stroke="black" stroke-width="0.531328"/>
<path d="M147.325 51.4363C146.122 50.046 144.318 48.8545 142.48 50.3771C140.642 51.8998 135.028 54.0183 133.023 48.2256C133.19 44.121 133.023 41.6054 133.023 41.6054C133.023 41.6054 140.575 41.9033 142.012 41.7709C143.449 41.6385 145.821 40.6123 145.554 38.7255C145.287 36.8388 144.786 35.6472 142.48 35.4817C140.174 35.3162 133.023 35.3491 133.023 35.3491C133.023 35.3491 133.758 32.5026 133.023 31.013C132.288 29.5235 131.786 29.2917 130.049 29.4241C129.314 29.4572 127.409 29.0269 127.041 31.6088C126.674 34.1907 126.841 39.6193 126.841 39.6193C126.841 39.6193 121.561 38.1959 120.224 39.8509C119.589 39.9833 119.222 38.56 118.653 38.3614C117.818 38.1959 116.983 38.1959 116.147 38.3614C115.579 38.4938 115.479 39.5862 114.944 39.6193C114.276 39.6524 113.808 38.6592 113.14 38.4937C112.237 38.262 111.268 38.5269 110.633 39.1889C109.531 40.2481 107.86 38.9573 107.86 38.9573C107.86 38.9573 103.449 38.196 101.344 39.4538C99.7395 40.7116 96.2977 43.3927 96.3979 45.1471C96.1974 46.438 95.8633 45.0479 94.794 43.5914C93.9585 42.5322 93.0562 41.5722 92.0537 40.7116C92.0537 40.7116 85.6376 37.6994 81.7947 40.7116C81.4939 41.0757 81.0594 42.0026 80.5582 42.1019C79.9567 42.2343 79.1549 41.208 78.1524 40.1488C76.6487 39.2882 71.0679 38.7917 68.7621 40.7116C67.8598 41.4067 66.6569 42.2011 65.8215 43.1942C64.6185 44.6175 64.0839 46.2394 64.1173 47.0008C64.0171 47.7621 64.017 49.2847 63.9835 49.8144C63.8165 49.9137 64.0502 48.689 62.6802 47.6959C61.3435 46.7029 58.637 46.4049 58.2694 46.438C58.0021 46.4711 55.9636 45.8091 56.0304 44.9816C56.0972 44.154 57.6011 44.2203 57.6011 44.2203C57.6011 44.2203 59.773 45.0147 59.9735 45.2133C60.174 45.4451 62.0787 45.3126 63.3485 43.161C64.5181 41.7046 64.2842 41.0094 62.5131 40.1488C60.742 39.2882 59.305 38.9903 56.6651 39.1889C54.0252 39.3544 52.9224 40.0496 51.9868 40.8771C51.1513 41.6053 50.5164 42.8632 50.1488 44.2203C49.4471 46.8684 49.8816 47.9607 51.3853 49.4502C52.8891 50.9398 54.0586 51.0722 55.6626 51.2708C56.5314 51.3701 58.6036 51.0391 58.6036 52.5948C58.4365 53.6541 58.0019 53.5879 56.3978 53.6541C53.7579 53.29 51.9535 51.2708 51.9535 51.2708L47.9102 55.1105C47.9102 55.1105 51.1515 59.546 56.3646 59.215C61.611 58.884 63.2819 56.4346 63.2819 56.4346V58.9503H70.2659C70.2659 58.9503 70.2324 51.5024 70.2659 49.5826C70.2993 47.6958 70.2324 45.8091 73.7746 45.776H73.8082C77.2836 45.776 77.0829 48.7883 77.1163 50.013C77.1497 51.2377 77.1163 58.9503 77.1163 58.9503H84.0337V48.1593C84.0337 48.1593 84.0003 45.6437 86.941 45.5775C88.8792 45.6768 89.8482 45.4119 90.0487 48.1593C90.1155 51.006 90.0487 58.9503 90.0487 58.9503H96.7654L96.4981 52.628V50.2446C96.4981 50.2446 97.9684 57.0966 101.845 57.7917C104.585 58.3876 108.061 58.2882 109.564 57.0303C109.898 56.8648 110.233 58.1559 111.402 58.6193C112.371 59.0165 114.142 58.5861 114.577 57.5931C114.777 56.898 114.744 58.52 117.417 58.4869C120.091 58.6193 120.258 56.2691 120.258 56.2691V47.8614C120.258 47.8614 119.589 44.6506 123.466 44.6837C127.309 44.7168 127.175 44.8823 127.108 47.8614C127.041 50.8074 128.177 55.3422 133.09 57.0303C134.694 57.6592 140.107 59.2151 144.986 56.0043C146.824 54.8127 148.261 52.992 147.325 51.4363ZM105.588 53.621C102.814 53.621 100.575 51.337 100.575 48.4903C100.575 45.6436 102.814 43.3597 105.588 43.3597C108.361 43.3597 110.6 45.6436 110.6 48.4903C110.6 51.337 108.361 53.621 105.588 53.621Z" fill="url(#paint1_linear_741_5219)" stroke="black" stroke-width="0.531328"/>
<path d="M113.508 61.4326C111.637 61.4326 106.892 60.572 104.285 64.2131C103.984 64.1469 101.512 59.1486 93.7925 62.8559C92.8568 61.9291 90.551 60.0754 88.5459 62.8559C87.6437 62.4256 82.464 60.2078 78.6211 62.8559C77.8859 62.1277 76.5493 60.0092 73.5752 62.8559C72.8401 61.9953 71.1693 60.0092 68.6296 62.8559C65.1543 60.8368 60.8101 61.0684 57.602 63.4848C55.9312 62.7566 52.5561 59.7114 48.9137 60.6383C47.3431 61.0355 45.271 61.6643 44.2017 62.227C42.8984 62.9222 41.8291 63.9483 41.094 65.2393C39.9912 67.0929 39.7573 69.9727 39.7573 69.9727C39.7573 69.9727 38.2203 80.267 48.9137 82.5179C50.2837 82.7165 54.8284 83.5772 57.3681 80.3995C57.4015 80.2009 62.5812 85.5633 68.6296 80.7636C68.9638 80.4988 69.8326 85.0337 73.5752 81.2601C73.7757 81.0946 74.6444 82.4187 76.215 82.4849C77.1507 82.4518 78.3871 82.4187 79.1223 80.7636C79.1891 77.5197 79.1223 70.5686 79.1223 70.5686C79.1223 70.5686 79.8574 67.2915 82.7313 67.1922C84.3353 67.0929 86.5074 67.2584 87.2426 67.8542C87.9777 68.45 88.5127 66.3647 88.5127 66.3647V80.7636C88.5127 80.7636 88.7465 82.7496 91.4533 82.6834C93.592 82.8489 94.3606 80.3995 94.3606 80.3995V70.3037C94.3606 70.3037 95.7974 67.1922 97.9027 67.1922C99.3062 67.1591 101.311 66.9936 101.311 68.5494C101.311 70.1051 101.111 72.1243 101.311 74.6399C101.512 77.1225 104.452 82.3524 109.966 82.5179C111.303 82.5841 113.809 82.518 115.814 81.6574C118.721 80.4989 120.827 77.95 121.361 74.9047C122.33 69.6747 122.665 62.4919 113.508 61.4326ZM54.0933 76.0302C53.7925 76.593 53.2242 76.7915 51.7205 76.7915C50.3838 76.7915 49.1141 76.2619 48.1784 75.3351C47.2427 74.4083 46.7079 73.1504 46.7079 71.8263C46.7079 70.5023 47.2427 69.2444 48.1784 68.3176C49.1141 67.3908 50.3838 66.8612 51.7205 66.8612C53.2242 66.8612 53.8258 66.8943 54.1266 67.3908C54.5276 67.9867 54.5276 69.443 54.5276 71.5946C54.5276 73.8123 54.4943 75.302 54.0933 76.0302ZM63.9845 76.7915C61.1107 76.7915 58.8049 74.5737 58.8049 71.8263C58.8049 69.079 61.1107 66.8612 63.9845 66.8612C66.8584 66.8612 69.1642 69.079 69.1642 71.8263C69.1642 74.5737 66.8584 76.7915 63.9845 76.7915ZM111.604 76.4605C109.03 76.4605 106.925 74.3751 106.925 71.8263C106.925 69.2776 109.03 67.1922 111.604 67.1922C114.177 67.1922 116.282 69.2776 116.282 71.8263C116.282 74.3751 114.177 76.4605 111.604 76.4605Z" fill="url(#paint2_linear_741_5219)" stroke="black" stroke-width="0.531328"/>
<path d="M57.7348 63.4526C57.7348 63.4526 54.5268 65.7696 54.2261 67.3254" stroke="#1A1616" stroke-width="0.531328"/>
<path d="M53.959 76.3623C54.3266 77.7856 56.2983 80.202 57.4345 80.4337" stroke="#1A1616" stroke-width="0.531328"/>
<path d="M73.6084 62.7905V81.3932" stroke="#1A1616" stroke-width="0.531328"/>
<path d="M63.9845 66.5308C60.9436 66.5308 58.4707 68.914 58.4707 71.8269C58.4707 74.7398 60.9436 77.1231 63.9845 77.1231C67.0254 77.1231 69.4983 74.7398 69.4983 71.8269C69.4983 68.914 67.0254 66.5308 63.9845 66.5308ZM63.9845 76.7921C61.1106 76.7921 58.8049 74.5743 58.8049 71.8269C58.8049 69.0795 61.1106 66.8618 63.9845 66.8618C66.8583 66.8618 69.1641 69.0795 69.1641 71.8269C69.1641 74.5743 66.8583 76.7921 63.9845 76.7921Z" fill="black"/>
<path d="M51.7276 67.1928C50.4911 67.1928 49.3215 67.6893 48.4193 68.5499C47.5505 69.4106 47.0492 70.6022 47.0492 71.8269C47.0492 73.0517 47.5505 74.2433 48.4193 75.1039C49.2881 75.9646 50.4911 76.4611 51.7276 76.4611C53.2313 76.4611 53.5989 76.2625 53.8328 75.8984C54.2004 75.2363 54.2338 73.6806 54.2338 71.5952C54.2338 69.5761 54.2004 68.0865 53.8662 67.59C53.766 67.4576 53.6657 67.3583 53.365 67.2921C52.964 67.1928 52.3959 67.1928 51.7276 67.1928ZM51.7276 66.5308C54.6682 66.5308 54.8687 66.6301 54.8687 71.5952C54.8687 76.5604 54.6682 77.1231 51.7276 77.1231C48.7869 77.1231 46.3809 74.7398 46.3809 71.8269C46.3809 68.914 48.7869 66.5308 51.7276 66.5308Z" fill="black"/>
<path d="M150.634 70.7018C149.297 69.808 145.622 69.0136 144.118 68.6826C143.015 68.2522 143.115 65.6372 146.925 67.3254C147.526 67.6895 148.161 67.9543 148.83 68.186L152.338 64.9091C152.338 64.9091 148.863 62.0623 146.491 61.6651C144.953 61.3341 143.282 61.2017 141.678 62.0624C140.375 62.7244 140.041 62.9561 140.008 62.9561C140.008 62.8237 140.375 60.1425 138.27 59.2819C137.134 59.1164 128.312 59.2819 128.312 59.2819C128.312 59.2819 128.345 57.9578 128.312 55.6076C128.278 53.2575 126.674 53.1582 125.137 53.1913C123.901 53.2244 122.43 54.0519 122.33 56.5675C122.23 59.0501 121.795 73.5153 122.33 75.5014C122.865 77.4544 124.736 81.1948 131.352 82.0885C133.424 82.3533 136.666 82.7506 138.738 80.9962C139.005 80.6983 146.089 86.5241 151.57 79.0102C152.338 77.5868 153.642 73.1843 150.634 70.7018ZM144.118 76.9247C142.647 77.0571 142.046 74.8393 141.979 74.7731C141.01 73.6808 140.375 73.5484 138.604 73.8464C136.833 74.1443 136.733 75.4682 134.861 75.9317C133.658 76.2958 132.355 76.1635 131.286 75.5345C129.715 74.6739 129.381 74.9386 128.579 72.4229C127.777 69.9072 128.211 65.7366 128.211 65.7366H137.134C137.134 65.7366 136.198 70.9997 138.738 72.2244C141.177 73.5154 142.046 73.8463 142.547 74.078C143.048 74.2766 148.863 75.4682 144.118 76.9247Z" fill="url(#paint3_linear_741_5219)" stroke="black" stroke-width="0.531328"/>
<path d="M155.045 84.0745C156.522 84.0745 157.719 82.8889 157.719 81.4264C157.719 79.9639 156.522 78.7783 155.045 78.7783C153.569 78.7783 152.372 79.9639 152.372 81.4264C152.372 82.8889 153.569 84.0745 155.045 84.0745Z" fill="#E3E3E3"/>
<path d="M155.045 83.7435C156.337 83.7435 157.384 82.7061 157.384 81.4264C157.384 80.1468 156.337 79.1094 155.045 79.1094C153.753 79.1094 152.706 80.1468 152.706 81.4264C152.706 82.7061 153.753 83.7435 155.045 83.7435Z" stroke="black" stroke-width="0.531328"/>
<path d="M111.603 66.8613C108.83 66.8613 106.591 69.0791 106.591 71.8265C106.591 74.5739 108.83 76.7916 111.603 76.7916C114.377 76.7916 116.616 74.5739 116.616 71.8265C116.616 69.0791 114.377 66.8613 111.603 66.8613ZM111.603 76.4606C109.03 76.4606 106.925 74.3753 106.925 71.8265C106.925 69.2777 109.03 67.1923 111.603 67.1923C114.176 67.1923 116.282 69.2777 116.282 71.8265C116.282 74.3753 114.176 76.4606 111.603 76.4606Z" fill="black"/>
<path d="M170.417 72.0589C170.25 70.768 168.044 69.4107 166.808 69.4438C165.672 69.2452 162.664 68.9805 161.027 70.3707C159.423 71.5624 157.518 73.9787 157.986 76.2627C158.253 78.5135 158.888 81.7906 162.296 82.8168C163.8 83.3795 166.073 83.6112 168.044 82.8168C168.378 82.6182 169.748 82.1216 170.25 81.0954C170.584 80.3672 169.448 78.3811 169.047 78.2156C168.913 78.2156 168.813 78.2156 168.679 78.2156C167.777 78.2818 167.142 79.4074 165.638 79.6722C164.068 79.5398 162.597 79.3411 161.996 77.7853C161.394 76.2296 161.227 73.8795 164.168 73.2175C165.972 72.9196 166.106 73.5152 167.476 74.5745C168.846 75.6337 170.584 73.3168 170.417 72.0589Z" fill="url(#paint4_linear_741_5219)" stroke="black" stroke-width="0.531328"/>
<path d="M176.933 80.1016C179.055 80.1016 180.776 78.5455 180.776 76.626C180.776 74.7065 179.055 73.1504 176.933 73.1504C174.81 73.1504 173.09 74.7065 173.09 76.626C173.09 78.5455 174.81 80.1016 176.933 80.1016Z" stroke="black" stroke-width="0.531328"/>
<path d="M183.115 73.0513C183.182 74.0774 183.115 81.9554 183.115 81.9554C183.115 81.9554 183.082 83.2463 184.218 83.3456C185.354 83.4449 186.256 83.4119 186.624 81.9554V74.2098C186.624 74.2098 186.791 73.0844 187.693 73.0513C188.596 73.0182 189.431 73.2498 189.598 74.8056V82.0547C189.598 82.0547 190.032 83.2463 190.667 83.2132C191.302 83.1801 192.973 83.7097 193.04 82.0547C193.107 80.3996 193.04 74.1767 193.04 74.1767C193.04 74.1767 193.508 72.5546 194.41 72.7532C195.346 72.7863 195.88 72.7202 195.914 74.4746C195.947 76.2289 195.914 81.9223 195.914 81.9223C195.914 81.9223 196.081 83.5111 197.518 83.4118C198.721 83.3456 199.322 83.3456 199.69 81.7568C199.623 80.0686 199.69 73.3823 199.69 73.3823C199.69 72.6872 199.59 72.0251 199.389 71.3631C198.788 69.708 197.351 69.7079 196.148 69.4431C195.078 69.2776 192.639 68.8805 191.269 70.5687C190.901 70.337 190.266 69.2115 188.562 69.1453C185.889 68.9136 184.619 70.2376 184.385 70.4693C184.151 70.701 183.048 72.0251 183.115 73.0513Z" fill="url(#paint5_linear_741_5219)" stroke="black" stroke-width="0.531328"/>
<path d="M114.71 39.52V57.4608" stroke="black" stroke-width="0.531328"/>
<path d="M33.1128 12.9424C33.1128 12.9424 35.6525 6.71941 37.8581 6.18979C39.5289 5.92499 38.7601 1.75422 42.3357 2.51555C45.3098 3.17757 44.8756 3.77332 44.8756 3.77332C44.8756 3.77332 51.8595 3.50854 53.1962 8.4406C53.5304 11.6183 52.4277 11.4529 54.0985 12.6776C55.7694 13.9024 56.8721 17.4773 56.4377 18.4703C56.0033 19.4633 56.3375 21.5817 57.0059 21.9789C57.6742 22.3761 58.8772 24.4616 57.6742 25.7525C56.4712 27.0435 56.6717 27.9372 57.0059 28.0696C57.34 28.202 57.4068 29.493 56.4377 29.7247C55.4686 29.9564 54.9005 33.796 54.0985 33.6305C53.2965 33.465 51.2582 31.8762 51.8931 31.0487C52.5281 30.2212 50.3558 30.1219 49.8545 29.7247C49.3533 29.3275 48.3175 27.573 47.6491 27.3082C46.9808 27.0434 44.207 22.2106 45.4434 20.1915C46.6798 18.1723 42.6698 19.2646 44.1067 17.0137C45.5437 14.7629 41.5672 20.7874 41.4001 12.148C40.7318 9.30129 38.5261 9.4998 37.5905 11.8831C36.6548 14.2664 36.6216 14.7961 36.6216 14.7961L33.1128 12.9424Z" fill="#57B741" stroke="black" stroke-width="0.531328"/>
<path d="M3.53906 53.8218C3.53906 53.8218 0.230596 55.212 0.330846 58.9193C0.665015 61.8984 2.2358 66.5988 5.04282 67.1946C6.91417 67.1946 8.55146 66.3009 8.91905 64.2486C9.08613 62.8253 8.88583 59.7469 10.6235 58.2904C10.022 57.2643 5.71103 53.3915 4.40777 53.8218C3.37185 53.7556 3.53906 53.8218 3.53906 53.8218Z" fill="url(#paint6_linear_741_5219)" stroke="black" stroke-width="0.531328"/>
<path d="M1.6674 50.148C1.80107 50.4459 4.30746 52.2002 4.30746 52.9615C4.34088 53.7229 5.84451 53.9214 5.84451 53.9214L8.05022 55.6096L10.6567 58.2577C10.6567 58.2577 13.2967 56.4372 13.6309 56.6027C13.9651 56.7682 13.8313 52.9284 13.8313 52.9284L7.68244 55.047C6.14526 55.5766 8.9857 54.2857 8.51786 52.3658C7.84952 50.6114 4.14038 45.1166 1.96828 48.7908C1.73437 49.4197 1.53373 49.8832 1.6674 50.148Z" fill="#F97D1B" stroke="black" stroke-width="0.531328"/>
<path d="M9.38737 38.7613C9.38737 38.7613 7.51596 41.2107 9.65464 43.1637C11.7933 45.1167 15.2353 47.1029 15.0682 48.2614C14.7675 49.453 13.8316 52.2003 13.865 52.9285C13.8985 53.6567 13.364 56.2056 13.9656 56.669C14.0658 57.2649 12.8625 61.568 13.3638 62.7927C13.464 63.5872 10.3897 66.5331 12.0271 69.9094C11.5593 71.4321 10.5902 78.0192 12.0271 79.1446C13.0965 80.1045 20.3815 81.7926 25.0933 73.9477C25.5277 72.756 30.0722 71.9285 30.5735 66.8641C30.2727 66.4338 34.2828 64.6794 33.0797 60.4094C33.6812 59.8467 35.252 57.8938 34.9513 57.3311C34.6505 56.7683 28.0673 55.8415 33.7148 52.399C35.2854 52.2004 37.3906 52.8955 37.3906 52.8955C37.3906 52.8955 37.8919 47.0697 40.2311 44.7195C40.9997 43.2962 41.9688 43.0313 43.0715 36.5766C42.9713 32.108 44.4081 27.507 40.4315 23.5349C37.4239 20.4565 37.1567 20.1585 37.1567 20.1585C37.1567 20.1585 29.4374 12.4461 21.6178 14.6638C16.6721 16.2527 13.6645 18.9669 13.1967 20.3571C12.8959 21.3833 8.41828 22.8067 8.21778 27.2422C7.71653 30.9165 7.7833 36.5104 8.65214 37.5365C9.52098 38.5627 9.38737 38.7613 9.38737 38.7613Z" fill="url(#paint7_linear_741_5219)" stroke="black" stroke-width="0.531328"/>
<path d="M8.41737 26.2814C10.0548 22.3755 12.2604 19.2309 16.0031 22.3424C16.2036 23.4017 19.2111 15.7554 21.6839 17.0794C23.4216 17.7414 26.1953 20.7866 26.7634 23.6333C27.3315 26.5131 29.3031 33.4975 27.0975 37.1387C24.892 40.7798 23.0541 43.2954 19.4117 41.0445C17.1393 38.4295 16.8718 37.7013 16.8718 37.7013C16.8718 37.7013 16.5379 42.6333 13.9648 41.8389C13.5304 41.6072 12.6614 41.541 12.0599 41.0445C10.3557 39.6543 8.68477 37.1386 8.48427 36.4435C7.71568 33.9278 7.18095 29.2936 8.41737 26.2814Z" fill="white" stroke="black" stroke-width="0.531328"/>
<path d="M13.0635 45.1829C13.0635 45.1829 18.9113 46.9042 23.2889 44.7196C25.862 43.3293 28.268 41.6411 30.4735 39.6881C30.4735 39.6881 31.1419 38.331 32.0442 39.6881C32.9465 41.0453 34.6841 42.0053 31.476 40.4496C29.5713 41.1116 28.0343 46.8711 26.9984 47.6655C26.3969 48.8903 20.7492 58.291 16.6055 52.8624C15.4025 49.2213 16.9732 49.1881 15.3358 47.4669C13.8988 46.0766 13.0635 45.1829 13.0635 45.1829Z" fill="white" stroke="black" stroke-width="0.265664"/>
<path d="M17.2065 11.5196C17.1397 11.321 19.3454 4.8663 20.916 7.71299C22.5534 10.2287 22.0519 10.9237 22.0519 10.9237C21.9851 11.2878 21.9519 11.652 21.9185 12.0161C21.8851 12.0161 25.5608 12.5456 25.1933 9.89753C24.8257 7.24944 22.2526 5.06487 22.2526 3.70773C22.2526 2.35059 20.9158 0.16595 19.1113 0.596264C17.24 0.927274 14.5332 0.0997481 13.4305 0.761769C12.3277 1.42379 8.78571 3.54222 9.78821 4.70076C10.7907 5.8593 7.74959 6.78606 7.74959 6.78606C7.74959 6.78606 5.31022 8.47422 5.81148 10.0962C6.27931 11.5526 4.67537 14.0684 3.53919 14.1346C2.5701 14.4325 2.97104 19.0666 3.80646 19.8941C4.64188 20.7216 4.44151 23.3367 4.94277 23.105C5.44402 22.8733 7.48225 20.3244 8.41793 20.3906C9.32018 20.4237 10.0888 20.0596 10.9242 19.3976C11.7596 18.7356 14.2992 16.4846 14.0319 15.1937C13.7646 13.9028 14.2326 13.2409 14.7338 13.5057C15.2351 13.7705 17.2065 11.5196 17.2065 11.5196Z" fill="#50B43F" stroke="black" stroke-width="0.531328"/>
<path d="M20.7491 11.6847C20.6155 11.2875 17.9421 8.60618 17.9087 12.0818C18.2094 13.4389 19.0783 13.8693 18.4768 14.763C17.8753 15.6567 18.2761 17.4774 20.7824 15.4913C22.0857 14.2997 23.8235 13.7038 24.425 14.432C25.0265 15.1271 27.4657 15.8222 27.7331 14.432C28.0004 13.0417 26.3966 11.9494 28.2679 10.824C28.5018 9.53307 25.962 8.4076 25.4608 10.1289C24.9595 11.8501 20.8828 12.0819 20.7491 11.6847Z" fill="url(#paint8_linear_741_5219)" stroke="black" stroke-width="0.265664"/>
<path d="M33.2132 12.8427C33.2132 12.8427 31.7429 10.2938 30.707 12.2468C29.8716 14.1335 31.1749 15.5239 30.2726 15.6563C29.3704 15.7887 30.6066 17.0134 32.244 16.3183C33.8815 15.6232 34.9175 20.3234 35.7195 19.198C36.5215 18.0725 37.6241 23.6005 38.7603 20.2904C39.8965 16.9803 39.2283 15.259 40.7989 15.1597C42.3695 15.0604 38.5599 13.6371 37.6576 14.4977C36.7554 15.3584 33.2132 12.8427 33.2132 12.8427Z" fill="url(#paint9_linear_741_5219)" stroke="black" stroke-width="0.265664"/>
<path d="M33.5468 13.1735C33.5134 13.1073 32.7114 16.02 32.7114 16.02C32.7114 16.02 34.1485 17.0462 34.5161 17.9069C34.8837 18.7675 36.4875 14.7291 36.4875 14.7291C36.4875 14.7291 33.5803 13.2397 33.5468 13.1735Z" fill="#C888BE"/>
<path d="M20.7817 11.9824C20.648 11.6514 21.6171 14.6636 21.6171 14.6636C21.6171 14.6636 23.3216 13.4058 24.4912 14.6636C25.5605 15.0939 24.7248 11.3535 24.7248 11.3535C24.7248 11.3535 20.9154 12.3134 20.7817 11.9824Z" fill="#C888BE"/>
<path d="M45.4771 19.5618C45.4771 19.5618 49.7543 20.621 50.0216 18.3701C50.289 16.1193 44.7418 14.5966 48.7518 14.8614C52.7619 15.1262 52.6616 12.6437 53.096 11.2534" stroke="black" stroke-width="0.531328"/>
<path d="M47.8838 27.5073C47.8838 27.5073 52.5956 28.6328 52.8963 26.2495C53.1971 23.8662 47.0816 22.2773 51.526 22.5752C55.9705 22.8732 55.8033 20.2582 56.3046 18.8018" stroke="black" stroke-width="0.531328"/>
<path d="M8.71875 6.42139C8.71875 6.42139 9.38689 10.6915 11.5256 9.96326C13.6643 9.23504 11.4255 12.7768 12.6619 13.2402C13.8983 13.7036 14.2325 13.7036 14.2325 13.7036" stroke="black" stroke-width="0.531328"/>
<path d="M5.91113 10.625C5.91113 10.625 6.67992 15.1598 9.11935 14.3985C11.5588 13.6372 8.98549 17.3776 10.4224 17.8741C11.8593 18.3706 12.2271 18.3375 12.2271 18.3375" stroke="black" stroke-width="0.531328"/>
<path d="M40.4976 55.5106C40.4976 55.5106 37.3565 52.0019 35.2846 52.5315C33.5804 52.3329 31.0407 54.1865 31.4417 55.0141C31.943 56.0402 32.9453 56.7683 34.0814 56.9007C34.8835 57.2317 36.053 57.0994 36.7548 57.4967C37.4566 57.8939 40.5979 61.4687 39.8961 62.7597C39.1944 64.0506 38.2922 66.3015 39.1945 66.7649C40.0967 67.2284 42.6029 67.9897 43.0707 65.3085C43.4717 62.7929 43.5384 62.3956 45.6103 62.9583C47.6821 63.2231 54.0982 62.4948 54.2987 59.4164C54.1316 57.629 53.4635 57.8608 51.2246 58.6883C48.9856 59.5158 44.6747 59.5158 44.1734 58.6883C43.6722 57.8608 40.4976 55.5106 40.4976 55.5106Z" fill="url(#paint10_linear_741_5219)" stroke="black" stroke-width="0.531328"/>
<path d="M40.8314 55.709C40.8314 55.709 37.8574 56.0068 37.5566 58.0922" stroke="black" stroke-width="0.531328"/>
<path d="M13.6343 56.7547C13.6343 56.7547 28.2375 54.0735 33.2166 60.7931" stroke="black" stroke-width="0.531328"/>
<path d="M13.1333 63.2093C14.6371 62.7789 16.2077 62.5141 17.8117 62.4148C18.6137 62.3486 19.3823 62.3486 20.1843 62.3486C20.9863 62.3817 21.7883 62.4479 22.5569 62.5472C24.1275 62.7789 25.698 63.2424 27.1016 63.9706C27.8033 64.3347 28.4716 64.7981 29.0732 65.3277C29.6747 65.8573 30.1759 66.4863 30.5769 67.1483C30.0422 66.5856 29.4742 66.056 28.8392 65.5925C28.2043 65.1291 27.536 64.765 26.8342 64.434C26.1325 64.103 25.3973 63.8713 24.6621 63.6727C23.927 63.4741 23.1584 63.3086 22.3898 63.2093C20.8526 62.9776 19.3154 62.9114 17.7448 62.9114C16.2745 62.9445 14.7039 63.0438 13.1333 63.2093Z" fill="black"/>
<path d="M11.7964 69.8302C13.0328 69.4661 14.3027 69.2344 15.6059 69.102C16.9092 68.9696 18.179 68.9365 19.5157 69.0358C20.184 69.102 20.8524 69.2013 21.4873 69.4661C22.1222 69.7309 22.6903 70.1612 23.1247 70.6577C23.5591 71.1542 23.9267 71.6838 24.2609 72.2466C24.5951 72.7762 24.9292 73.3389 25.2634 73.9016C24.829 73.4382 24.428 72.9417 23.9935 72.4452C23.5925 71.9487 23.1915 71.4521 22.7571 71.0218C22.3227 70.5915 21.8215 70.2274 21.2534 70.0619C20.6853 69.8633 20.0838 69.764 19.4489 69.6978C18.8139 69.6316 18.179 69.6316 17.5441 69.5985C16.9092 69.5654 16.2742 69.5985 15.6393 69.5985C14.3695 69.6316 13.0996 69.7309 11.7964 69.8302Z" fill="black"/>
<path d="M12.9959 29.1621C14.4662 29.1621 16.2707 30.9827 16.2707 33.0019C16.2707 35.021 14.9006 37.5697 13.4302 37.5697C11.9599 37.5697 9.95508 35.4182 9.95508 33.4321C9.95508 31.4129 11.5255 29.1621 12.9959 29.1621Z" fill="#97401A"/>
<path d="M23.3552 35.7817C25.5699 35.7817 27.3653 33.3365 27.3653 30.3201C27.3653 27.3037 25.5699 24.8584 23.3552 24.8584C21.1406 24.8584 19.3452 27.3037 19.3452 30.3201C19.3452 33.3365 21.1406 35.7817 23.3552 35.7817Z" fill="#97401A"/>
<path d="M24.5246 33.7957C25.7243 33.7957 26.6967 32.6101 26.6967 31.1476C26.6967 29.6851 25.7243 28.4995 24.5246 28.4995C23.325 28.4995 22.3525 29.6851 22.3525 31.1476C22.3525 32.6101 23.325 33.7957 24.5246 33.7957Z" fill="#040211"/>
<path d="M13.9987 35.7825C15.106 35.7825 16.0037 34.5969 16.0037 33.1344C16.0037 31.6719 15.106 30.4863 13.9987 30.4863C12.8913 30.4863 11.9937 31.6719 11.9937 33.1344C11.9937 34.5969 12.8913 35.7825 13.9987 35.7825Z" fill="#040211"/>
<path d="M6.27877 24.0977C6.27877 24.0977 7.01387 25.8519 7.71563 25.6864C8.41738 25.5209 8.55105 25.8188 8.55105 25.8188L7.71563 28.4338C7.71563 28.4338 5.91105 27.9704 5.97789 27.0105C6.04472 26.0506 6.27877 24.0977 6.27877 24.0977Z" fill="#090807"/>
<path d="M16.1377 22.3433C16.1377 22.3433 16.3715 26.183 16.405 30.3206C16.405 33.2335 15.8702 36.4113 17.1066 38.1325" stroke="black" stroke-width="0.531328"/>
<path d="M20.0468 33.763C20.9696 33.763 21.7177 32.5774 21.7177 31.1149C21.7177 29.6524 20.9696 28.4668 20.0468 28.4668C19.124 28.4668 18.376 29.6524 18.376 31.1149C18.376 32.5774 19.124 33.763 20.0468 33.763Z" fill="white"/>
<path d="M10.0209 36.4114C10.9437 36.4114 11.6918 35.2258 11.6918 33.7633C11.6918 32.3008 10.9437 31.1152 10.0209 31.1152C9.09816 31.1152 8.3501 32.3008 8.3501 33.7633C8.3501 35.2258 9.09816 36.4114 10.0209 36.4114Z" fill="white"/>
<path d="M26.998 24.0972C26.998 24.0972 28.6352 23.1371 28.9025 22.3096C29.1699 21.4821 29.3036 23.071 29.3036 23.071L29.1701 23.3689C29.1701 23.3689 30.3732 21.7139 30.5068 22.5745C30.6405 23.4351 29.6045 24.4943 29.6045 24.4943C29.6045 24.4943 30.9745 22.409 31.1415 23.071C31.3086 23.733 29.7715 25.1564 29.3036 25.4212C28.8358 25.686 27.4993 26.3811 27.4993 26.3811L26.998 24.0972Z" fill="black"/>
<path opacity="0.28" d="M35.279 22.8708C35.279 22.8708 31.3025 22.6059 33.7419 27.9352C36.1813 33.2644 37.8187 33.463 38.6875 33.3637C39.5564 33.2644 36.9833 36.6407 38.6875 37.5013C40.3918 38.3619 41.8955 37.6999 41.7952 35.6808C41.695 33.6616 40.1245 33.099 40.8596 31.3447C41.5948 29.5903 39.4227 23.8638 37.8521 23.2349C36.2815 22.606 35.279 22.8708 35.279 22.8708Z" fill="#F8B53A"/>
<path d="M35.2788 8.93442C35.2788 8.93442 38.1861 6.78288 39.9572 6.98149C41.7283 7.1801 42.4634 8.53718 43.1318 6.2532C43.8001 3.96923 44.9031 3.67139 44.9031 3.67139" stroke="black" stroke-width="0.531328"/>
<path d="M40.4585 10.4244C40.4585 10.4244 43.2657 8.07426 45.0034 8.30597C46.7411 8.53767 47.4429 9.99415 48.0778 7.51157C48.7127 5.029 49.7819 4.73096 49.7819 4.73096" stroke="black" stroke-width="0.531328"/>
<path d="M10.2832 3.2085C10.2832 3.2085 13.3241 4.53251 13.792 5.98895C14.2598 7.4454 13.2574 8.60393 15.5966 8.14052C17.9358 7.6771 18.6041 8.40526 18.6041 8.40526" stroke="black" stroke-width="0.531328"/>
<path d="M14.9619 0.560059C14.9619 0.560059 18.0028 1.88407 18.4707 3.34051C18.9385 4.79696 17.9361 5.9555 20.2753 5.49208C22.6145 5.02867 23.2828 5.75683 23.2828 5.75683" stroke="black" stroke-width="0.531328"/>
<path d="M50.4829 23.0024C50.4829 23.0024 53.5909 23.9292 54.5265 23.3003" stroke="black" stroke-width="0.531328"/>
<path d="M47.877 15.3896C47.877 15.3896 50.9849 16.3164 51.9206 15.6875" stroke="black" stroke-width="0.531328"/>
<path d="M8.44531 9.89502C8.44531 9.89502 11.5533 10.8218 12.489 10.1929" stroke="black" stroke-width="0.531328"/>
<path d="M13.9585 3.17533C13.9585 3.17533 16.231 2.2484 16.0973 1.25537" stroke="black" stroke-width="0.531328"/>
<path d="M7.94385 16.7466C7.94385 16.7466 10.2163 15.8197 10.0827 14.8267" stroke="black" stroke-width="0.531328"/>
<path d="M3.59961 18.7329C3.59961 18.7329 5.87209 17.806 5.73842 16.813" stroke="black" stroke-width="0.531328"/>
<path d="M4.76855 22.6049C4.76855 22.6049 7.04103 21.6781 6.90737 20.6851" stroke="black" stroke-width="0.531328"/>
<path d="M11.6196 18.0048C11.6196 18.0048 13.8921 17.078 13.7584 16.085" stroke="black" stroke-width="0.531328"/>
<path d="M48.2446 7.31348C48.2446 7.31348 51.3523 8.24027 52.2879 7.61135" stroke="black" stroke-width="0.531328"/>
<path d="M48.4453 27.9678C48.4453 27.9678 51.553 28.8946 52.4886 28.2657" stroke="black" stroke-width="0.531328"/>
<path d="M13.124 45.2468C13.124 45.2468 15.9981 46.4383 18.3373 46.008C19.3398 46.0411 19.9412 45.8426 20.7766 45.7433C21.846 45.644 23.0156 45.4454 25.0206 43.9227C26.7917 42.9628 28.3957 41.7711 29.8661 40.3808L30.7681 39.2886" stroke="black" stroke-width="0.265664"/>
<path d="M68.1308 89.4376C68.0585 89.4376 67.9947 89.4121 67.9395 89.3611C67.8885 89.3058 67.863 89.24 67.863 89.1634C67.863 89.0869 67.8885 89.0232 67.9395 88.9722C67.9947 88.9212 68.0585 88.8957 68.1308 88.8957C68.203 88.8957 68.2647 88.9212 68.3157 88.9722C68.3709 89.0232 68.3985 89.0869 68.3985 89.1634C68.3985 89.24 68.3709 89.3058 68.3157 89.3611C68.2647 89.4121 68.203 89.4376 68.1308 89.4376ZM69.4378 89.4376C69.3656 89.4376 69.3018 89.4121 69.2465 89.3611C69.1955 89.3058 69.17 89.24 69.17 89.1634C69.17 89.0869 69.1955 89.0232 69.2465 88.9722C69.3018 88.9212 69.3656 88.8957 69.4378 88.8957C69.5101 88.8957 69.5717 88.9212 69.6227 88.9722C69.678 89.0232 69.7056 89.0869 69.7056 89.1634C69.7056 89.24 69.678 89.3058 69.6227 89.3611C69.5717 89.4121 69.5101 89.4376 69.4378 89.4376ZM70.7449 89.4376C70.6726 89.4376 70.6089 89.4121 70.5536 89.3611C70.5026 89.3058 70.4771 89.24 70.4771 89.1634C70.4771 89.0869 70.5026 89.0232 70.5536 88.9722C70.6089 88.9212 70.6726 88.8957 70.7449 88.8957C70.8172 88.8957 70.8788 88.9212 70.9298 88.9722C70.9851 89.0232 71.0127 89.0869 71.0127 89.1634C71.0127 89.24 70.9851 89.3058 70.9298 89.3611C70.8788 89.4121 70.8172 89.4376 70.7449 89.4376ZM73.7939 84.949H74.1191V89.4121H73.7939V84.949ZM77.2237 89.2017C77.1429 89.2782 77.0409 89.3377 76.9177 89.3802C76.7986 89.4185 76.6732 89.4376 76.5415 89.4376C76.2524 89.4376 76.0293 89.359 75.872 89.2017C75.7147 89.0402 75.6361 88.817 75.6361 88.5322V86.358H75.024V86.0839H75.6361V85.357H75.9549V86.0839H77.0133V86.358H75.9549V88.5003C75.9549 88.7171 76.0059 88.8829 76.1079 88.9977C76.2142 89.1082 76.3693 89.1634 76.5734 89.1634C76.7816 89.1634 76.9538 89.1018 77.0898 88.9785L77.2237 89.2017ZM81.4208 86.0584C81.7311 86.0584 82.0116 86.1306 82.2624 86.2751C82.5132 86.4197 82.7087 86.6194 82.849 86.8745C82.9935 87.1295 83.0658 87.4207 83.0658 87.748C83.0658 88.0753 82.9935 88.3686 82.849 88.6279C82.7087 88.8829 82.5132 89.0827 82.2624 89.2272C82.0116 89.3675 81.7311 89.4376 81.4208 89.4376C81.1275 89.4376 80.8619 89.3696 80.6238 89.2336C80.3858 89.0933 80.2009 88.8999 80.0691 88.6534V90.649H79.7503V86.0839H80.0564V86.8681C80.1881 86.6131 80.373 86.4154 80.6111 86.2751C80.8533 86.1306 81.1233 86.0584 81.4208 86.0584ZM81.4017 89.1507C81.6567 89.1507 81.8863 89.0912 82.0903 88.9722C82.2943 88.8532 82.4537 88.6874 82.5685 88.4748C82.6875 88.2623 82.747 88.02 82.747 87.748C82.747 87.4759 82.6875 87.2337 82.5685 87.0211C82.4537 86.8086 82.2943 86.6428 82.0903 86.5238C81.8863 86.4048 81.6567 86.3453 81.4017 86.3453C81.1466 86.3453 80.9171 86.4048 80.7131 86.5238C80.5133 86.6428 80.3539 86.8086 80.2349 87.0211C80.1201 87.2337 80.0627 87.4759 80.0627 87.748C80.0627 88.02 80.1201 88.2623 80.2349 88.4748C80.3539 88.6874 80.5133 88.8532 80.7131 88.9722C80.9171 89.0912 81.1466 89.1507 81.4017 89.1507ZM85.1625 86.0584C85.5748 86.0584 85.8915 86.1646 86.1126 86.3772C86.3336 86.5854 86.4441 86.8936 86.4441 87.3017V89.4121H86.1381V88.8191C86.0318 89.0147 85.8766 89.1677 85.6726 89.2782C85.4686 89.3845 85.2242 89.4376 84.9394 89.4376C84.5696 89.4376 84.2763 89.3505 84.0595 89.1762C83.847 89.0019 83.7407 88.7724 83.7407 88.4876C83.7407 88.2113 83.8385 87.9881 84.034 87.8181C84.2338 87.6438 84.5504 87.5567 84.984 87.5567H86.1253V87.2889C86.1253 86.9786 86.0403 86.7427 85.8703 86.5812C85.7045 86.4197 85.4601 86.3389 85.137 86.3389C84.916 86.3389 84.7035 86.3772 84.4994 86.4537C84.2997 86.5302 84.1296 86.6322 83.9894 86.7597L83.83 86.5302C83.9957 86.3814 84.1955 86.2666 84.4293 86.1859C84.6631 86.1009 84.9075 86.0584 85.1625 86.0584ZM84.984 89.1762C85.2603 89.1762 85.4941 89.1124 85.6854 88.9849C85.8809 88.8574 86.0275 88.6725 86.1253 88.4302V87.8054H84.9904C84.6631 87.8054 84.4251 87.8649 84.2763 87.9839C84.1318 88.1029 84.0595 88.2666 84.0595 88.4748C84.0595 88.6916 84.1403 88.8638 84.3018 88.9913C84.4633 89.1146 84.6907 89.1762 84.984 89.1762ZM90.3669 86.0839L88.6581 89.8648C88.5306 90.1581 88.3818 90.3664 88.2118 90.4896C88.046 90.6129 87.8484 90.6745 87.6188 90.6745C87.4658 90.6745 87.3213 90.649 87.1853 90.598C87.0535 90.547 86.9408 90.4726 86.8473 90.3749L87.0067 90.1326C87.1768 90.3069 87.3829 90.394 87.6252 90.394C87.7867 90.394 87.9249 90.3494 88.0396 90.2601C88.1544 90.1708 88.2607 90.0178 88.3584 89.801L88.537 89.3994L87.0386 86.0839H87.3765L88.7091 89.0614L90.0417 86.0839H90.3669ZM91.8681 89.4376C91.6003 89.4376 91.3453 89.3972 91.103 89.3165C90.8607 89.2357 90.6716 89.1337 90.5356 89.0104L90.6822 88.7554C90.8182 88.8702 90.9925 88.9658 91.205 89.0423C91.4218 89.1188 91.6471 89.1571 91.8809 89.1571C92.2167 89.1571 92.4632 89.1018 92.6205 88.9913C92.782 88.8808 92.8628 88.7278 92.8628 88.5322C92.8628 88.392 92.8181 88.2814 92.7289 88.2007C92.6439 88.1199 92.5376 88.0604 92.4101 88.0222C92.2826 87.9839 92.1062 87.9435 91.8809 87.901C91.6173 87.8543 91.4048 87.8032 91.2433 87.748C91.0818 87.6927 90.9436 87.6035 90.8289 87.4802C90.7141 87.3569 90.6567 87.1869 90.6567 86.9701C90.6567 86.7066 90.7651 86.4898 90.9819 86.3198C91.2029 86.1455 91.5153 86.0584 91.9191 86.0584C92.1317 86.0584 92.3421 86.0881 92.5504 86.1476C92.7586 86.2071 92.9287 86.2858 93.0604 86.3835L92.9138 86.6386C92.7778 86.5408 92.6226 86.4664 92.4483 86.4154C92.2741 86.3644 92.0955 86.3389 91.9128 86.3389C91.6025 86.3389 91.3687 86.3963 91.2114 86.5111C91.0541 86.6258 90.9755 86.7767 90.9755 86.9637C90.9755 87.1125 91.0201 87.2294 91.1094 87.3144C91.1987 87.3952 91.3071 87.4568 91.4346 87.4993C91.5663 87.5376 91.7491 87.5801 91.9829 87.6268C92.2422 87.6736 92.4505 87.7246 92.6077 87.7799C92.7693 87.8309 92.9053 87.9159 93.0158 88.0349C93.1263 88.1539 93.1816 88.3176 93.1816 88.5259C93.1816 88.8021 93.0668 89.0232 92.8373 89.189C92.6077 89.3547 92.2847 89.4376 91.8681 89.4376ZM97.3602 89.2017C97.2794 89.2782 97.1774 89.3377 97.0542 89.3802C96.9351 89.4185 96.8098 89.4376 96.678 89.4376C96.3889 89.4376 96.1658 89.359 96.0085 89.2017C95.8512 89.0402 95.7726 88.817 95.7726 88.5322V86.358H95.1605V86.0839H95.7726V85.357H96.0914V86.0839H97.1498V86.358H96.0914V88.5003C96.0914 88.7171 96.1424 88.8829 96.2444 88.9977C96.3507 89.1082 96.5058 89.1634 96.7099 89.1634C96.9181 89.1634 97.0903 89.1018 97.2263 88.9785L97.3602 89.2017ZM99.4316 89.4376C99.1171 89.4376 98.8323 89.3654 98.5773 89.2208C98.3265 89.0763 98.1288 88.8765 97.9843 88.6215C97.8398 88.3622 97.7675 88.071 97.7675 87.748C97.7675 87.4249 97.8398 87.1359 97.9843 86.8809C98.1288 86.6216 98.3265 86.4197 98.5773 86.2751C98.8323 86.1306 99.1171 86.0584 99.4316 86.0584C99.7462 86.0584 100.029 86.1306 100.28 86.2751C100.535 86.4197 100.734 86.6216 100.879 86.8809C101.024 87.1359 101.096 87.4249 101.096 87.748C101.096 88.071 101.024 88.3622 100.879 88.6215C100.734 88.8765 100.535 89.0763 100.28 89.2208C100.029 89.3654 99.7462 89.4376 99.4316 89.4376ZM99.4316 89.1507C99.6867 89.1507 99.9141 89.0912 100.114 88.9722C100.318 88.8532 100.477 88.6874 100.592 88.4748C100.711 88.2623 100.771 88.02 100.771 87.748C100.771 87.4759 100.711 87.2337 100.592 87.0211C100.477 86.8086 100.318 86.6428 100.114 86.5238C99.9141 86.4048 99.6867 86.3453 99.4316 86.3453C99.1766 86.3453 98.9471 86.4048 98.743 86.5238C98.5433 86.6428 98.3839 86.8086 98.2648 87.0211C98.1501 87.2337 98.0927 87.4759 98.0927 87.748C98.0927 88.02 98.1501 88.2623 98.2648 88.4748C98.3839 88.6874 98.5433 88.8532 98.743 88.9722C98.9471 89.0912 99.1766 89.1507 99.4316 89.1507ZM105.393 86.0584C105.703 86.0584 105.984 86.1306 106.234 86.2751C106.485 86.4154 106.681 86.6152 106.821 86.8745C106.966 87.1295 107.038 87.4207 107.038 87.748C107.038 88.0753 106.966 88.3665 106.821 88.6215C106.681 88.8765 106.485 89.0763 106.234 89.2208C105.984 89.3654 105.703 89.4376 105.393 89.4376C105.095 89.4376 104.825 89.3675 104.583 89.2272C104.345 89.0827 104.16 88.8829 104.028 88.6279V89.4121H103.722V84.6812H104.041V86.8426C104.173 86.5961 104.358 86.4048 104.596 86.2688C104.834 86.1285 105.1 86.0584 105.393 86.0584ZM105.374 89.1507C105.629 89.1507 105.858 89.0912 106.062 88.9722C106.266 88.8532 106.426 88.6874 106.541 88.4748C106.66 88.2623 106.719 88.02 106.719 87.748C106.719 87.4759 106.66 87.2337 106.541 87.0211C106.426 86.8086 106.266 86.6428 106.062 86.5238C105.858 86.4048 105.629 86.3453 105.374 86.3453C105.119 86.3453 104.889 86.4048 104.685 86.5238C104.485 86.6428 104.326 86.8086 104.207 87.0211C104.092 87.2337 104.035 87.4759 104.035 87.748C104.035 88.02 104.092 88.2623 104.207 88.4748C104.326 88.6874 104.485 88.8532 104.685 88.9722C104.889 89.0912 105.119 89.1507 105.374 89.1507ZM110.837 87.8245H107.974C107.982 88.0838 108.048 88.3154 108.172 88.5195C108.295 88.7193 108.461 88.8744 108.669 88.9849C108.881 89.0954 109.119 89.1507 109.383 89.1507C109.6 89.1507 109.8 89.1124 109.982 89.0359C110.169 88.9552 110.324 88.8383 110.448 88.6853L110.633 88.8957C110.488 89.0699 110.305 89.2038 110.084 89.2973C109.868 89.3909 109.632 89.4376 109.377 89.4376C109.045 89.4376 108.75 89.3654 108.49 89.2208C108.231 89.0763 108.027 88.8765 107.878 88.6215C107.734 88.3665 107.661 88.0753 107.661 87.748C107.661 87.4249 107.729 87.1359 107.865 86.8809C108.006 86.6216 108.197 86.4197 108.439 86.2751C108.682 86.1306 108.954 86.0584 109.255 86.0584C109.557 86.0584 109.827 86.1306 110.065 86.2751C110.307 86.4154 110.497 86.6131 110.633 86.8681C110.773 87.1231 110.843 87.4122 110.843 87.7352L110.837 87.8245ZM109.255 86.3389C109.022 86.3389 108.811 86.392 108.624 86.4983C108.437 86.6003 108.286 86.747 108.172 86.9382C108.061 87.1253 107.997 87.3378 107.98 87.5758H110.531C110.518 87.3378 110.454 87.1253 110.339 86.9382C110.225 86.7512 110.074 86.6046 109.887 86.4983C109.7 86.392 109.489 86.3389 109.255 86.3389ZM114.308 89.4376C114.041 89.4376 113.786 89.3972 113.543 89.3165C113.301 89.2357 113.112 89.1337 112.976 89.0104L113.123 88.7554C113.259 88.8702 113.433 88.9658 113.645 89.0423C113.862 89.1188 114.087 89.1571 114.321 89.1571C114.657 89.1571 114.904 89.1018 115.061 88.9913C115.222 88.8808 115.303 88.7278 115.303 88.5322C115.303 88.392 115.258 88.2814 115.169 88.2007C115.084 88.1199 114.978 88.0604 114.85 88.0222C114.723 87.9839 114.546 87.9435 114.321 87.901C114.058 87.8543 113.845 87.8032 113.684 87.748C113.522 87.6927 113.384 87.6035 113.269 87.4802C113.154 87.3569 113.097 87.1869 113.097 86.9701C113.097 86.7066 113.205 86.4898 113.422 86.3198C113.643 86.1455 113.956 86.0584 114.359 86.0584C114.572 86.0584 114.782 86.0881 114.991 86.1476C115.199 86.2071 115.369 86.2858 115.501 86.3835L115.354 86.6386C115.218 86.5408 115.063 86.4664 114.889 86.4154C114.714 86.3644 114.536 86.3389 114.353 86.3389C114.043 86.3389 113.809 86.3963 113.652 86.5111C113.494 86.6258 113.416 86.7767 113.416 86.9637C113.416 87.1125 113.46 87.2294 113.55 87.3144C113.639 87.3952 113.747 87.4568 113.875 87.4993C114.007 87.5376 114.189 87.5801 114.423 87.6268C114.683 87.6736 114.891 87.7246 115.048 87.7799C115.21 87.8309 115.346 87.9159 115.456 88.0349C115.567 88.1539 115.622 88.3176 115.622 88.5259C115.622 88.8021 115.507 89.0232 115.278 89.189C115.048 89.3547 114.725 89.4376 114.308 89.4376ZM120.656 86.0584C121.068 86.0584 121.391 86.1795 121.625 86.4218C121.863 86.6641 121.982 87.0126 121.982 87.4674V89.4121H121.663V87.493C121.663 87.1189 121.572 86.8341 121.389 86.6386C121.206 86.443 120.951 86.3453 120.624 86.3453C120.25 86.3453 119.952 86.4622 119.731 86.696C119.515 86.9297 119.406 87.2443 119.406 87.6396V89.4121H119.087V87.493C119.087 87.1189 118.996 86.8341 118.813 86.6386C118.631 86.443 118.375 86.3453 118.048 86.3453C117.674 86.3453 117.377 86.4622 117.156 86.696C116.939 86.9297 116.83 87.2443 116.83 87.6396V89.4121H116.512V86.0839H116.818V86.798C116.928 86.5642 117.092 86.3835 117.309 86.256C117.53 86.1242 117.791 86.0584 118.093 86.0584C118.395 86.0584 118.65 86.1264 118.858 86.2624C119.07 86.3984 119.221 86.5982 119.311 86.8617C119.421 86.6152 119.593 86.4197 119.827 86.2751C120.065 86.1306 120.341 86.0584 120.656 86.0584ZM124.421 86.0584C124.833 86.0584 125.15 86.1646 125.371 86.3772C125.592 86.5854 125.702 86.8936 125.702 87.3017V89.4121H125.396V88.8191C125.29 89.0147 125.135 89.1677 124.931 89.2782C124.727 89.3845 124.482 89.4376 124.197 89.4376C123.828 89.4376 123.534 89.3505 123.318 89.1762C123.105 89.0019 122.999 88.7724 122.999 88.4876C122.999 88.2113 123.097 87.9881 123.292 87.8181C123.492 87.6438 123.809 87.5567 124.242 87.5567H125.383V87.2889C125.383 86.9786 125.298 86.7427 125.128 86.5812C124.963 86.4197 124.718 86.3389 124.395 86.3389C124.174 86.3389 123.962 86.3772 123.758 86.4537C123.558 86.5302 123.388 86.6322 123.247 86.7597L123.088 86.5302C123.254 86.3814 123.454 86.2666 123.687 86.1859C123.921 86.1009 124.166 86.0584 124.421 86.0584ZM124.242 89.1762C124.518 89.1762 124.752 89.1124 124.943 88.9849C125.139 88.8574 125.286 88.6725 125.383 88.4302V87.8054H124.248C123.921 87.8054 123.683 87.8649 123.534 87.9839C123.39 88.1029 123.318 88.2666 123.318 88.4748C123.318 88.6916 123.398 88.8638 123.56 88.9913C123.721 89.1146 123.949 89.1762 124.242 89.1762ZM127.322 86.8107C127.424 86.5684 127.583 86.3835 127.8 86.256C128.017 86.1242 128.28 86.0584 128.591 86.0584V86.3708L128.514 86.3644C128.144 86.3644 127.855 86.4813 127.647 86.7151C127.439 86.9446 127.335 87.2655 127.335 87.6779V89.4121H127.016V86.0839H127.322V86.8107ZM131.27 89.2017C131.189 89.2782 131.087 89.3377 130.964 89.3802C130.845 89.4185 130.719 89.4376 130.588 89.4376C130.298 89.4376 130.075 89.359 129.918 89.2017C129.761 89.0402 129.682 88.817 129.682 88.5322V86.358H129.07V86.0839H129.682V85.357H130.001V86.0839H131.059V86.358H130.001V88.5003C130.001 88.7171 130.052 88.8829 130.154 88.9977C130.26 89.1082 130.415 89.1634 130.619 89.1634C130.828 89.1634 131 89.1018 131.136 88.9785L131.27 89.2017ZM132.101 84.949H132.471L132.407 88.1305H132.165L132.101 84.949ZM132.286 89.4376C132.214 89.4376 132.152 89.4121 132.101 89.3611C132.05 89.3101 132.025 89.2485 132.025 89.1762C132.025 89.1039 132.05 89.0423 132.101 88.9913C132.152 88.9403 132.214 88.9148 132.286 88.9148C132.363 88.9148 132.427 88.9403 132.478 88.9913C132.529 89.0423 132.554 89.1039 132.554 89.1762C132.554 89.2485 132.529 89.3101 132.478 89.3611C132.427 89.4121 132.363 89.4376 132.286 89.4376Z" fill="black"/>
<defs>
<linearGradient id="paint0_linear_741_5219" x1="176.599" y1="79.9647" x2="176.599" y2="68.8494" gradientUnits="userSpaceOnUse">
<stop stop-color="#A6A7AA"/>
<stop offset="1" stop-color="white"/>
</linearGradient>
<linearGradient id="paint1_linear_741_5219" x1="97.5745" y1="32.1185" x2="97.6898" y2="45.452" gradientUnits="userSpaceOnUse">
<stop stop-color="#F19B59"/>
<stop offset="0.322" stop-color="#F0D2AB"/>
<stop offset="0.671" stop-color="#F4A46E"/>
<stop offset="1" stop-color="#F87935"/>
</linearGradient>
<linearGradient id="paint2_linear_741_5219" x1="80.7573" y1="75.7448" x2="80.7573" y2="63.341" gradientUnits="userSpaceOnUse">
<stop stop-color="#A2A3A7"/>
<stop offset="1" stop-color="#DFDEDF"/>
</linearGradient>
<linearGradient id="paint3_linear_741_5219" x1="137.295" y1="73.4144" x2="137.295" y2="56.9578" gradientUnits="userSpaceOnUse">
<stop stop-color="#A2A3A7"/>
<stop offset="1" stop-color="#DFDEDF"/>
</linearGradient>
<linearGradient id="paint4_linear_741_5219" x1="164.173" y1="72.9647" x2="164.173" y2="83.1937" gradientUnits="userSpaceOnUse">
<stop stop-color="#A6A7AA"/>
<stop offset="1" stop-color="white"/>
</linearGradient>
<linearGradient id="paint5_linear_741_5219" x1="191.39" y1="73.0475" x2="191.39" y2="83.4743" gradientUnits="userSpaceOnUse">
<stop stop-color="#A6A7AA"/>
<stop offset="1" stop-color="white"/>
</linearGradient>
<linearGradient id="paint6_linear_741_5219" x1="3.84693" y1="59.9534" x2="10.6418" y2="61.937" gradientUnits="userSpaceOnUse">
<stop stop-color="#F37422"/>
<stop offset="1" stop-color="#E43922"/>
</linearGradient>
<linearGradient id="paint7_linear_741_5219" x1="28.1975" y1="50.6097" x2="39.0751" y2="52.0524" gradientUnits="userSpaceOnUse">
<stop stop-color="#F38620"/>
<stop offset="1" stop-color="#E5412C"/>
</linearGradient>
<linearGradient id="paint8_linear_741_5219" x1="20.1524" y1="12.6495" x2="26.6521" y2="13.5227" gradientUnits="userSpaceOnUse">
<stop stop-color="#C87AC1"/>
<stop offset="0.446" stop-color="#C278BA"/>
<stop offset="1" stop-color="#BB75B2"/>
</linearGradient>
<linearGradient id="paint9_linear_741_5219" x1="32.8017" y1="14.5747" x2="38.1668" y2="18.2312" gradientUnits="userSpaceOnUse">
<stop stop-color="#C87AC1"/>
<stop offset="0.262" stop-color="#EAB7DC"/>
<stop offset="1" stop-color="#BB75B2"/>
</linearGradient>
<linearGradient id="paint10_linear_741_5219" x1="41.241" y1="56.8322" x2="44.4864" y2="65.2919" gradientUnits="userSpaceOnUse">
<stop stop-color="#EF8A23"/>
<stop offset="1" stop-color="#F03B1E"/>
</linearGradient>
</defs>
</svg>
