<svg width="368" height="406" viewBox="0 0 368 406" fill="none" xmlns="http://www.w3.org/2000/svg">
<g clip-path="url(#clip0_177_2355)">
<path d="M151.752 283.148C158.286 286.304 157.865 295.139 147.959 299.346C133.837 305.236 103.487 279.782 93.7914 269.475C81.1453 256.222 60.7009 238.131 47.001 240.655C33.3011 243.39 20.8658 243.179 32.2473 232.03C43.8395 220.881 72.9254 232.661 87.6791 236.658C87.6791 236.658 88.3114 211.625 107.491 217.936C107.491 217.936 114.868 220.25 109.81 231.399C104.751 242.548 109.599 252.646 112.76 256.432C115.922 260.429 116.133 264.636 116.133 264.636C116.133 264.636 145.008 279.993 151.752 283.148Z" fill="black"/>
<path d="M116.133 266.74C118.662 267.581 145.008 282.307 150.699 285.041C152.807 286.093 153.86 287.776 153.86 289.669C153.86 292.614 151.331 295.349 147.116 297.032C145.008 297.874 142.479 298.294 139.95 298.084C133.205 297.663 111.918 282.727 103.065 274.944C108.756 274.103 113.182 270.106 116.133 266.74Z" fill="url(#paint0_radial_177_2355)"/>
<path d="M33.7224 233.503C42.3638 227.192 56.9068 228.664 72.082 233.503C75.0328 234.344 84.5173 237.92 87.0465 238.762L89.7865 239.393V236.658C89.7865 236.448 90.208 226.14 95.4772 221.302C97.3741 219.619 99.9033 218.777 102.854 218.988C104.119 218.988 105.594 219.408 107.069 219.829C107.069 219.829 108.545 220.25 109.177 221.933C110.02 223.826 109.599 226.771 107.912 230.347C102.433 242.338 107.491 253.277 111.074 257.694C113.814 261.06 114.025 264.636 114.025 264.636V265.057C109.599 270.526 104.751 272.63 100.957 273.682C99.0603 271.999 97.1634 270.106 95.0557 268.002C86.625 259.167 76.2974 248.859 63.2298 241.496C59.2252 239.182 50.5838 237.71 46.3684 238.762C40.8884 239.813 36.2516 240.234 33.0901 240.024C30.3501 239.813 29.7178 239.182 29.7178 239.182C29.9285 238.972 29.0855 236.868 33.7224 233.503Z" fill="url(#paint1_radial_177_2355)"/>
<path d="M273.787 228.664C267.042 238.131 261.562 243.179 260.93 252.435C260.298 261.691 254.185 292.614 238.167 302.922C238.167 302.922 240.275 313.861 234.373 324.8C228.472 335.739 225.521 332.794 224.889 339.946C224.256 347.098 215.404 358.037 206.973 363.507C198.753 368.976 198.753 370.449 196.013 376.549C193.273 382.86 167.981 399.689 142.689 399.058C117.397 398.427 135.523 353.83 133.415 339.946C131.308 326.062 137.209 318.91 140.792 314.071C144.375 309.233 137.42 291.352 145.64 281.045C145.64 281.045 141.425 261.27 145.851 251.383C150.488 241.707 145.851 235.185 139.949 231.609C139.949 231.609 139.949 231.609 139.739 231.609C133.837 228.033 118.451 221.302 119.294 205.104C119.926 188.906 138.474 109.599 138.474 109.599C138.474 109.599 151.752 81.2 192.43 77.6238C233.108 74.0476 264.513 104.971 280.742 136.105C296.971 167.449 280.531 218.988 273.787 228.664Z" fill="black"/>
<path d="M142.479 397.165C138.685 397.165 136.156 395.903 134.259 393.799C128.779 387.278 131.519 371.711 133.627 359.299C134.891 351.306 136.156 344.574 135.313 339.946C133.416 327.535 138.263 321.224 141.846 316.385L142.479 315.544C144.376 313.02 144.165 308.812 143.743 303.343C143.322 296.401 142.69 287.986 147.326 282.307L147.959 281.465L147.748 280.413C147.748 280.203 143.743 261.06 147.959 252.014C152.174 242.759 149.856 234.554 141.214 229.295C140.582 228.875 139.95 228.454 139.107 228.033C132.362 224.247 121.191 217.936 121.824 204.683C122.456 189.326 139.739 114.648 140.793 109.809C142.057 107.495 155.336 82.6725 192.641 79.3067C194.749 79.0963 196.857 79.0963 198.754 79.0963C245.333 79.0963 271.89 123.273 278.845 136.736C294.864 167.869 278.002 218.567 272.101 226.981C270.625 228.875 269.361 230.557 268.096 232.24C263.249 238.762 259.455 243.81 258.822 251.804C258.19 259.588 252.71 290.511 236.903 300.608L235.638 301.45L235.849 302.922C235.849 302.922 237.746 313.23 232.266 323.538C229.526 328.376 227.629 330.269 226.153 331.742C224.046 333.635 222.781 335.108 222.57 339.525C222.149 345.415 214.14 355.934 205.709 361.403C198.121 366.452 197.068 368.345 194.749 373.604C194.538 374.235 194.328 374.866 193.906 375.497C191.588 380.756 167.982 396.744 143.743 396.744C143.111 397.165 142.69 397.165 142.479 397.165Z" fill="url(#paint2_radial_177_2355)"/>
<path d="M121.402 131.897C121.402 131.897 112.128 133.58 104.962 123.062C104.962 123.062 106.227 129.163 108.545 131.477C108.545 131.477 106.016 131.897 104.541 130.004C104.541 130.004 105.805 134.211 108.545 135.684C108.545 135.684 105.595 136.525 104.33 135.684C104.33 135.684 106.649 146.202 118.662 145.992L121.402 131.897Z" fill="#051018"/>
<path d="M142.057 212.466C157.655 212.466 170.3 188.921 170.3 159.876C170.3 130.831 157.655 107.285 142.057 107.285C126.459 107.285 113.814 130.831 113.814 159.876C113.814 188.921 126.459 212.466 142.057 212.466Z" fill="#051018"/>
<path d="M139.95 207.628C153.337 207.628 164.188 186.343 164.188 160.086C164.188 133.829 153.337 112.544 139.95 112.544C126.564 112.544 115.712 133.829 115.712 160.086C115.712 186.343 126.564 207.628 139.95 207.628Z" fill="white"/>
<path d="M141.974 190.553C149.41 190.107 154.912 181.002 154.263 170.217C153.613 159.431 147.058 151.05 139.622 151.496C132.186 151.942 126.684 161.047 127.333 171.832C127.983 182.617 134.537 190.999 141.974 190.553Z" fill="#6E201A"/>
<path d="M141.834 184.468C147.179 184.147 151.138 177.682 150.678 170.028C150.217 162.374 145.51 156.429 140.165 156.75C134.82 157.07 130.861 163.535 131.322 171.189C131.783 178.843 136.489 184.788 141.834 184.468Z" fill="#AF6D48"/>
<path d="M146.671 184.471C150.157 184.262 152.711 179.58 152.376 174.013C152.041 168.446 148.943 164.103 145.457 164.312C141.971 164.521 139.417 169.203 139.752 174.77C140.088 180.337 143.185 184.68 146.671 184.471Z" fill="#051018"/>
<path d="M136.697 177.533C141.461 177.248 145.079 172.973 144.779 167.987C144.479 163 140.373 159.189 135.609 159.475C130.845 159.761 127.227 164.035 127.527 169.021C127.827 174.008 131.933 177.819 136.697 177.533Z" fill="#FFFDFB"/>
<path d="M204.022 122.431C204.022 122.431 215.825 124.535 225.099 111.703C225.099 111.703 223.624 119.065 220.673 122.01C220.673 122.01 223.835 122.431 225.731 120.117C225.731 120.117 224.256 125.166 220.673 127.059C220.673 127.059 224.256 128.111 225.942 127.059C225.942 127.059 222.992 139.891 207.606 139.681L204.022 122.431Z" fill="#051018"/>
<path d="M182.524 214.149C200.101 214.149 214.35 186.177 214.35 151.671C214.35 117.166 200.101 89.1938 182.524 89.1938C164.947 89.1938 150.698 117.166 150.698 151.671C150.698 186.177 164.947 214.149 182.524 214.149Z" fill="#051018"/>
<path d="M180.417 208.469C195.433 208.469 207.606 183.134 207.606 151.882C207.606 120.629 195.433 95.2943 180.417 95.2943C165.4 95.2943 153.228 120.629 153.228 151.882C153.228 183.134 165.4 208.469 180.417 208.469Z" fill="white"/>
<path d="M188.636 181.964C198.88 181.964 207.184 170.285 207.184 155.879C207.184 141.472 198.88 129.794 188.636 129.794C178.393 129.794 170.089 141.472 170.089 155.879C170.089 170.285 178.393 181.964 188.636 181.964Z" fill="#6E201A"/>
<path d="M189.058 173.97C196.391 173.97 202.336 165.776 202.336 155.668C202.336 145.561 196.391 137.367 189.058 137.367C181.724 137.367 175.779 145.561 175.779 155.668C175.779 165.776 181.724 173.97 189.058 173.97Z" fill="#AF6D48"/>
<path d="M195.592 174.391C200.48 174.391 204.444 168.363 204.444 160.927C204.444 153.492 200.48 147.464 195.592 147.464C190.703 147.464 186.739 153.492 186.739 160.927C186.739 168.363 190.703 174.391 195.592 174.391Z" fill="#051018"/>
<path d="M182.524 164.293C189.159 164.293 194.538 158.925 194.538 152.303C194.538 145.68 189.159 140.312 182.524 140.312C175.889 140.312 170.511 145.68 170.511 152.303C170.511 158.925 175.889 164.293 182.524 164.293Z" fill="#FFFDFB"/>
<path d="M238.378 75.9409C238.378 75.9409 242.383 45.2279 261.773 37.6549C261.773 37.6549 271.258 14.0943 295.707 22.9295C295.707 22.9295 312.99 20.1948 326.9 32.8166C342.076 46.7005 340.389 60.1637 335.331 63.3191C335.331 63.3191 354.511 77.8342 353.668 95.715L348.609 98.029C348.609 98.029 350.085 103.078 352.192 104.13C354.3 105.181 355.354 109.178 355.143 112.965C354.932 116.751 354.932 118.434 358.937 119.065C362.942 119.696 359.991 131.056 357.251 132.949C354.511 134.842 356.829 140.733 359.358 140.733C359.358 140.733 356.408 144.098 353.878 144.098C351.349 144.098 352.403 149.778 355.986 149.568C355.986 149.568 355.354 155.037 348.82 154.827C348.82 154.827 348.82 167.659 336.596 172.708C336.596 172.708 334.066 165.345 335.12 162.19C335.12 162.19 333.013 165.135 330.694 165.345C330.694 165.345 328.165 160.927 329.219 157.351C329.219 157.351 326.268 158.824 324.16 159.034C324.16 159.034 322.263 153.775 322.685 152.723C322.685 152.723 313.411 150.199 312.568 143.257C312.568 143.257 310.25 146.412 305.613 146.202C305.613 146.202 306.245 140.522 303.294 137.367C300.344 134.211 296.128 128.742 296.971 119.907C297.814 111.071 297.814 105.812 297.814 105.812C297.814 105.812 293.177 104.971 290.016 107.075L290.859 91.2974C290.859 91.2974 282.85 90.4559 279.688 92.3492C279.688 92.3492 280.11 78.2549 280.321 70.0507C280.531 61.8466 269.993 60.3741 268.096 60.5844C266.199 60.7948 253.132 65.6331 252.921 86.0383L238.378 75.9409Z" fill="#1D3021"/>
<path d="M282.429 88.1419C282.429 88.1419 289.595 86.6694 292.756 87.9316C292.756 87.9316 294.232 97.6083 293.388 102.447H303.084C303.084 102.447 304.138 96.5564 302.662 93.1906C306.245 95.715 306.878 100.974 306.878 100.974L319.945 97.6083C319.945 97.6083 316.573 83.514 309.196 78.2549C309.196 78.2549 323.739 80.7792 329.851 88.3523L331.959 75.0995C331.959 75.0995 321.842 68.9989 313.833 67.9471L330.905 69.4197L329.219 58.4808L335.331 57.0083C335.331 57.0083 332.802 38.4963 319.102 31.344C305.402 24.1917 292.545 25.2435 292.545 25.2435C292.545 25.2435 273.998 17.6704 264.724 36.3927C264.724 36.3927 267.253 33.658 275.052 35.5513C275.052 35.5513 249.127 40.1792 243.226 66.2642C242.594 68.5782 243.858 71.1026 245.966 72.3647L246.387 72.5751C249.338 74.258 253.132 73.2062 254.607 70.0508C256.715 65.6331 260.298 59.9533 266.41 57.2186C272.523 54.4839 275.262 54.4839 285.169 54.9046C285.169 54.9046 276.106 55.5357 273.576 57.0083C273.155 57.0083 288.752 59.5326 282.429 88.1419Z" fill="url(#paint3_radial_177_2355)"/>
<path opacity="0.3" d="M326.086 46.4185C327.923 43.0515 323.528 37.1244 316.27 33.1798C309.012 29.2352 301.64 28.767 299.803 32.134C297.966 35.5009 302.36 41.4281 309.618 45.3727C316.876 49.3173 324.249 49.7855 326.086 46.4185Z" fill="#FFFFFD"/>
<path opacity="0.3" d="M324.818 59.4157C325.653 57.8852 323.678 55.2034 320.407 53.4255C317.135 51.6477 313.807 51.4471 312.972 52.9776C312.137 54.508 314.112 57.1899 317.383 58.9677C320.654 60.7456 323.983 60.9461 324.818 59.4157Z" fill="#FFFFFD"/>
<path d="M311.514 111.282C311.514 111.282 314.675 124.535 318.891 128.321L307.509 137.577C307.509 137.577 299.711 127.269 300.554 115.91C301.186 104.55 301.186 104.55 301.186 104.55L322.263 98.8704C322.263 98.8704 327.321 112.334 326.478 121.59C326.478 121.59 337.438 122.221 339.546 116.962C339.546 116.962 337.438 102.026 333.223 97.3979L345.658 94.6632C345.658 94.6632 345.026 104.55 348.187 106.023C351.56 107.706 349.241 119.276 349.241 119.276C349.241 119.276 356.618 121.8 355.564 126.428C354.51 131.056 350.506 128.742 346.501 126.428C346.501 126.428 350.295 129.794 352.403 134.211C354.51 138.839 350.506 142.205 348.398 140.943C346.291 139.681 346.291 139.681 346.291 139.681C346.291 139.681 351.349 146.623 348.609 150.409C346.08 154.196 343.551 151.04 343.551 151.04C343.551 151.04 346.923 160.717 340.178 165.555C340.178 165.555 338.703 156.931 337.438 155.248C337.438 155.248 335.331 158.403 333.012 159.245C333.012 159.245 329.218 155.037 330.694 150.199C332.169 145.361 334.488 146.833 336.595 143.888C338.492 140.943 332.38 138.419 330.061 139.26C327.743 140.102 331.958 140.733 332.38 143.467C332.801 145.992 330.483 152.723 324.16 150.199C317.837 147.675 310.671 140.312 314.465 137.577C318.258 134.632 322.263 134.211 322.685 131.687C323.106 129.163 321.42 126.638 321.42 126.638C321.42 126.638 316.572 125.376 311.514 111.282Z" fill="url(#paint4_radial_177_2355)"/>
<path d="M314.465 81.2C314.465 81.2 332.802 91.087 338.071 116.12C338.071 116.12 334.277 120.327 327.743 120.538C327.954 120.327 326.689 95.2942 314.465 81.2Z" fill="url(#paint5_radial_177_2355)"/>
<path d="M333.224 70.2611C333.224 70.2611 343.13 76.9927 344.394 84.9865C345.659 92.9803 342.708 95.715 333.434 95.5046C329.219 95.5046 329.219 90.6663 331.327 87.3005C332.591 84.9865 336.174 75.9409 333.224 70.2611Z" fill="url(#paint6_radial_177_2355)"/>
<path d="M198.121 65.0021C198.121 65.0021 200.65 39.3378 186.318 29.6611C186.318 29.6611 183.157 8.83521 161.448 11.5699C161.448 11.5699 147.959 6.10049 134.259 13.8839C119.294 22.2984 118.451 33.658 121.823 37.0238C121.823 37.0238 103.697 45.228 100.957 59.743L104.751 62.6881C104.751 62.6881 102.644 66.4746 100.747 66.8953C98.8497 67.316 97.3744 70.2611 96.7421 73.4166C96.1098 76.572 95.899 77.8342 92.5267 77.6238C89.1544 77.4135 89.576 87.0901 91.2621 89.1938C93.159 91.2974 90.2083 95.715 88.1006 95.0839C88.1006 95.0839 89.7867 98.2394 91.8944 98.8704C94.0021 99.2912 92.1052 103.709 89.1544 102.867C89.1544 102.867 88.5221 107.285 94.0021 108.337C94.0021 108.337 91.6836 118.645 100.747 125.166C100.747 125.166 104.119 119.696 103.908 116.962C103.908 116.962 104.962 119.696 106.859 120.327C106.859 120.327 109.81 117.172 109.599 114.017C109.599 114.017 111.707 115.699 113.393 116.331C113.393 116.331 115.922 112.334 115.711 111.492C115.711 111.492 123.72 111.071 125.617 105.812C125.617 105.812 126.882 108.757 130.676 109.389C130.676 109.389 131.308 104.55 134.259 102.657C137.209 100.764 141.636 96.9772 142.689 89.6145C143.743 82.2518 144.586 78.0445 144.586 78.0445C144.586 78.0445 148.38 78.0445 150.699 80.3585L153.017 67.316C153.017 67.316 159.762 68.1575 161.869 70.2611C161.869 70.2611 164.188 58.9015 165.452 51.9596C166.717 45.228 175.569 45.859 177.044 46.4901C178.52 47.1212 188.215 53.4321 184.632 69.8404L198.121 65.0021Z" fill="#1D3021"/>
<path d="M160.183 66.8953C160.183 66.8953 154.493 64.371 151.753 64.7917C151.753 64.7917 148.802 72.3647 148.591 76.3616L140.582 74.4684C140.582 74.4684 140.793 69.4197 142.479 66.8953C139.107 68.1575 137.631 72.3647 137.631 72.3647L127.725 67.316C127.725 67.316 133.205 56.5875 139.95 53.6425C139.95 53.6425 127.725 53.0114 121.191 58.0601L122.034 46.9109C122.034 46.9109 131.308 43.7554 138.053 44.3865L124.353 42.7036L127.725 34.0787L123.088 31.7647C123.088 31.7647 128.568 17.2497 141.004 13.8839C153.439 10.5181 163.766 13.8839 163.766 13.8839C163.766 13.8839 180.206 11.1492 184.422 27.9782C184.422 27.9782 182.736 25.2435 176.202 25.2435C176.202 25.2435 196.435 33.8684 196.435 55.9565C196.435 58.0601 194.96 59.743 193.063 60.3741H192.642C189.902 61.2155 187.162 59.5326 186.529 56.7979C185.686 52.801 183.789 47.5419 179.363 44.3865C174.937 41.0207 172.619 40.6 164.61 39.1274C164.61 39.1274 171.776 41.4414 173.673 42.914C173.462 43.3347 160.394 42.4932 160.183 66.8953Z" fill="url(#paint7_radial_177_2355)"/>
<path opacity="0.3" d="M146.119 27.1007C152.728 25.2369 157.392 21.279 156.538 18.2604C155.683 15.2418 149.633 14.3056 143.024 16.1694C136.415 18.0332 131.75 21.9911 132.605 25.0097C133.459 28.0283 139.51 28.9645 146.119 27.1007Z" fill="#FFFFFD"/>
<path opacity="0.3" d="M137.275 36.6936C140.3 35.8407 142.444 34.0617 142.064 32.7201C141.684 31.3785 138.924 30.9823 135.9 31.8352C132.876 32.6882 130.732 34.4672 131.112 35.8088C131.491 37.1504 134.251 37.5465 137.275 36.6936Z" fill="#FFFFFD"/>
<path d="M132.362 80.1482C132.362 80.1482 127.303 90.2456 123.299 92.5596L130.886 102.026C130.886 102.026 139.106 95.0839 140.582 85.6176C142.057 76.1513 142.057 76.1513 142.057 76.1513L126.039 67.7368C126.039 67.7368 119.294 77.6238 118.451 85.1969C118.451 85.1969 109.599 83.7243 108.756 79.0963C108.756 79.0963 113.182 67.316 117.397 64.371L107.913 59.9533C107.913 59.9533 106.648 67.9471 103.697 68.7886C100.747 69.4197 100.536 79.3067 100.536 79.3067C100.536 79.3067 94.2127 79.9378 94.002 83.9347C94.002 87.9316 97.585 86.6694 101.379 85.6176C101.379 85.6176 97.7958 87.5109 95.2666 90.8767C92.7374 94.2425 95.2666 97.8186 97.3742 97.1875C99.4819 96.5564 99.2711 96.5564 99.2711 96.5564C99.2711 96.5564 94.002 101.395 95.4773 104.761C96.9527 108.126 99.4819 106.233 99.4819 106.233C99.4819 106.233 94.845 113.385 99.4819 118.645C99.4819 118.645 102.222 111.913 103.697 110.861C103.697 110.861 104.962 113.806 106.648 114.858C106.648 114.858 110.653 112.123 110.231 107.916C109.81 103.709 107.702 104.55 106.648 101.605C105.594 98.8704 111.074 97.8186 112.76 99.0808C114.446 100.133 110.863 99.9223 110.02 102.026C109.177 104.13 109.81 109.809 115.5 108.968C121.191 108.126 128.146 103.498 125.617 100.553C123.088 97.6083 119.926 96.3461 120.137 94.4528C120.348 92.5596 122.034 90.6663 122.034 90.6663C122.034 90.6663 125.617 90.6663 132.362 80.1482Z" fill="url(#paint8_radial_177_2355)"/>
<path d="M135.523 55.3254C135.523 55.3254 118.873 59.9534 110.021 79.3067C110.021 79.3067 112.339 83.514 117.608 84.7762C117.397 84.5658 123.088 64.5813 135.523 55.3254Z" fill="url(#paint9_radial_177_2355)"/>
<path d="M122.456 42.914C122.456 42.914 113.182 46.4901 110.653 52.801C108.124 59.1119 110.02 61.8466 117.608 63.3192C120.98 63.9502 122.034 60.1637 120.77 57.0083C120.137 55.115 118.873 47.1212 122.456 42.914Z" fill="url(#paint10_radial_177_2355)"/>
<path d="M222.992 74.6787C222.992 74.6787 210.978 77.8342 215.615 87.7212C219.62 96.1357 234.795 87.0901 237.535 78.6756C240.064 70.6818 238.8 62.6881 230.79 62.4777C222.571 62.4777 220.674 70.4715 222.992 74.6787Z" fill="url(#paint11_linear_177_2355)" stroke="#050000" stroke-width="0.15" stroke-miterlimit="10"/>
<path d="M241.961 95.0839C248.014 95.0839 252.921 90.1864 252.921 84.145C252.921 78.1037 248.014 73.2062 241.961 73.2062C235.908 73.2062 231.001 78.1037 231.001 84.145C231.001 90.1864 235.908 95.0839 241.961 95.0839Z" fill="url(#paint12_linear_177_2355)" stroke="#050000" stroke-width="0.15" stroke-miterlimit="10"/>
<path d="M263.881 95.5046C263.881 95.5046 266.831 110.651 253.553 111.071C241.75 111.492 243.647 89.1938 251.445 81.6207C259.033 74.258 268.728 71.3129 273.365 80.1482C278.002 88.9834 269.993 95.715 263.881 95.5046Z" fill="url(#paint13_linear_177_2355)" stroke="#050000" stroke-width="0.15" stroke-miterlimit="10"/>
<path d="M165.874 69.8404C165.874 69.8404 157.232 77.8342 165.242 83.9347C172.197 89.4041 181.26 75.0995 179.785 66.685C178.52 58.6912 173.883 52.5907 166.928 55.9565C160.183 59.743 162.08 67.316 165.874 69.8404Z" fill="url(#paint14_linear_177_2355)" stroke="#050000" stroke-width="0.15" stroke-miterlimit="10"/>
<path d="M186.108 80.1482C191.928 80.1482 196.646 75.439 196.646 69.63C196.646 63.821 191.928 59.1119 186.108 59.1119C180.288 59.1119 175.569 63.821 175.569 69.63C175.569 75.439 180.288 80.1482 186.108 80.1482Z" fill="url(#paint15_linear_177_2355)" stroke="#050000" stroke-width="0.15" stroke-miterlimit="10"/>
<path d="M209.503 69.63C209.503 69.63 218.566 81.2 207.606 87.3005C197.911 92.7699 189.691 73.2062 193.063 63.3191C196.225 53.8528 203.18 46.9109 210.979 52.5906C218.777 58.0601 214.772 67.1057 209.503 69.63Z" fill="url(#paint16_linear_177_2355)" stroke="#050000" stroke-width="0.15" stroke-miterlimit="10"/>
<path d="M236.481 211.414C236.06 210.783 226.575 197.951 224.046 207.207C221.517 216.674 208.238 260.219 183.578 271.157C158.919 282.096 154.493 260.008 154.493 252.014C154.493 244.021 149.434 235.185 141.214 232.03C141.003 231.82 140.582 231.82 140.371 231.609C140.371 231.609 140.371 231.609 140.16 231.609C134.259 228.033 118.873 221.302 119.716 205.104C119.716 205.104 124.142 226.771 147.116 228.875C170.089 230.978 182.314 232.24 203.18 217.094C221.938 203.21 223.414 195.427 230.158 200.055C236.27 204.262 236.27 210.783 236.481 211.414Z" fill="black"/>
<path d="M151.331 238.341C145.641 234.134 142.69 229.295 150.277 230.978C158.076 232.871 181.682 233.713 197.489 223.195C213.297 212.466 221.306 206.155 221.306 206.155C221.306 206.155 208.66 244.862 191.166 262.322C175.359 278.099 157.233 271.578 157.022 256.011C157.022 245.914 156.179 242.127 151.331 238.341Z" fill="white"/>
<path d="M157.864 277.679C164.609 275.996 171.775 275.365 178.941 275.365C186.107 275.365 193.273 276.417 200.229 278.099C203.601 279.151 207.184 280.203 210.345 281.676C213.718 283.148 216.879 284.831 219.83 286.935C225.731 290.932 230.79 296.401 234.373 302.502C229.525 297.453 224.256 293.035 218.144 289.669C212.242 286.304 205.708 283.779 199.175 282.096C192.641 280.203 185.686 279.151 178.941 278.52C171.986 277.889 165.03 277.679 157.864 277.679Z" fill="black"/>
<path d="M151.12 313.02C157.232 311.337 163.555 310.495 169.878 310.285C176.201 309.864 182.524 310.285 188.847 311.126C192.009 311.757 195.171 312.389 198.121 313.23C201.283 314.282 204.234 315.334 206.973 317.017C212.664 319.962 217.723 324.8 220.041 330.69C216.247 325.641 211.189 322.276 205.498 319.751C200.018 317.437 193.906 315.965 188.004 314.913C181.892 313.861 175.78 313.44 169.668 313.23C163.555 313.02 157.443 312.809 151.12 313.02Z" fill="black"/>
<path d="M140.793 348.15C145.43 345.626 150.699 344.153 155.968 343.102C161.237 342.26 166.717 342.05 171.987 342.891C174.727 343.312 177.256 343.943 179.996 344.995C182.525 346.047 185.054 347.309 187.162 348.992C191.588 352.147 194.96 356.775 196.857 361.613C193.485 357.617 189.691 354.04 185.476 351.516C181.26 348.992 176.413 347.519 171.354 346.678C166.507 345.836 161.237 345.836 156.179 346.047C151.121 346.467 146.062 347.098 140.793 348.15Z" fill="black"/>
<path opacity="0.8" d="M266.41 167.028C266.41 167.028 249.548 166.818 240.907 144.94C232.265 122.852 240.907 112.754 250.813 112.754C260.719 112.754 272.943 125.166 275.051 144.94C277.159 164.504 272.311 162.61 277.37 167.659C282.428 172.708 280.32 187.012 270.625 189.326C260.93 191.64 262.616 176.284 265.777 172.497C269.15 168.711 268.517 168.08 266.41 167.028Z" fill="#F4AD59"/>
<path d="M251.656 260.85C251.656 260.85 226.153 264.216 217.512 273.471C217.512 273.471 218.776 251.594 203.812 246.545C188.847 241.496 184.21 252.435 188.004 257.274C191.798 262.322 197.067 263.374 197.699 269.475C197.699 269.475 174.515 276.837 186.318 305.447C186.318 305.447 187.372 321.855 204.022 326.483C220.673 331.111 223.835 316.596 222.57 309.864C221.305 303.133 225.732 297.032 225.521 291.773C225.521 291.773 230.579 281.465 240.274 283.359L254.607 279.782C254.607 279.782 260.93 276.206 259.665 268.633C258.611 261.27 251.656 260.85 251.656 260.85Z" fill="black"/>
<path d="M189.691 256.222C188.637 254.749 188.426 252.856 189.269 250.963C190.323 248.649 192.852 247.176 196.225 246.966C198.332 246.966 200.651 247.176 203.391 248.228C216.669 252.646 215.826 273.051 215.826 273.261L215.615 276.417C210.135 273.051 204.234 270.947 199.808 269.685V269.264C199.175 264.636 196.435 262.322 193.906 260.219C192.431 259.167 190.955 257.905 189.691 256.222Z" fill="url(#paint17_radial_177_2355)"/>
<path d="M223.835 286.724C224.678 287.987 224.889 289.459 224.257 290.932L224.046 291.352V291.773C224.046 293.666 223.414 295.77 222.571 298.294C221.517 301.87 220.252 305.867 221.095 310.285C221.728 313.651 221.095 318.699 218.566 322.065C216.669 324.379 214.14 325.431 210.979 325.641C209.082 325.641 207.185 325.431 204.866 324.8C189.691 320.803 188.426 306.078 188.426 305.447V305.236L188.216 305.026C184.422 295.77 184 288.197 186.951 281.886C188.637 278.099 192.642 275.154 195.593 273.051C197.279 271.999 199.597 271.578 201.494 272.209C214.562 276.417 220.463 281.886 223.835 286.724Z" fill="url(#paint18_radial_177_2355)"/>
<path d="M254.396 277.679L240.696 281.465C239.853 281.255 238.799 281.255 237.956 281.255C233.53 281.465 230.158 283.779 227.839 286.093C227.207 286.724 226.364 286.514 225.942 285.883C223.835 282.727 221.095 279.993 217.722 277.889C217.09 277.468 217.09 276.627 217.512 275.996L218.776 274.523C225.521 267.371 250.602 263.374 250.602 263.374C250.602 263.374 256.293 263.164 257.768 268.423C259.244 273.682 254.396 277.679 254.396 277.679Z" fill="url(#paint19_radial_177_2355)"/>
<path d="M61.333 237.499C90.7831 237.499 114.657 213.671 114.657 184.278C114.657 154.884 90.7831 131.056 61.333 131.056C31.8828 131.056 8.00879 154.884 8.00879 184.278C8.00879 213.671 31.8828 237.499 61.333 237.499Z" fill="url(#paint20_linear_177_2355)"/>
<path d="M101.379 184.278C101.379 206.366 83.4635 224.247 61.3329 224.247C39.2023 224.247 21.2871 206.366 21.2871 184.278C21.2871 162.19 39.2023 144.309 61.3329 144.309C83.4635 144.309 101.379 162.19 101.379 184.278Z" fill="url(#paint21_linear_177_2355)"/>
<path d="M59.8573 174.601C60.4896 174.18 61.7542 173.97 63.4403 173.97C67.0234 173.97 71.028 175.022 75.4541 177.125L79.2479 167.449C75.0325 165.555 70.6064 164.504 66.3911 164.293V159.665H59.8573V164.293C55.4312 164.924 52.0589 166.187 49.7404 168.29C47.422 170.394 46.3682 173.339 46.3682 177.125C46.3682 179.65 46.7897 181.543 47.6328 183.226C48.4758 184.909 49.5297 186.381 51.2158 187.644C52.902 188.906 55.0096 190.168 57.7496 191.22C60.068 192.061 62.1757 192.903 63.4403 193.534C64.9157 194.165 65.9695 194.796 66.3911 195.217C67.0234 195.637 67.2341 196.268 67.2341 197.11C67.2341 198.162 66.8126 199.003 65.9695 199.424C65.1265 199.845 63.8619 200.055 61.965 200.055C59.8573 200.055 57.3281 199.634 54.3773 198.793C51.4266 197.951 48.6866 196.899 46.3682 195.427V206.787C50.7943 208.68 55.2204 209.732 59.8573 209.942V216.253H66.3911V209.732C70.8172 209.101 73.9787 207.628 76.2971 205.314C78.6156 203 79.6694 199.845 79.6694 196.058C79.6694 192.692 78.6156 189.958 76.7187 187.854C74.8218 185.75 71.6603 183.857 67.0234 182.174C64.9157 181.333 63.0188 180.702 61.965 180.07C60.7004 179.439 59.8573 179.019 59.4357 178.388C59.0142 177.967 58.5927 177.336 58.5927 176.494C58.8034 175.653 59.225 175.022 59.8573 174.601Z" fill="url(#paint22_linear_177_2355)"/>
<path d="M59.8573 171.025C60.4896 170.604 61.7542 170.394 63.4403 170.394C67.0234 170.394 71.028 171.446 75.4541 173.549L79.2479 163.873C75.0325 161.979 70.6064 160.927 66.3911 160.717V156.089H59.8573V160.717C55.4312 161.348 52.0589 162.61 49.7404 164.714C47.422 166.818 46.3682 169.763 46.3682 173.549C46.3682 176.074 46.7897 177.967 47.6328 179.65C48.4758 181.333 49.5297 182.805 51.2158 184.067C52.902 185.33 55.0096 186.592 57.7496 187.644C60.068 188.485 62.1757 189.326 63.4403 189.958C64.9157 190.589 65.9695 191.22 66.3911 191.64C67.0234 192.061 67.2341 192.692 67.2341 193.534C67.2341 194.585 66.8126 195.427 65.9695 195.848C65.1265 196.268 63.8619 196.479 61.965 196.479C59.8573 196.479 57.3281 196.058 54.3773 195.217C51.4266 194.375 48.6866 193.323 46.3682 191.851L46.5789 203.21C51.005 205.104 55.4312 206.155 60.0681 206.366V212.677H66.6018V206.155C71.028 205.524 74.1895 204.052 76.5079 201.738C78.8264 199.424 79.8802 196.268 79.8802 192.482C79.8802 189.116 78.8264 186.381 76.9294 184.278C75.0325 182.174 71.871 180.281 67.2341 178.598C65.1265 177.756 63.2296 177.125 62.1757 176.494C60.9111 175.863 60.068 175.442 59.6465 174.811C59.225 174.391 58.8034 173.76 58.8034 172.918C58.8034 172.077 59.225 171.446 59.8573 171.025Z" fill="url(#paint23_linear_177_2355)"/>
<path d="M79.2479 163.662V167.238L75.4541 177.125V173.339L79.2479 163.662Z" fill="url(#paint24_linear_177_2355)"/>
<path d="M61.3328 148.095C82.831 148.095 100.325 164.924 101.168 186.171C101.168 185.54 101.168 184.909 101.168 184.278C101.168 162.19 83.2526 144.309 61.122 144.309C38.9914 144.309 21.0762 162.19 21.0762 184.278C21.0762 184.909 21.0762 185.54 21.0762 186.171C22.3408 164.924 39.8345 148.095 61.3328 148.095Z" fill="url(#paint25_linear_177_2355)"/>
</g>
<defs>
<radialGradient id="paint0_radial_177_2355" cx="0" cy="0" r="1" gradientUnits="userSpaceOnUse" gradientTransform="translate(151.908 293.161) rotate(-175.749) scale(37.1451 37.0746)">
<stop stop-color="#F38B1F"/>
<stop offset="0.4061" stop-color="#F3891F"/>
<stop offset="0.6079" stop-color="#F3811F"/>
<stop offset="0.7647" stop-color="#F2741E"/>
<stop offset="0.8975" stop-color="#F1611D"/>
<stop offset="1" stop-color="#F04D1C"/>
</radialGradient>
<radialGradient id="paint1_radial_177_2355" cx="0" cy="0" r="1" gradientUnits="userSpaceOnUse" gradientTransform="translate(109.98 266.04) rotate(-175.749) scale(62.1087 61.9907)">
<stop stop-color="#F38B1F"/>
<stop offset="0.4061" stop-color="#F3891F"/>
<stop offset="0.6079" stop-color="#F3811F"/>
<stop offset="0.7647" stop-color="#F2741E"/>
<stop offset="0.8975" stop-color="#F1611D"/>
<stop offset="1" stop-color="#F04D1C"/>
</radialGradient>
<radialGradient id="paint2_radial_177_2355" cx="0" cy="0" r="1" gradientUnits="userSpaceOnUse" gradientTransform="translate(149.2 207.18) rotate(19.4893) scale(128.06 234.101)">
<stop stop-color="#F38B1F"/>
<stop offset="0.4061" stop-color="#F3891F"/>
<stop offset="0.6079" stop-color="#F3811F"/>
<stop offset="0.7647" stop-color="#F2741E"/>
<stop offset="0.8975" stop-color="#F1611D"/>
<stop offset="1" stop-color="#F04D1C"/>
</radialGradient>
<radialGradient id="paint3_radial_177_2355" cx="0" cy="0" r="1" gradientUnits="userSpaceOnUse" gradientTransform="translate(289.185 63.1027) scale(66.5022 66.3745)">
<stop offset="0.1265" stop-color="#348045"/>
<stop offset="0.5075" stop-color="#57A93A"/>
<stop offset="0.7422" stop-color="#6EC532"/>
</radialGradient>
<radialGradient id="paint4_radial_177_2355" cx="0" cy="0" r="1" gradientUnits="userSpaceOnUse" gradientTransform="translate(328.045 130.217) scale(31.9045 31.8432)">
<stop offset="0.1265" stop-color="#348045"/>
<stop offset="0.5075" stop-color="#57A93A"/>
<stop offset="0.7422" stop-color="#6EC532"/>
</radialGradient>
<radialGradient id="paint5_radial_177_2355" cx="0" cy="0" r="1" gradientUnits="userSpaceOnUse" gradientTransform="translate(332.603 116.032) scale(42.6627 42.5808)">
<stop offset="0.1265" stop-color="#348045"/>
<stop offset="0.5075" stop-color="#57A93A"/>
<stop offset="0.7422" stop-color="#6EC532"/>
</radialGradient>
<radialGradient id="paint6_radial_177_2355" cx="0" cy="0" r="1" gradientUnits="userSpaceOnUse" gradientTransform="translate(338.007 75.9678) scale(36.5884 36.5181)">
<stop offset="0.1265" stop-color="#348045"/>
<stop offset="0.5075" stop-color="#57A93A"/>
<stop offset="0.7422" stop-color="#6EC532"/>
</radialGradient>
<radialGradient id="paint7_radial_177_2355" cx="0" cy="0" r="1" gradientUnits="userSpaceOnUse" gradientTransform="translate(159.354 45.3355) rotate(-167.227) scale(55.2517 55.156)">
<stop offset="0.1265" stop-color="#348045"/>
<stop offset="0.5075" stop-color="#57A93A"/>
<stop offset="0.7422" stop-color="#6EC532"/>
</radialGradient>
<radialGradient id="paint8_radial_177_2355" cx="0" cy="0" r="1" gradientUnits="userSpaceOnUse" gradientTransform="translate(115.491 92.5779) rotate(-167.227) scale(26.5072 26.4613)">
<stop offset="0.1265" stop-color="#348045"/>
<stop offset="0.5075" stop-color="#57A93A"/>
<stop offset="0.7422" stop-color="#6EC532"/>
</radialGradient>
<radialGradient id="paint9_radial_177_2355" cx="0" cy="0" r="1" gradientUnits="userSpaceOnUse" gradientTransform="translate(114.413 80.2467) rotate(-167.227) scale(35.4453 35.3839)">
<stop offset="0.1265" stop-color="#348045"/>
<stop offset="0.5075" stop-color="#57A93A"/>
<stop offset="0.7422" stop-color="#6EC532"/>
</radialGradient>
<radialGradient id="paint10_radial_177_2355" cx="0" cy="0" r="1" gradientUnits="userSpaceOnUse" gradientTransform="translate(117.423 46.792) rotate(-167.227) scale(30.3984 30.3457)">
<stop offset="0.1265" stop-color="#348045"/>
<stop offset="0.5075" stop-color="#57A93A"/>
<stop offset="0.7422" stop-color="#6EC532"/>
</radialGradient>
<linearGradient id="paint11_linear_177_2355" x1="221.293" y1="91.5841" x2="233.01" y2="63.4081" gradientUnits="userSpaceOnUse">
<stop stop-color="#6D3458"/>
<stop offset="0.3393" stop-color="#935D82"/>
<stop offset="1" stop-color="#E7B6DC"/>
</linearGradient>
<linearGradient id="paint12_linear_177_2355" x1="254.105" y1="91.8247" x2="234.544" y2="79.3646" gradientUnits="userSpaceOnUse">
<stop stop-color="#6D3458"/>
<stop offset="0.3393" stop-color="#935D82"/>
<stop offset="1" stop-color="#E7B6DC"/>
</linearGradient>
<linearGradient id="paint13_linear_177_2355" x1="271.093" y1="100.209" x2="250.232" y2="86.9209" gradientUnits="userSpaceOnUse">
<stop stop-color="#6D3458"/>
<stop offset="0.3393" stop-color="#935D82"/>
<stop offset="1" stop-color="#E7B6DC"/>
</linearGradient>
<linearGradient id="paint14_linear_177_2355" x1="171.825" y1="85.0156" x2="169.441" y2="56.0903" gradientUnits="userSpaceOnUse">
<stop stop-color="#6D3458"/>
<stop offset="0.3393" stop-color="#935D82"/>
<stop offset="1" stop-color="#E7B6DC"/>
</linearGradient>
<linearGradient id="paint15_linear_177_2355" x1="199.66" y1="70.9088" x2="177.671" y2="68.9407" gradientUnits="userSpaceOnUse">
<stop stop-color="#6D3458"/>
<stop offset="0.3393" stop-color="#935D82"/>
<stop offset="1" stop-color="#E7B6DC"/>
</linearGradient>
<linearGradient id="paint16_linear_177_2355" x1="217.687" y1="70.5853" x2="194.238" y2="68.4864" gradientUnits="userSpaceOnUse">
<stop stop-color="#6D3458"/>
<stop offset="0.3393" stop-color="#935D82"/>
<stop offset="1" stop-color="#E7B6DC"/>
</linearGradient>
<radialGradient id="paint17_radial_177_2355" cx="0" cy="0" r="1" gradientUnits="userSpaceOnUse" gradientTransform="translate(189.421 259.113) rotate(-2.71604) scale(23.0425 22.9984)">
<stop stop-color="#F38B1F"/>
<stop offset="0.4061" stop-color="#F3891F"/>
<stop offset="0.6079" stop-color="#F3811F"/>
<stop offset="0.7647" stop-color="#F2741E"/>
<stop offset="0.8975" stop-color="#F1611D"/>
<stop offset="1" stop-color="#F04D1C"/>
</radialGradient>
<radialGradient id="paint18_radial_177_2355" cx="0" cy="0" r="1" gradientUnits="userSpaceOnUse" gradientTransform="translate(214.626 286.546) rotate(-2.71605) scale(37.3716 37.3002)">
<stop stop-color="#F38B1F"/>
<stop offset="0.4061" stop-color="#F3891F"/>
<stop offset="0.6079" stop-color="#F3811F"/>
<stop offset="0.7647" stop-color="#F2741E"/>
<stop offset="0.8975" stop-color="#F1611D"/>
<stop offset="1" stop-color="#F04D1C"/>
</radialGradient>
<radialGradient id="paint19_radial_177_2355" cx="0" cy="0" r="1" gradientUnits="userSpaceOnUse" gradientTransform="translate(225.386 261.909) rotate(-2.71605) scale(26.6636 26.6126)">
<stop stop-color="#F38B1F"/>
<stop offset="0.4061" stop-color="#F3891F"/>
<stop offset="0.6079" stop-color="#F3811F"/>
<stop offset="0.7647" stop-color="#F2741E"/>
<stop offset="0.8975" stop-color="#F1611D"/>
<stop offset="1" stop-color="#F04D1C"/>
</radialGradient>
<linearGradient id="paint20_linear_177_2355" x1="61.3184" y1="128.268" x2="61.3184" y2="213.232" gradientUnits="userSpaceOnUse">
<stop stop-color="#FCD224"/>
<stop offset="1" stop-color="#FFA340"/>
</linearGradient>
<linearGradient id="paint21_linear_177_2355" x1="61.3186" y1="132.41" x2="61.3186" y2="197.676" gradientUnits="userSpaceOnUse">
<stop stop-color="#FFA340"/>
<stop offset="1" stop-color="#FCD224"/>
</linearGradient>
<linearGradient id="paint22_linear_177_2355" x1="63.2104" y1="150.08" x2="63.2104" y2="225.433" gradientUnits="userSpaceOnUse">
<stop stop-color="#FCD224"/>
<stop offset="1" stop-color="#FFA340"/>
</linearGradient>
<linearGradient id="paint23_linear_177_2355" x1="63.2102" y1="146.403" x2="63.2102" y2="221.756" gradientUnits="userSpaceOnUse">
<stop offset="0.3081" stop-color="#FFA340"/>
<stop offset="1" stop-color="#FCD224"/>
</linearGradient>
<linearGradient id="paint24_linear_177_2355" x1="77.3731" y1="161.421" x2="77.3731" y2="179.164" gradientUnits="userSpaceOnUse">
<stop stop-color="#FCD224"/>
<stop offset="1" stop-color="#FFA340"/>
</linearGradient>
<linearGradient id="paint25_linear_177_2355" x1="61.3186" y1="138.095" x2="61.3186" y2="172.232" gradientUnits="userSpaceOnUse">
<stop stop-color="#FFA340"/>
<stop offset="1" stop-color="#FCD224" stop-opacity="0"/>
</linearGradient>
<clipPath id="clip0_177_2355">
<rect width="368" height="406" fill="white"/>
</clipPath>
</defs>
</svg>
