<svg width="37" height="37" viewBox="0 0 37 37" fill="none" xmlns="http://www.w3.org/2000/svg">
<g clip-path="url(#clip0_1027_19225)">
<path d="M16.9131 1.49453C16.4619 1.49594 15.9628 1.69837 15.5073 2.15245L7.46759 11.2465H1.4058C0.631203 11.2465 0 11.8778 0 12.6523V23.8987C0 24.6733 0.631203 25.3045 1.4058 25.3045H7.469L15.4638 34.355C16.8696 35.7608 18.2754 35.0411 18.2754 33.125V3.20539C18.2754 2.0934 17.6667 1.4875 16.9131 1.49172V1.49453ZM27.1052 4.30613C26.8062 4.35828 26.5321 4.5058 26.3239 4.72663C26.1157 4.94745 25.9846 5.22973 25.9501 5.53126C25.9156 5.8328 25.9796 6.13739 26.1326 6.39953C26.2855 6.66166 26.5192 6.86726 26.7987 6.98558C28.8901 8.03701 30.6472 9.65025 31.8731 11.6444C33.099 13.6385 33.7452 15.9347 33.7391 18.2755C33.7391 23.2296 30.9275 27.4835 26.7973 29.5655C26.6094 29.6309 26.4374 29.7354 26.2929 29.8722C26.1484 30.0091 26.0345 30.175 25.9589 30.3591C25.8833 30.5431 25.8476 30.7412 25.8543 30.9401C25.8609 31.139 25.9097 31.3342 25.9974 31.5128C26.0851 31.6915 26.2097 31.8494 26.3631 31.9763C26.5164 32.1032 26.6949 32.196 26.8868 32.2488C27.0787 32.3015 27.2796 32.3129 27.4762 32.2822C27.6728 32.2515 27.8607 32.1794 28.0274 32.0706C33.0784 29.5219 36.5507 24.3036 36.5507 18.2755C36.5507 12.2475 33.077 7.02916 28.0274 4.48045C27.7868 4.34618 27.5121 4.28556 27.2373 4.30613C27.1933 4.30406 27.1492 4.30406 27.1052 4.30613ZM23.7664 9.75218C23.4637 9.77441 23.1763 9.89401 22.9472 10.0931C22.7181 10.2922 22.5596 10.5601 22.4954 10.8567C22.4312 11.1533 22.4647 11.4628 22.5909 11.7388C22.7171 12.0148 22.9293 12.2426 23.1957 12.3881C25.3648 13.7362 26.7101 15.8716 26.7101 18.2755C26.7101 20.6963 25.3437 22.8598 23.1521 24.2066C22.9799 24.2964 22.8282 24.4209 22.7065 24.5723C22.5849 24.7237 22.4959 24.8986 22.4452 25.0861C22.3945 25.2735 22.3832 25.4695 22.412 25.6615C22.4409 25.8536 22.5091 26.0376 22.6126 26.2019C22.7161 26.3663 22.8524 26.5074 23.0132 26.6164C23.1739 26.7254 23.3554 26.7999 23.5464 26.8353C23.7373 26.8706 23.9335 26.866 24.1226 26.8218C24.3117 26.7775 24.4896 26.6946 24.645 26.5782C27.555 24.7928 29.5217 21.7563 29.5217 18.2755C29.5217 14.8159 27.5719 11.7625 24.6886 9.97289C24.4531 9.82242 24.178 9.74557 23.8986 9.75218C23.8545 9.75011 23.8104 9.75011 23.7664 9.75218Z" fill="#00080E"/>
</g>
<defs>
<clipPath id="clip0_1027_19225">
<rect width="36.5507" height="36.5507" fill="white"/>
</clipPath>
</defs>
</svg>
