<svg width="18" height="9" viewBox="0 0 18 9" fill="none" xmlns="http://www.w3.org/2000/svg">
<path d="M17.0034 5.46398C17.065 5.57088 17.1049 5.68886 17.1209 5.81119C17.1368 5.93351 17.1285 6.05778 17.0965 6.1769C17.0644 6.29602 17.0092 6.40766 16.934 6.50544C16.8588 6.60322 16.765 6.68523 16.6581 6.74679C16.5512 6.80835 16.4332 6.84824 16.3109 6.86421C16.1886 6.88017 16.0643 6.87188 15.9452 6.83981C15.8261 6.80775 15.7144 6.75253 15.6167 6.67732C15.5189 6.60211 15.4369 6.50838 15.3753 6.40148L14.0581 4.09679C13.3231 4.55916 12.5307 4.9232 11.7011 5.1796L12.1144 7.65148C12.155 7.89669 12.0966 8.14801 11.952 8.35018C11.8074 8.55235 11.5885 8.68883 11.3433 8.7296C11.2917 8.73869 11.2394 8.74313 11.187 8.74288C10.9656 8.74266 10.7515 8.66409 10.5825 8.5211C10.4135 8.37811 10.3005 8.17992 10.2636 7.96163L9.86125 5.55538C9.08083 5.64184 8.29324 5.64184 7.51281 5.55538L7.11438 7.96398C7.07743 8.18253 6.96425 8.38093 6.79491 8.52395C6.62557 8.66698 6.41103 8.74537 6.18938 8.74523C6.137 8.74548 6.08471 8.74103 6.03313 8.73195C5.9117 8.7115 5.79548 8.66733 5.69113 8.60196C5.58677 8.53658 5.49632 8.4513 5.42493 8.35096C5.35354 8.25063 5.30262 8.13721 5.27507 8.01719C5.24752 7.89717 5.24389 7.7729 5.26438 7.65148L5.67766 5.17335C4.84804 4.91695 4.05562 4.55291 3.32063 4.09054L2.00344 6.40148C1.87912 6.61738 1.67412 6.77505 1.43355 6.83981C1.19298 6.90457 0.93653 6.87111 0.720627 6.74679C0.504724 6.62247 0.34705 6.41747 0.282291 6.1769C0.217533 5.93633 0.250994 5.67988 0.375314 5.46398L1.81438 2.95226C1.32663 2.51179 0.874443 2.03348 0.462033 1.52179C0.316441 1.32761 0.251828 1.08453 0.281785 0.843683C0.311742 0.602838 0.433933 0.382996 0.622659 0.230396C0.811384 0.0777969 1.05194 0.00433319 1.29372 0.0254578C1.5355 0.0465823 1.75966 0.160648 1.91906 0.343664C3.17219 1.89523 5.36438 3.74523 8.68938 3.74523C12.0144 3.74523 14.2066 1.89523 15.4597 0.343664C15.6165 0.152089 15.8427 0.0303233 16.089 0.00494243C16.3353 -0.0204385 16.5816 0.0526259 16.7742 0.20819C16.9668 0.363754 17.09 0.589187 17.117 0.835288C17.144 1.08139 17.0726 1.32818 16.9183 1.52179C16.5054 2.03354 16.0527 2.51185 15.5644 2.95226L17.0034 5.46398Z" fill="#B7B7B7"/>
</svg>
